<?xml version="1.0" encoding="UTF-8" standalone="no"?>
<svg
   xmlns:dc="http://purl.org/dc/elements/1.1/"
   xmlns:cc="http://creativecommons.org/ns#"
   xmlns:rdf="http://www.w3.org/1999/02/22-rdf-syntax-ns#"
   xmlns:svg="http://www.w3.org/2000/svg"
   xmlns="http://www.w3.org/2000/svg"
   xmlns:xlink="http://www.w3.org/1999/xlink"
   xmlns:sodipodi="http://sodipodi.sourceforge.net/DTD/sodipodi-0.dtd"
   xmlns:inkscape="http://www.inkscape.org/namespaces/inkscape"
   inkscape:version="1.0 (9f2f71dc58, 2020-08-02)"
   sodipodi:docname="about_students.svg"
   version="1.1"
   viewBox="0 0 1100 699.99998"
   height="700"
   width="1100"
   data-name="Layer 1"
   id="4ef1610a-9e03-48a5-8dcf-c01d7d13df94">
  <metadata
     id="metadata1650">
    <rdf:RDF>
      <cc:Work
         rdf:about="">
        <dc:format>image/svg+xml</dc:format>
        <dc:type
           rdf:resource="http://purl.org/dc/dcmitype/StillImage" />
        <dc:title>celebration</dc:title>
      </cc:Work>
    </rdf:RDF>
  </metadata>
  <sodipodi:namedview
     inkscape:current-layer="4ef1610a-9e03-48a5-8dcf-c01d7d13df94"
     inkscape:window-maximized="1"
     inkscape:window-y="40"
     inkscape:window-x="0"
     inkscape:cy="231.77946"
     inkscape:cx="474.89999"
     inkscape:zoom="0.79307804"
     showgrid="false"
     id="namedview1648"
     inkscape:window-height="1005"
     inkscape:window-width="1920"
     inkscape:pageshadow="2"
     inkscape:pageopacity="0"
     guidetolerance="10"
     gridtolerance="10"
     objecttolerance="10"
     borderopacity="1"
     bordercolor="#666666"
     pagecolor="#ffffff"
     inkscape:document-rotation="0" />
  <defs
     id="defs1279">
    <linearGradient
       gradientUnits="userSpaceOnUse"
       y2="249"
       x2="585.59998"
       y1="663"
       x1="585.59998"
       id="b4d6f2bc-ae5e-476c-81ed-6eb215cdf2b8">
      <stop
         id="stop1269"
         stop-opacity="0.25"
         stop-color="gray"
         offset="0" />
      <stop
         id="stop1271"
         stop-opacity="0.12"
         stop-color="gray"
         offset="0.54" />
      <stop
         id="stop1273"
         stop-opacity="0.1"
         stop-color="gray"
         offset="1" />
    </linearGradient>
    <linearGradient
       xlink:href="#b4d6f2bc-ae5e-476c-81ed-6eb215cdf2b8"
       y2="486.89001"
       x2="266.19"
       y1="487.10999"
       x1="266.19"
       id="9c7f1c1e-55bc-40cd-85e2-0f597ed8a8ed"
       gradientTransform="matrix(1.0973882,0,0,1.1510219,-96.631847,-98.127151)" />
    <linearGradient
       xlink:href="#b4d6f2bc-ae5e-476c-81ed-6eb215cdf2b8"
       y2="271"
       x2="252.55"
       y1="605"
       x1="252.55"
       id="9ac4e148-2e83-4d81-ad56-620a328cd147"
       gradientTransform="matrix(1.0973882,0,0,1.1510219,-96.631847,-98.127151)" />
    <linearGradient
       xlink:href="#b4d6f2bc-ae5e-476c-81ed-6eb215cdf2b8"
       y2="195"
       x2="852.65997"
       y1="602"
       x1="852.65997"
       id="2bd42fb4-2e8b-436b-a616-1dc6bfdc374d"
       gradientTransform="matrix(1.0973882,0,0,1.1510219,-96.631847,-98.127151)" />
    <linearGradient
       inkscape:collect="always"
       xlink:href="#b4d6f2bc-ae5e-476c-81ed-6eb215cdf2b8"
       id="linearGradient6382"
       gradientUnits="userSpaceOnUse"
       x1="585.59998"
       y1="663"
       x2="585.59998"
       y2="249"
       gradientTransform="matrix(1.0973882,0,0,1.1510219,-96.631847,-98.127151)" />
  </defs>
  <title
     id="title1281">celebration</title>
  <ellipse
     id="circle1283"
     fill="#5dc8cd"
     cy="115.12267"
     cx="145.04594"
     rx="51.017578"
     ry="53.511009"
     style="stroke-width:1.12389" />
  <path
     id="path1285"
     opacity="0.1"
     fill="#5dc8cd"
     d="m 138.81279,224.05537 c 21.42101,50.74856 -5.90395,109.18594 -38.0684,153.1895 -10.765381,14.7561 -22.650095,30.22584 -24.142543,48.73427 -1.799716,22.6406 12.817494,43.45107 30.156233,57.05615 31.62672,24.79301 74.81992,32.45882 112.46034,19.94721 32.52658,-10.8081 59.87349,-35.22127 92.6854,-45.06251 54.86941,-16.48263 113.03098,10.84263 160.02114,44.88986 33.26183,24.06786 68.88305,53.3959 108.98162,48.23932 28.21385,-3.62572 52.15886,-24.40166 68.41117,-48.86088 7.84633,-11.80948 14.67208,-25.04623 26.09589,-33.0113 6.79284,-4.74221 14.77085,-7.25144 22.74886,-9.04703 72.8556,-16.333 150.17757,23.52688 222.06747,3.02718 48.55942,-13.81226 87.27533,-54.09802 111.35203,-100.44967 24.0767,-46.35165 35.3139,-98.68862 44.6746,-150.54215 6.6502,-36.8327 12.1701,-76.62353 -3.1165,-110.4981 C 1056.9646,65.801384 1019.5217,44.058581 981.89221,39.983964 944.26277,35.909346 906.52359,47.15483 871.8571,63.015911 828.54319,82.882547 786.08524,110.69123 738.80976,110.78331 706.61239,110.85241 675.90747,97.891867 645.12573,88.004587 593.65823,71.487437 540.13861,63.280646 486.80554,55.706922 435.74407,48.455484 384.1778,41.710496 332.80906,45.992298 c -36.34549,3.027187 -68.4441,17.599124 -103.71415,24.344109 -22.99028,4.39691 -46.0903,1.15103 -68.6526,8.51756 -27.78587,9.11609 -56.36186,30.237343 -57.8982,63.501873 -1.44856,31.66461 24.91071,54.77713 36.26868,81.69953 z"
     style="stroke-width:1.12389" />
  <path
     id="path1287"
     fill="url(#b4d6f2bc-ae5e-476c-81ed-6eb215cdf2b8)"
     d="m 701.16934,269.24449 c -4.68584,-12.81087 -16.76809,-42.9216 -24.72415,-36.9478 -10.05208,7.5507 10.05207,40.90732 10.05207,40.90732 0.57065,6.12343 -10.73245,18.86524 -16.79003,25.21889 0,-0.50645 0,-0.79421 0,-0.79421 a 2.6337316,2.7624524 0 0 1 -0.26338,0.69061 l -0.5048,-0.28775 a 3.2921645,3.4530656 0 0 1 -0.7133,1.36971 c 0,-0.86326 -0.0549,-1.36971 -0.0549,-1.36971 -1.16323,5.16809 -21.46491,11.7174 -21.46491,11.7174 0,0 -0.54869,0 -1.49245,0 -5.64057,0 -20.32363,-1.33518 -27.12743,-12.75332 a 60.202714,63.145059 0 0 0 -13.31132,-16.28696 11.33602,11.890056 0 0 0 -6.30998,-2.50923 c -18.79826,-1.26612 -34.01904,-11.24548 -37.0588,-13.37487 l -0.55967,-0.40286 -0.12071,0.36833 c -0.7133,-1.07045 -1.40466,-2.20997 -2.05212,-3.38401 v 0 l -0.32921,-0.63306 a 27.56639,28.913669 0 0 0 15.19882,-25.71383 c 0,-0.19567 0,-0.40286 0,-0.59853 a 18.776311,19.693984 0 0 0 2.52399,-9.86426 v -3.45306 l 4.29079,-4.00556 c 1.96433,-1.83012 3.9945,-3.76384 4.99312,-6.28458 a 7.1001013,7.4471114 0 0 0 0.52674,-3.22286 5.3223325,5.582456 0 0 0 -2.01919,-4.99543 c -3.29216,-2.38262 -8.7791,0 -11.16044,-3.31495 -1.09738,-1.49632 -0.89986,-3.53363 -1.43758,-5.2947 -1.09738,-3.57967 -5.04798,-5.51339 -8.70228,-5.57094 -3.65431,-0.0576 -7.15497,1.33518 -10.66662,2.38261 a 62.627942,65.688817 0 0 1 -22.71593,2.23299 14.836688,15.561815 0 0 0 -6.22219,0.2302 8.5706015,8.9894807 0 0 0 -5.04799,6.15797 13.794169,14.468345 0 0 0 -0.48285,3.1538 18.918972,19.843617 0 0 0 -4.76266,13.13316 v 8.85135 a 18.907998,19.832107 0 0 0 4.55416,12.87994 27.434704,28.775546 0 0 0 11.48965,20.99464 q 0,0.3453 0,0.70212 l 0.14266,0.0921 a 45.377,47.594754 0 0 1 -1.20712,8.13773 v -0.58702 c 0,0 -15.36344,8.57511 -31.82426,8.78229 h -1.81069 a 12.257826,12.856914 0 0 0 -8.77911,3.45307 c -4.8724,4.81127 -13.41008,12.41952 -18.65559,12.41952 -1.09739,0 -28.79547,5.67454 -33.38255,6.61838 l -8.5706,-8.80532 -0.26338,0.51796 -0.5048,-0.51796 a 20.850375,21.869415 0 0 0 -2.78736,0.42588 c -4.38955,-5.45584 -13.16866,-18.1401 -15.19883,-35.16372 0,0 18.9519,-22.6406 11.98348,-43.73883 -5.94784,-17.97896 -22.33185,20.55725 -26.98477,32.17106 a 8.8449485,9.2772361 0 0 0 -0.28532,6.38817 l 15.39635,52.04921 a 23.275603,24.413173 0 0 0 -1.2181,12.66124 h -0.17558 l 11.21531,15.0899 c 0,0 8.43891,3.77535 21.64049,3.70629 a 75.653939,79.351447 0 0 0 28.24677,-5.68605 h 2.60081 l -0.49382,0.19568 h 13.35521 l 8.49378,26.94542 c -0.28532,2.45167 -4.38955,36.67155 -7.68171,44.32585 a 18.337356,19.233575 0 0 0 -1.29492,8.05715 58.644423,61.510608 0 0 0 2.44717,15.59635 l 7.4403,-0.28776 -0.28532,0.61004 c -6.29901,13.54753 -16.82297,37.68446 -23.04516,60.24449 l -10.83122,23.02043 8.12068,103.24666 v 0 h 0.32921 v 0 l 0.62551,0.1036 v 0 c 0.87791,0.13812 2.19478,0.3453 3.92865,0.57551 l -0.63648,1.15102 -17.8984,31.07759 c 0,0 -12.76263,27.40583 15.47317,22.23774 0,0 10.43616,-3.17682 14.69403,-21.86941 l 18.5678,-18.26672 c 0,0 0.86694,-12.13177 -4.38955,-16.97757 -0.32921,-5.60548 -1.16323,-21.97301 0.12071,-25.9095 1.54732,-4.76524 -6.58432,-59.56539 -6.58432,-59.56539 0,0 29.38805,-63.93926 47.18769,-65.52767 a 9.7557807,10.232584 0 0 1 3.85183,0.52947 c 14.62818,4.99544 32.351,42.09287 37.5636,53.63762 v 0 l 0.24142,0.52947 v 0.10359 l 0.19753,0.4489 v 0.12661 l 0.17558,0.39135 v 0.10359 l 0.15364,0.35682 v 0.0806 l 0.13168,0.28775 v 0.11511 l 0.0988,0.21869 v 0.0921 l 0.0658,0.16115 v 0.0921 0.10359 0 l 0.0549,0.13812 2.31549,71.88132 v 0 0 0 l 0.23045,0.12661 v 0 h 0.10974 l -0.19753,1.48482 -1.0096,7.42409 c 0,0 12.76263,28.20003 11.98348,31.7682 -0.77914,3.56817 8.50476,17.87537 21.65147,13.90435 13.14671,-3.97103 5.32233,-26.3584 5.32233,-26.3584 l -12.66386,-27.3713 -0.55966,-1.22009 a 24.888763,26.105176 0 0 0 3.55553,-2.77396 c 0,0 -3.8628,-29.38559 0,-35.73923 3.86281,-6.35364 5.02604,-35.34788 5.02604,-35.34788 0,0 -2.71055,-19.85513 -7.3525,-28.59138 l -19.44572,-72.80213 c 5.82713,5.68604 10.35935,7.90752 14.14534,7.75788 h 0.62551 a 9.448512,9.9102982 0 0 0 4.76266,-1.2431 13.421057,14.076997 0 0 0 2.19478,-1.62294 3.4677466,3.6372291 0 0 0 0.36214,-0.37984 v 0 c 5.41012,-4.76523 -6.18927,-23.4348 -12.76263,-34.53065 -6.33193,-10.70451 2.39231,-39.79083 3.05074,-41.95475 a 10.469083,10.980748 0 0 1 1.87653,-1.15102 11.577445,12.143281 0 0 1 4.30177,-0.97837 c 6.299,0.2302 14.04656,4.02857 23.63774,5.93927 a 111.51658,116.96684 0 0 0 20.18096,1.64596 h 0.39506 c 2.68861,0 5.12481,-0.0575 7.10011,-0.13812 a 11.994453,12.580669 0 0 0 5.15772,-1.4618 v 0 a 15.571938,16.333 0 0 0 3.66528,-3.10776 l 16.83393,-19.94721 -0.43895,0.2187 a 9.4594859,9.9218084 0 0 0 0,-7.02123 l 17.78866,-32.22862 a 11.687184,12.258383 0 0 0 0.86693,-10.62393 z"
     style="fill:url(#linearGradient6382);stroke-width:1.12389" />
  <path
     id="path1289"
     fill="#444176"
     d="m 501.31301,621.42265 -17.92034,18.01349 c -4.10424,18.41635 -14.18923,21.53562 -14.18923,21.53562 -27.24815,5.08752 -14.93546,-21.86942 -14.93546,-21.86942 l 17.28387,-30.67473 2.12893,-3.78686 c 0,0 12.32367,-3.91348 20.53213,-1.56539 a 7.0232842,7.3665399 0 0 1 2.79834,1.58841 c 5.14675,4.68466 4.30176,16.75888 4.30176,16.75888 z"
     style="stroke-width:1.12389" />
  <path
     id="path1291"
     fill="#444176"
     d="m 611.80903,637.4794 c -12.69678,3.91348 -21.65147,-10.17503 -20.85038,-13.70867 0.8011,-3.53363 -11.59939,-31.28477 -11.59939,-31.28477 l 0.9657,-7.3205 0.89986,-6.77952 20.85037,1.56539 1.96433,4.32784 12.2249,26.99146 c 0,0 8.24139,22.2953 -4.45539,26.20877 z"
     style="stroke-width:1.12389" />
  <path
     id="path1293"
     opacity="0.1"
     d="m 497.20878,607.72549 c -1.96432,3.53363 -17.88742,1.74955 -25.64596,0.64457 l 2.12893,-3.78686 c 0,0 12.32367,-3.91348 20.53214,-1.56539 a 7.0232842,7.3665399 0 0 1 2.79834,1.58841 c 0.10974,1.91069 0.18655,3.11927 0.18655,3.11927 z"
     style="stroke-width:1.12389" />
  <path
     id="path1295"
     opacity="0.1"
     d="m 604.06147,584.25615 c -10.67759,7.45862 -22.04653,1.81862 -23.75846,0.88629 l 0.89986,-6.77952 20.85038,1.56539 z"
     style="stroke-width:1.12389" />
  <path
     id="path1297"
     fill="#565387"
     d="m 606.95857,545.07537 c -3.73112,6.26156 0,35.24429 0,35.24429 -12.32367,11.75193 -26.87503,3.13078 -26.87503,3.13078 l -2.19478,-70.86842 c 0,0 -24.26325,-58.3453 -41.43738,-56.77991 -17.17412,1.56539 -45.54161,64.60686 -45.54161,64.60686 0,0 7.83536,54.02897 6.34291,58.70211 -1.49245,4.67315 0,27.40583 0,27.40583 -2.61179,4.69617 -29.85993,0 -29.85993,0 l -7.83536,-101.80788 10.40324,-22.72117 c 5.98077,-22.23774 16.14258,-46.04087 22.22211,-59.39273 3.01782,-6.64139 5.03702,-10.69299 5.03702,-10.69299 l 19.86272,-4.33935 64.47156,-14.01945 23.16586,88.44452 c 4.47734,8.60964 7.08913,28.18853 7.08913,28.18853 0,0 -1.11934,28.63742 -4.85046,34.89898 z"
     style="stroke-width:1.12389" />
  <g
     id="g1303"
     opacity="0.1"
     transform="matrix(1.0973882,0,0,1.1510219,40.651412,39.120697)">
    <path
       id="path1299"
       transform="translate(-125.1,-119.24)"
       d="m 622.1,592.15 -2,-61.57 c 0,0 -22.11,-50.69 -37.76,-49.33 a 8.52,8.52 0 0 0 -2.05,0.46 c 15.26,5.07 34.37,48.87 34.37,48.87 l 2,61.57 a 24,24 0 0 0 13.53,2.47 24.07,24.07 0 0 1 -8.09,-2.47 z" />
    <path
       id="path1301"
       transform="translate(-125.1,-119.24)"
       d="m 519.37,612.22 -7.14,-88.45 9.52,-19.77 c 5.45,-19.32 14.71,-40 20.25,-51.6 2.75,-5.77 4.59,-9.29 4.59,-9.29 l 18.1,-3.77 53.63,-11.15 -0.29,-1.07 -58.78,12.22 -18.1,3.77 c 0,0 -1.84,3.52 -4.59,9.29 -5.56,11.6 -14.8,32.32 -20.25,51.6 l -9.52,19.73 7.14,88.45 c 0,0 13.56,2.23 21.6,1.74 a 160.66,160.66 0 0 1 -16.16,-1.7 z" />
  </g>
  <path
     id="path1305"
     fill="#ced2df"
     d="m 427.91969,291.15995 c 0,0 -21.27835,1.15102 -18.29346,24.6664 l 5.9698,0.78269 8.95468,-10.17503 4.47735,-8.60965 v -1.95673 z"
     style="stroke-width:1.12389" />
  <path
     id="path1307"
     opacity="0.1"
     d="m 427.91969,291.15995 c 0,0 -21.27835,1.15102 -18.29346,24.6664 l 5.9698,0.78269 8.95468,-10.17503 4.47735,-8.60965 v -1.95673 z"
     style="stroke-width:1.12389" />
  <path
     id="path1309"
     fill="#ced2df"
     d="m 664.63729,299.76959 c 0,0 17.55821,9.78369 13.0699,21.14427 l -5.59668,2.30205 -7.46224,-4.30483 -1.09739,-10.17503 0.74622,-7.04425 z"
     style="stroke-width:1.12389" />
  <path
     id="path1311"
     opacity="0.1"
     d="m 664.63729,299.76959 c 0,0 17.55821,9.78369 13.0699,21.14427 l -5.59668,2.30205 -7.46224,-4.30483 -1.09739,-10.17503 0.74622,-7.04425 z"
     style="stroke-width:1.12389" />
  <rect
     id="rect1313"
     fill="#88455e"
     ry="24.275051"
     rx="23.143917"
     height="48.550102"
     width="61.223286"
     y="198.74442"
     x="513.82318"
     style="stroke-width:1.12389" />
  <path
     id="path1315"
     fill="#ec8c9c"
     d="m 427.77703,294.4864 -13.06989,21.86942 -1.09739,-3.89046 -17.75574,-60.68187 a 8.8998179,9.3347872 0 0 1 0.27435,-6.29609 c 4.48832,-11.44116 20.31265,-49.49394 26.05199,-31.71065 6.71602,20.71839 -11.57744,43.07124 -11.57744,43.07124 2.08504,18.1401 11.79692,31.28477 15.61583,35.84282 0.9657,1.18555 1.55829,1.79559 1.55829,1.79559 z"
     style="stroke-width:1.12389" />
  <path
     id="path1317"
     fill="#ec8c9c"
     d="m 661.83895,303.87874 c 0,0 20.53214,-20.36158 19.75299,-28.57987 0,0 -19.4128,-32.8847 -9.70091,-40.28577 7.68172,-5.89323 19.34695,23.80313 23.86819,36.42984 a 11.742053,12.315934 0 0 1 -0.77914,10.3592 l -24.5376,45.56896 z"
     style="stroke-width:1.12389" />
  <path
     id="path1319"
     fill="#ec8c9c"
     d="m 528.93427,247.11034 c 0,0 3.73112,25.05775 -7.08912,34.4616 -10.82025,9.40384 30.99024,9.34629 30.99024,9.34629 l 14.93545,-14.49136 c 0,0 -17.17412,-16.83945 -11.95056,-29.36257 z"
     style="stroke-width:1.12389" />
  <path
     id="path1321"
     opacity="0.1"
     d="m 528.18805,275.69021 c 0,0 16.05479,12.53463 32.0986,-1.56539 l 26.12882,56.77991 -1.49245,69.30303 c 0,0 -54.13416,29.36257 -76.53185,11.36058 -22.39769,-18.00198 -3.73112,-27.40583 -3.73112,-27.40583 l -5.22357,-53.24627 5.59668,-34.46159 c 0,0 10.07402,-16.4481 10.83122,-16.4481 0.7572,0 12.32367,-4.31634 12.32367,-4.31634 z"
     style="stroke-width:1.12389" />
  <path
     id="path1323"
     fill="#ebf1f6"
     d="m 528.18805,274.90752 c 0,0 16.05479,12.55765 32.10958,-1.56539 l 26.12881,56.77991 -1.49245,69.30302 c 0,0 -54.13416,29.36257 -76.53185,11.36059 -22.39769,-18.00198 -3.73112,-27.40583 -3.73112,-27.40583 l -5.22357,-53.24627 5.59668,-34.4616 c 0,0 10.07403,-16.4481 10.83122,-16.4481 0.7572,0 12.3127,-4.31633 12.3127,-4.31633 z"
     style="stroke-width:1.12389" />
  <path
     id="path1325"
     opacity="0.1"
     d="m 528.18805,269.04882 c 0,0 -15.22077,9.09307 -31.74744,8.64417 a 11.698158,12.269893 0 0 0 -8.43891,3.38401 c -4.7078,4.74221 -12.94918,12.24687 -18.05204,12.24687 -1.09739,0 -32.8558,6.6529 -32.8558,6.6529 l -8.39502,-8.80531 c 0,0 -12.51023,25.64476 -18.48002,24.47072 l 10.83122,14.88271 c 0,0 20.53214,9.39234 47.40717,-1.95673 h 15.68168 l 8.20846,26.62313 c 0,0 -4.10423,36.02699 -7.46224,43.85394 -3.358,7.82694 1.09739,23.101 1.09739,23.101 l 29.48682,-1.15102 c 0,0 1.49245,-15.27406 3.73112,-17.26533 2.23867,-1.99126 -7.83535,-69.30302 -7.83535,-69.30302 0,0 -6.71602,-37.98372 17.92035,-51.68088 z"
     style="stroke-width:1.12389" />
  <path
     id="path1327"
     opacity="0.1"
     d="m 517.07151,407.60883 a 97.459042,102.22225 0 0 0 -2.31549,14.12304 l -22.57328,0.89779 c 3.01782,-6.64139 5.03702,-10.69299 5.03702,-10.69299 z"
     style="stroke-width:1.12389" />
  <path
     id="path1329"
     opacity="0.1"
     d="m 427.77703,294.4864 -13.06989,21.86942 -1.09739,-3.89046 c 4.79559,-4.99543 10.41422,-15.4352 12.65289,-19.78606 0.9218,1.19706 1.51439,1.8071 1.51439,1.8071 z"
     style="stroke-width:1.12389" />
  <path
     id="path1331"
     fill="#ced2df"
     d="m 528.18805,269.04882 c 0,0 -15.97797,9.09307 -32.49366,8.64417 a 11.698158,12.269893 0 0 0 -8.43892,3.38401 c -4.70779,4.74221 -12.94918,12.24687 -18.05203,12.24687 -1.09739,0 -32.8558,6.6529 -32.8558,6.6529 l -8.42795,-8.81682 c 0,0 -12.51022,25.64476 -18.48001,24.47072 l 10.83122,14.88271 c 0,0 20.53213,9.39234 47.40717,-1.95673 h 15.68167 l 8.20847,26.61162 c 0,0 -4.10423,36.02699 -7.46224,43.85394 -3.35801,7.82694 1.09739,23.101 1.09739,23.101 l 29.48682,-1.15102 c 0,0 1.49244,-15.27406 3.73112,-17.26533 2.23867,-1.99126 -7.83536,-69.30302 -7.83536,-69.30302 0,0 -6.71601,-37.98372 17.92035,-51.68088 z"
     style="stroke-width:1.12389" />
  <path
     id="path1333"
     opacity="0.1"
     d="m 560.29763,266.67771 c 0,0 15.23174,12.17781 35.56635,13.58206 a 10.809273,11.337565 0 0 1 6.0905,2.4747 58.951692,61.832894 0 0 1 12.85042,16.1143 c 8.20846,14.10002 28.36748,12.53463 28.36748,12.53463 0,0 19.59935,-6.45723 20.71869,-11.51022 0,0 0.55967,27.62453 12.88334,20.9486 l -16.20843,19.59039 a 11.434785,11.993648 0 0 1 -8.17554,4.13217 c -6.0905,0.25323 -16.66933,0.3338 -25.60206,-1.48482 -13.44301,-2.73943 -23.14392,-9.39234 -30.23305,-3.52212 0,0 -9.3278,30.53661 -2.98489,41.50584 6.3429,10.96924 17.55821,29.36257 12.32366,34.07025 -5.23454,4.70768 -11.57744,4.30482 -22.02458,-7.04425 -10.44713,-11.34908 -11.57744,-30.53661 -11.57744,-30.53661 l 2.61178,-49.3328 c 0,0 -10.07402,-37.20103 -19.75298,-44.63663 z"
     style="stroke-width:1.12389" />
  <path
     id="path1335"
     opacity="0.1"
     d="m 678.25588,320.32684 -16.25232,19.67096 a 11.423811,11.982137 0 0 1 -3.91767,3.06172 v 0 a 11.379915,11.936097 0 0 1 -4.23592,1.04743 c -6.09051,0.26474 -16.66933,0.34531 -25.60207,-1.48482 -12.57607,-2.56677 -21.88192,-8.55209 -28.83936,-4.512 a 10.20571,10.704503 0 0 0 -1.40466,0.97837 c 0,0 -9.3278,30.53661 -2.98489,41.50585 6.3429,10.96923 17.55821,29.36256 12.32367,34.07024 a 12.07127,12.66124 0 0 1 -2.91906,1.99127 c -4.69682,2.22147 -10.52395,0.29927 -19.10552,-9.03552 -10.44714,-11.36059 -11.57745,-30.53661 -11.57745,-30.53661 l 2.61179,-49.3328 c 0,0 -10.07403,-37.20102 -19.75299,-44.63663 l 4.26884,-16.05675 c 2.941,2.09486 17.62405,11.9361 35.77485,13.19071 a 10.809273,11.337565 0 0 1 6.09051,2.4747 58.995587,61.878935 0 0 1 12.85041,16.1143 c 8.20847,14.10002 28.36749,12.53463 28.36749,12.53463 a 108.93772,114.26194 0 0 0 14.12338,-5.89323 v 0 c 2.86418,-1.47331 5.38818,-3.08474 6.58433,-4.60409 a 3.2921645,3.4530656 0 0 0 0.7133,-1.38122 c 0,0 0.57064,27.4864 12.88334,20.83349 z"
     style="stroke-width:1.12389" />
  <path
     id="path1337"
     fill="#ced2df"
     d="m 677.50966,320.71819 -16.24135,19.69398 a 11.423811,11.982137 0 0 1 -3.16048,2.67037 v 0 a 11.390889,11.947607 0 0 1 -4.98214,1.43878 c -6.0905,0.26474 -16.66933,0.34531 -25.60206,-1.48482 -12.12614,-2.47469 -21.22349,-8.13772 -28.08217,-4.90335 a 10.15084,10.646952 0 0 0 -2.19477,1.36972 c 0,0 -9.3278,30.53661 -2.9849,41.50584 6.3429,10.96924 17.55821,29.36257 12.32367,34.07025 a 12.94918,13.582058 0 0 1 -2.19478,1.59992 c -4.8285,2.79698 -10.7983,1.15102 -19.85175,-8.64417 C 574.0918,396.67412 572.96149,377.4981 572.96149,377.4981 l 2.61178,-49.3328 c 0,0 -10.07402,-37.20103 -19.75299,-44.63663 l 4.47735,-16.83945 0.53772,0.39135 c 2.941,2.09486 17.62405,11.9361 35.77485,13.19071 a 10.809273,11.337565 0 0 1 6.09051,2.4747 58.995587,61.878935 0 0 1 12.85041,16.1143 c 8.20846,14.10002 28.36748,12.53463 28.36748,12.53463 a 108.93772,114.26194 0 0 0 14.12339,-5.89323 v 0 c 3.39093,-1.81861 6.15635,-3.80988 6.58433,-5.6285 0,0 0,0.35682 0,0.98988 0.32922,4.75372 1.9753,25.73685 12.88334,19.85513 z"
     style="stroke-width:1.12389" />
  <path
     id="path1339"
     opacity="0.1"
     d="m 556.1495,247.69736 h -27.4347 a 67.138207,70.419517 0 0 1 0.51577,13.81226 28.202876,29.581262 0 0 0 28.99299,2.18695 c -2.63373,-5.11054 -4.23591,-10.91169 -2.07406,-15.99921 z"
     style="stroke-width:1.12389" />
  <ellipse
     id="circle1341"
     fill="#ec8c9c"
     cy="237.7065"
     cx="545.36212"
     rx="27.248148"
     ry="28.579872"
     style="stroke-width:1.12389" />
  <path
     id="path1343"
     opacity="0.1"
     d="m 539.69965,232.61898 c 3.03977,-0.37984 6.07953,-1.50784 9.0754,-0.87478 2.72152,0.57551 5.03701,2.54376 7.75854,3.14229 5.24551,1.15102 10.11791,-2.90058 14.07949,-6.67593 l 8.55962,-8.17225 c 1.89848,-1.80711 3.85184,-3.70629 4.82851,-6.1925 0.97668,-2.48621 0.63649,-5.75511 -1.44855,-7.3205 -3.12756,-2.30204 -8.51573,0 -10.77635,-3.2689 -1.02057,-1.47331 -0.86694,-3.45307 -1.39369,-5.21413 -1.09738,-3.52213 -4.8724,-5.44433 -8.40599,-5.49037 -3.53359,-0.0461 -6.91354,1.31216 -10.2935,2.30204 a 59.25896,62.15518 0 0 1 -21.94776,2.19845 14.024621,14.710059 0 0 0 -6.00272,0.2187 8.3950194,8.8053172 0 0 0 -4.8724,6.06588 c -1.68998,6.26156 1.19615,16.35602 4.09326,21.9615 2.8971,5.60547 10.96291,8.06866 16.74614,7.3205 z"
     style="stroke-width:1.12389" />
  <path
     id="path1345"
     fill="#88455e"
     d="m 539.69965,231.83628 c 3.03977,-0.37984 6.07953,-1.50784 9.0754,-0.87478 2.72152,0.57552 5.03701,2.54376 7.75854,3.14229 5.24551,1.15103 10.11791,-2.90057 14.07949,-6.67592 l 8.55962,-8.17226 c 1.89848,-1.8071 3.85184,-3.70629 4.82851,-6.1925 0.97668,-2.4862 0.63649,-5.7551 -1.44855,-7.32049 -3.12756,-2.30205 -8.51573,0 -10.77635,-3.26891 -1.02057,-1.4733 -0.86694,-3.45306 -1.39369,-5.21413 -1.09738,-3.52212 -4.8724,-5.44433 -8.40599,-5.49037 -3.53359,-0.046 -6.91354,1.31217 -10.2935,2.30204 a 59.25896,62.15518 0 0 1 -21.94776,2.19846 14.024621,14.710059 0 0 0 -6.00272,0.21869 8.3950194,8.8053172 0 0 0 -4.8724,6.06589 c -1.68998,6.26155 1.19615,16.35602 4.09326,21.96149 2.8971,5.60548 10.96291,8.01111 16.74614,7.3205 z"
     style="stroke-width:1.12389" />
  <path
     id="path1347"
     opacity="0.1"
     d="m 492.17177,355.37546 c 0,0 5.96979,0.78269 8.95469,4.69617 2.98489,3.91347 8.20846,5.08751 8.20846,5.08751"
     style="stroke-width:1.12389" />
  <path
     id="path1349"
     opacity="0.1"
     d="m 438.41073,303.68307 c 0,0 4.8724,11.40662 1.86555,12.55764 -3.00684,1.15103 -1.86555,9.39234 -1.86555,9.39234"
     style="stroke-width:1.12389" />
  <g
     id="g1357"
     opacity="0.1"
     transform="matrix(1.0973882,0,0,1.1510219,40.651412,39.120697)">
    <path
       id="path1351"
       transform="translate(-125.1,-119.24)"
       d="m 489.09,345.69 c 0,0 28.91,-5.78 29.91,-5.78 4.66,0 12.16,-6.52 16.45,-10.64 a 10.5,10.5 0 0 1 4.66,-2.59 h -0.37 a 10.66,10.66 0 0 0 -7.69,2.94 c -4.29,4.12 -11.8,10.64 -16.45,10.64 -0.81,0 -19.31,3.67 -26.82,5.16 z" />
    <path
       id="path1353"
       transform="translate(-125.1,-119.24)"
       d="m 569.41,320.43 v -1.27 a 72.18,72.18 0 0 1 -22.16,7.09 68.48,68.48 0 0 0 22.16,-5.82 z" />
    <path
       id="path1355"
       transform="translate(-125.1,-119.24)"
       d="m 533.66,451.82 c 0,0 -4.08,-13.27 -1,-20.07 3.08,-6.8 6.8,-38.1 6.8,-38.1 L 532,370.52 h -14.33 l -0.87,0.34 h 11.75 L 536,394 c 0,0 -3.74,31.3 -6.8,38.1 -3.06,6.8 1,20.07 1,20.07 l 26.87,-1 v -0.21 z" />
  </g>
  <g
     id="g1363"
     opacity="0.1"
     transform="matrix(1.0973882,0,0,1.1510219,40.651412,39.120697)">
    <path
       id="path1359"
       transform="translate(-125.1,-119.24)"
       d="m 641.15,440.43 a 11.8,11.8 0 0 1 -2,1.39 c -4.4,2.43 -9.84,1 -18.09,-7.51 -7.56,-7.83 -9.76,-20 -10.35,-24.61 l -0.2,3.52 c 0,0 1,16.67 10.55,26.53 8.25,8.54 13.69,9.94 18.09,7.51 a 11.8,11.8 0 0 0 2,-1.39 c 1.43,-1.23 1.51,-3.54 0.76,-6.42 a 3.15,3.15 0 0 1 -0.76,0.98 z" />
    <path
       id="path1361"
       transform="translate(-125.1,-119.24)"
       d="M 700.63,364.4 691,375.53 a 10.41,10.41 0 0 1 -2.88,2.32 v 0 a 10.38,10.38 0 0 1 -4.54,1.25 c -5.55,0.23 -15.19,0.3 -23.33,-1.29 -11.05,-2.15 -19.34,-7.07 -25.59,-4.26 a 9.25,9.25 0 0 0 -2,1.19 c 0,0 -5.49,17.14 -4.65,28.81 0.65,-10.91 4.65,-23.37 4.65,-23.37 a 9.25,9.25 0 0 1 2,-1.19 c 6.26,-2.81 14.54,2.11 25.59,4.26 8.14,1.58 17.77,1.51 23.33,1.29 a 10.38,10.38 0 0 0 4.54,-1.25 v 0 A 10.41,10.41 0 0 0 691,381 l 14.81,-17.09 a 5.83,5.83 0 0 1 -5.18,0.49 z" />
  </g>
  <path
     id="path1365"
     fill="url(#9c7f1c1e-55bc-40cd-85e2-0f597ed8a8ed)"
     d="m 194.98809,462.29388 a 0.84498888,0.88628683 0 0 0 0.99862,0.13812 3.4019033,3.5681677 0 0 1 -0.99862,-0.13812 z"
     style="fill:url(#9c7f1c1e-55bc-40cd-85e2-0f597ed8a8ed);stroke-width:1.12389" />
  <path
     id="path1367"
     fill="url(#9ac4e148-2e83-4d81-ad56-620a328cd147)"
     d="m 306.82291,271.62711 c -1.9753,-0.59853 -4.79558,-1.5769 -8.18651,-2.82001 a 42.929825,45.027975 0 0 0 7.58295,-16.02222 l -0.28532,0.1151 c 0.0988,-0.35682 0.19753,-0.70212 0.28532,-1.07045 -6.50751,2.77396 -13.70638,-1.92221 -18.29346,-7.95356 -4.58708,-6.03135 -7.68172,-13.513 -12.70776,-19.06092 a 58.161572,61.004158 0 0 0 -6.73796,-6.08891 c -1.48147,-1.15102 -3.07269,-2.45167 -4.88338,-2.50923 -2.93002,-0.0921 -5.22357,2.9236 -8.04385,3.80989 a 10.973882,11.510219 0 0 1 -5.60766,-0.2187 c -7.27568,-1.74955 -14.26604,-4.98392 -21.69536,-5.83568 a 25.426483,26.669176 0 0 0 -11.77497,1.39274 c -3.73112,1.48482 -5.43208,4.44294 -8.44989,6.81405 -3.29217,2.54376 -9.72286,2.48621 -13.55275,2.9351 a 97.118851,101.86543 0 0 1 -14.00267,0.61005 32.778984,34.381023 0 0 0 -8.05483,0.31077 c -5.56376,1.27764 -10.03013,5.91625 -14.2002,10.3592 a 7.319579,7.6773158 0 0 0 -2.34841,3.85592 4.6419519,4.8688224 0 0 0 0,1.27764 7.9121686,8.2988676 0 0 0 0.55967,3.39551 42.798138,44.889852 0 0 0 5.38817,11.24548 c 1.70095,2.55527 3.68723,4.96091 4.65293,7.98809 a 14.781818,15.504264 0 0 1 0.7133,4.60409 31.923021,33.483226 0 0 1 -0.49383,4.9494 59.25896,62.15518 0 0 1 -3.6104,13.1792 22.825674,23.941255 0 0 0 -2.10699,6.90613 10.491031,11.003769 0 0 0 0,1.47331 c -0.27434,7.59674 7.03426,13.06409 8.44989,20.6148 a 11.742053,12.315934 0 0 1 0.2085,1.89918 c -0.15363,4.70768 -2.71054,9.31177 -6.48556,11.14189 0.32922,0.13813 0.66941,0.25323 1.0096,0.36833 a 9.1522172,9.5995223 0 0 1 -1.0096,0.57551 c 0.69136,0.27625 1.39368,0.51796 2.10699,0.71364 a 48.943512,51.335575 0 0 0 -10.65564,13.81226 c -12.69678,24.79301 -98.688123,73.35462 -98.688123,73.35462 l 1.27297,0.75968 -1.031545,0.70212 c -7.440291,5.19111 -24.899737,20.32704 -9.119295,39.46854 0,0 12.323669,-20.39611 20.960113,-29.08632 0.384086,-0.39135 0.768172,-0.74817 1.097389,-1.08196 a 2.5239928,2.6473503 0 0 1 0.329216,2.09485 L 125.9514,397.28416 c 0,0 20.09317,-14.7561 25.70083,-18.08255 a 46.254911,48.515571 0 0 1 12.74067,-5.75511 l -0.65843,0.28776 a 25.810569,27.072034 0 0 1 6.48556,-0.96686 c 10.00818,0.16114 20.85038,7.84997 24.41689,38.29449 4.78461,40.7692 2.56789,48.12423 1.03155,49.12562 a 2.8202876,2.9581262 0 0 1 -0.55967,-0.1036 0.95472769,1.001389 0 0 0 0.15363,0.11511 2.9410002,3.0847386 0 0 1 -0.61454,-0.11511 0.87791052,0.92081748 0 0 0 0.83402,0.20719 0.77914559,0.81722552 0 0 0 0.62551,-0.0806 v 0 a 6.4965379,6.8140494 0 0 0 0.7572,0 q 0,0.564 -0.0768,1.15102 c -0.0768,0 -0.44993,0.21869 0,0.24171 v 0 c -0.12071,2.30205 -0.10974,4.79976 0,7.41258 -4.97117,0.28776 -9.94234,0.59854 -14.26604,0.87478 l 0.38408,-2.15241 0.17558,-0.96686 c 3.81891,-0.32228 7.4403,-1.49633 7.86828,-4.74221 0.93278,-7.13633 -8.406,-10.94622 -16.35109,-11.41814 -7.94509,-0.47191 -55.59368,2.85454 -55.59368,2.85454 0,0 -7.144,9.70311 15.51707,12.66124 q 1.00959,0.55249 2.09601,1.15102 c 8.87787,5.30621 20.91622,15.07839 26.68848,19.88966 l 0.80109,0.66759 -2.58983,2.20996 c 14.01364,3.32646 27.56639,59.49632 35.0396,85.17562 7.47321,25.6793 23.8243,24.74697 37.37704,20.93709 12.69678,-3.56817 14.26605,-42.2425 14.47455,-47.09982 v -0.49494 l 22.58425,29.25898 1.71192,2.22147 q 0.98765,0.54098 1.95335,1.0129 c 17.09731,8.52907 35.98336,-7.82695 30.61713,-26.4735 -5.43207,-18.79619 -13.86001,-46.59337 -19.47864,-58.3453 -4.70779,-9.84124 -10.78732,-26.18575 -14.47455,-36.41833 a 11.720105,12.292913 0 0 0 1.39369,-0.70212 c 0,0 -0.0878,-0.46041 -0.23045,-1.30066 l 0.23045,-0.12661 c 0,0 -5.48694,-29.60428 -5.72837,-50.64496 q 0,-0.55249 0,-1.15102 c 0,-0.23021 0,-0.46041 0,-0.67911 4.08229,-0.97837 6.67212,-1.3582 6.67212,-1.3582 l 0.0768,-0.92082 -0.47188,0.10359 2.2716,-27.26771 c 0,0 8.34015,-18.61202 1.95335,-26.3584 a 15.517068,16.275449 0 0 1 -3.7421,-8.05715 c -1.09739,-7.12482 0,-19.01488 14.86961,-28.89065 22.89152,-15.22802 31.82426,-27.62452 31.82426,-27.62452 0,0 0.39506,-8.88589 -13.61859,-13.21373 z m -45.46479,18.9228 v -12.60369 c 4.24689,-0.2187 8.58158,0.29926 12.85042,0 a 32.515611,34.104777 0 0 0 6.20024,-1.09347 l 1.03154,0.74816 a 113.03098,118.55525 0 0 1 -20.0822,12.949 z M 196.44761,488.1113 c 1.67901,1.22008 3.36898,2.4862 5.02604,3.76384 1.03154,6.21552 1.94238,10.60091 2.00822,10.91169 a 82.150477,86.165496 0 0 0 -7.03426,-14.67553 z"
     style="fill:url(#9ac4e148-2e83-4d81-ad56-620a328cd147);stroke-width:1.12389" />
  <path
     id="path1369"
     fill="#ffbdc6"
     d="m 232.72726,477.7521 -0.98765,5.6285 -0.75719,4.30482 -1.38271,7.87299 -13.41009,9.84123 c 0,0 -1.20712,-1.08196 -3.20437,-2.79698 -5.48694,-4.74221 -17.04244,-14.36475 -25.52525,-19.56737 a 28.532092,29.926568 0 0 0 -7.01231,-3.39551 z"
     style="stroke-width:1.12389" />
  <path
     id="path1371"
     opacity="0.1"
     d="m 232.72726,477.7521 -0.98765,5.6285 a 41.70075,43.73883 0 0 1 -8.84494,-0.47192 l -31.28654,0.47192 c -1.48147,-0.0921 -2.86418,-0.2187 -4.1591,-0.35682 a 28.532092,29.926568 0 0 0 -7.01231,-3.39551 z"
     style="stroke-width:1.12389" />
  <path
     id="path1373"
     fill="#7679b4"
     d="m 222.89467,481.98786 c 0,0 15.64875,2.80849 16.53764,-4.22425 0.88888,-7.03274 -8.04386,-10.73903 -15.62681,-11.2685 -7.58295,-0.52947 -53.20138,2.83151 -53.20138,2.83151 0,0 -8.04385,11.24548 21.00401,13.12165 z"
     style="stroke-width:1.12389" />
  <path
     id="path1375"
     opacity="0.1"
     d="m 232.72726,477.7521 -0.98765,5.6285 -0.75719,4.30482 -1.38271,7.87299 -13.41009,9.84123 c 0,0 -1.20712,-1.08196 -3.20437,-2.79698 -5.48694,-4.74221 -17.04244,-14.36475 -25.52525,-19.56737 a 28.532092,29.926568 0 0 0 -7.01231,-3.39551 z"
     style="stroke-width:1.12389" />
  <path
     id="path1377"
     opacity="0.1"
     d="m 232.72726,477.7521 -0.98765,5.6285 a 41.70075,43.73883 0 0 1 -8.84494,-0.47192 l -31.28654,0.47192 c -1.48147,-0.0921 -2.86418,-0.2187 -4.1591,-0.35682 a 28.532092,29.926568 0 0 0 -7.01231,-3.39551 z"
     style="stroke-width:1.12389" />
  <path
     id="path1379"
     opacity="0.1"
     d="m 222.89467,481.98786 c 0,0 15.64875,2.80849 16.53764,-4.22425 0.88888,-7.03274 -8.04386,-10.73903 -15.62681,-11.2685 -7.58295,-0.52947 -53.20138,2.83151 -53.20138,2.83151 0,0 -8.04385,11.24548 21.00401,13.12165 z"
     style="stroke-width:1.12389" />
  <rect
     id="rect1381"
     fill="#a66477"
     height="101.72731"
     width="81.788338"
     y="250.85115"
     x="175.28998"
     style="stroke-width:1.12389" />
  <rect
     id="rect1383"
     opacity="0.1"
     height="101.72731"
     width="81.788338"
     y="250.85115"
     x="175.28998"
     style="stroke-width:1.12389" />
  <path
     id="path1385"
     fill="#ffbdc6"
     d="m 79.422135,425.01228 c -1.349787,0.35682 -3.061713,1.71502 -4.982142,3.69478 -8.263333,8.5636 -20.049282,28.64893 -20.049282,28.64893 -15.100061,-18.85374 1.613161,-33.75947 8.779105,-38.88152 1.733874,-1.2431 2.897105,-1.91069 2.897105,-1.91069 z"
     style="stroke-width:1.12389" />
  <path
     id="path1387"
     fill="#ffbdc6"
     d="m 231.83838,282.96467 c 0,0 4.02741,29.53522 17.87645,36.56797 13.84904,7.03274 -17.87645,20.15439 -17.87645,20.15439 l -43.35781,-16.87398 c 0,0 24.5815,-8.43699 19.6652,-33.28755 z"
     style="stroke-width:1.12389" />
  <path
     id="path1389"
     fill="#ffbdc6"
     d="m 185.39691,460.63641 -0.98765,5.62849 -0.75719,4.30482 -1.38271,7.87299 -13.41009,9.84124 c 0,0 -1.20712,-1.08196 -3.20437,-2.79698 -5.48694,-4.74221 -17.04244,-14.36476 -25.52525,-19.56737 a 28.532092,29.926568 0 0 0 -7.01231,-3.39552 z"
     style="stroke-width:1.12389" />
  <path
     id="path1391"
     opacity="0.1"
     d="m 185.39691,460.63641 -0.98765,5.62849 a 41.70075,43.73883 0 0 1 -8.84495,-0.47192 l -31.28653,0.47192 c -1.48148,-0.0921 -2.86418,-0.21869 -4.1591,-0.35681 a 28.532092,29.926568 0 0 0 -7.01231,-3.39552 z"
     style="stroke-width:1.12389" />
  <path
     id="path1393"
     fill="#7679b4"
     d="m 175.52042,464.86066 c 0,0 15.64875,2.80849 16.53764,-4.22425 0.88888,-7.03275 -8.04386,-10.78508 -15.64876,-11.24549 -7.6049,-0.46041 -53.1904,2.80849 -53.1904,2.80849 0,0 -8.04385,11.24549 21.00401,13.12165 z"
     style="stroke-width:1.12389" />
  <path
     id="path1395"
     opacity="0.1"
     d="m 183.60817,470.58123 -1.38271,7.87299 -13.41008,9.84124 c 0,0 -1.20713,-1.08196 -3.20438,-2.79698 l 17.7338,-15.25104 z"
     style="stroke-width:1.12389" />
  <path
     id="path1397"
     fill="#7679b4"
     d="m 272.09058,577.90251 q -0.92181,-0.47192 -1.86556,-1.00139 l -1.63511,-2.18694 -21.5966,-28.77555 v 0.50645 c -0.14266,4.77674 -1.70095,42.87557 -13.83807,46.38618 -12.96015,3.75234 -28.6089,4.68466 -35.7529,-20.62631 -7.144,-25.31097 -20.11513,-80.62908 -33.52521,-83.90949 l 19.88467,-17.11569 c 0,0 13.16866,16.1143 18.54586,31.63008 -0.19753,-0.98988 -9.29487,-45.54594 -1.78874,-53.41893 h 65.2507 c 0,0 10.05208,30.08771 16.98757,45.00496 5.3772,11.57928 13.443,38.95058 18.6556,57.47052 5.15772,18.32427 -12.86139,34.43857 -29.32221,26.03611 z"
     style="stroke-width:1.12389" />
  <path
     id="path1399"
     opacity="0.1"
     d="m 270.26891,457.8164 c -10.06305,6.25005 -54.30974,3.70629 -68.72942,2.69339 l -3.91767,-0.29926 c -0.42798,0 0.0658,-0.25323 0.0658,-0.25323 l 0.40603,-4.25878 10.72149,-28.59138 57.43729,-34.89898 c -1.16323,3.67176 -1.55829,9.30025 -1.45952,15.75749 0.28532,20.69537 5.47596,49.85075 5.47596,49.85075 z"
     style="stroke-width:1.12389" />
  <path
     id="path1401"
     fill="#f2f1f2"
     d="m 270.26891,456.42367 c -10.06305,6.25004 -54.30974,3.70629 -68.72942,2.69339 l -3.91767,-0.29927 h -0.64746 l 0.7133,-0.19567 3.53359,-0.97837 7.59393,-31.88331 57.43729,-34.922 c -1.16323,3.67176 -1.55829,9.30026 -1.45952,15.75749 0.28532,20.66084 5.47596,49.82774 5.47596,49.82774 z"
     style="stroke-width:1.12389" />
  <path
     id="path1403"
     opacity="0.1"
     d="m 264.79295,406.54989 c -11.67621,2.82 -37.37705,11.11887 -47.25354,31.07759 -6.58433,13.32883 -12.07127,19.04941 -15.98894,21.44354 l -3.91768,-0.29927 0.0658,-0.25323 3.53359,-0.97836 7.59393,-31.88331 57.4373,-34.922 c -1.18518,3.77535 -1.56927,9.35781 -1.4705,15.81504 z"
     style="stroke-width:1.12389" />
  <path
     id="path1405"
     opacity="0.1"
     d="m 66.012052,416.57529 13.410083,8.43699 c -1.349787,0.35682 -3.061713,1.71502 -4.982142,3.69478 -1.097388,-3.45307 -8.14262,-8.19528 -11.325046,-10.22108 1.733873,-1.2431 2.897105,-1.91069 2.897105,-1.91069 z"
     style="stroke-width:1.12389" />
  <path
     id="path1407"
     opacity="0.1"
     d="m 195.27341,459.35877 a 0.80109335,0.84024595 0 0 1 -0.94376,-0.12661 3.2263212,3.3840042 0 0 0 0.94376,0.12661 z"
     style="stroke-width:1.12389" />
  <path
     id="path1409"
     fill="#565388"
     d="m 225.57229,317.65647 c 0,0 -12.07127,1.40425 -20.56505,-7.96507 0,0 -35.75291,10.78507 -47.82418,35.16372 -12.07127,24.37864 -94.309538,72.19209 -94.309538,72.19209 0,0 14.266046,8.43699 12.960154,12.66124 l 54.079294,-32.81564 c 0,0 19.21526,-14.5374 24.58149,-17.81781 5.36623,-3.28042 34.86402,-23.43481 41.11914,31.41138 6.25511,54.84619 0,48.34292 0,48.34292 0,0 8.94371,3.28041 21.94776,-23.02044 13.00405,-26.30085 53.1904,-32.34371 53.1904,-32.34371 l 2.19478,-27.62452 c 0,0 7.97801,-18.32427 1.86556,-25.96706 a 15.473173,16.229408 0 0 1 -3.57749,-7.93054 c -1.02057,-7.02123 0,-18.72712 14.26605,-28.45326 21.94776,-14.96328 30.39765,-27.18713 30.39765,-27.18713 0,0 0.44993,-8.90891 -12.96015,-13.12165 -13.41009,-4.21274 -67.9393,-27.18714 -67.9393,-27.18714 l -1.78875,7.96507 42.90788,31.88331 c 0,0 -21.45394,18.27822 -38.40858,17.81781 -0.0659,-0.0806 3.06171,13.52451 -12.13712,13.99643 z"
     style="stroke-width:1.12389" />
  <path
     id="path1411"
     opacity="0.1"
     d="m 233.85757,295.82159 a 87.791052,92.081748 0 0 1 -2.46912,-11.51022 l -23.69261,6.60686 a 26.117838,27.39432 0 0 1 -0.53772,14.33023 25.481353,26.726727 0 0 0 26.69945,-9.43838 z"
     style="stroke-width:1.12389" />
  <ellipse
     id="circle1413"
     fill="#ffbdc6"
     cy="278.0383"
     cx="214.18141"
     rx="25.481352"
     ry="26.726727"
     style="stroke-width:1.12389" />
  <path
     id="path1415"
     opacity="0.1"
     d="m 227.72317,217.25283 c 7.06718,0.84025 13.79417,4.02858 20.75161,5.75511 a 10.249605,10.750544 0 0 0 5.36623,0.2187 c 2.69958,-0.87478 4.89435,-3.84442 7.68172,-3.75233 1.7229,0 3.29216,1.28914 4.67487,2.47469 a 56.087508,58.828727 0 0 1 6.44167,5.99683 c 4.79559,5.46735 7.78048,12.83389 12.15906,18.77316 4.37858,5.93928 11.28115,10.56638 17.50334,7.83846 -4.22494,17.26533 -18.09593,30.46755 -33.08625,31.538 -5.98077,0.42588 -12.07127,-0.87478 -17.8984,0.96686 a 15.670703,16.436592 0 0 1 -4.52124,1.15102 c -3.29216,0 -6.01369,-3.21135 -8.09872,-6.33062 -4.87241,-7.34352 -8.77911,-15.67692 -14.26605,-22.36435 -1.81069,-2.20997 -3.9506,-4.31634 -6.50751,-4.71919 -2.55692,-0.40286 -4.9163,0.87477 -7.19887,2.11788 -3.76404,2.04882 -7.61587,4.1667 -10.53493,7.6658 -2.91905,3.49911 -4.76266,8.73626 -3.55553,13.47847 0.64746,2.55527 2.1399,4.85731 2.19477,7.53919 0,4.25878 -3.53359,7.37805 -4.24689,11.51022 a 42.359183,44.429444 0 0 0 -0.17558,5.24866 c -0.31824,5.68605 -3.85183,10.3592 -7.56101,13.91585 -1.43757,1.39274 -3.03976,2.87756 -3.45677,5.02997 -0.28532,1.4618 0,3.01568 -0.18655,4.5005 -0.53772,3.69478 -4.04937,5.55943 -7.15497,6.04286 a 20.740636,21.754313 0 0 1 -10.73246,-1.33519 c 4.38955,-2.15241 7.01231,-8.28735 6.00271,-13.81226 -1.38271,-7.60825 -8.66936,-13.0641 -8.05483,-20.82198 a 22.968334,24.090887 0 0 1 2.0192,-6.84858 59.752785,62.67314 0 0 0 3.4458,-12.98353 20.971088,21.996028 0 0 0 -0.20851,-10.3592 c -0.93278,-2.98114 -2.83126,-5.35225 -4.45539,-7.87299 a 42.600608,44.682668 0 0 1 -5.15773,-11.08434 7.40737,7.7693975 0 0 1 -0.49382,-3.66025 7.2317879,7.585234 0 0 1 2.19477,-3.79837 c 3.9945,-4.38539 8.27431,-8.95495 13.58567,-10.22107 a 30.463495,31.952367 0 0 1 7.68172,-0.31078 90.249202,94.660037 0 0 0 13.39911,-0.59853 c 3.66527,-0.4489 9.87649,-0.39135 12.97112,-2.90057 2.88613,-2.30205 4.52124,-5.23715 8.08775,-6.71046 a 23.670662,24.827541 0 0 1 11.39089,-1.27764 z"
     style="stroke-width:1.12389" />
  <path
     id="path1417"
     opacity="0.1"
     d="m 241.89045,493.22183 c 0,0 14.7489,30.46755 10.28253,39.84838"
     style="stroke-width:1.12389" />
  <path
     id="path1419"
     opacity="0.1"
     d="m 268.6338,574.71418 -21.59659,-28.77555 v 0.50645 c 0,0 -1.25103,-9.30025 2.86418,-6.16947 9.00955,6.83707 23.42924,18.04802 23.7365,19.98174 0.30727,1.93371 -2.91905,9.6916 -5.00409,14.45683 z"
     style="stroke-width:1.12389" />
  <g
     id="g1433"
     opacity="0.1"
     transform="matrix(1.0973882,0,0,1.1510219,40.651412,39.120697)">
    <path
       id="path1421"
       transform="translate(-125.1,-119.24)"
       d="m 305,349 c 0,0 1.66,6.88 -3.71,10.32 8.27,-1.42 8.63,-7.85 8.38,-10.65 A 26.06,26.06 0 0 1 305,349 Z" />
    <path
       id="path1423"
       transform="translate(-125.1,-119.24)"
       d="m 150.25,445.95 c 0,0 74.94,-41.54 85.94,-62.72 7.89,-15.2 26.9,-24.31 37,-28.25 -7.37,2.47 -32.17,11.94 -41.49,29.88 -11,21.18 -85.94,62.72 -85.94,62.72 z" />
    <path
       id="path1425"
       transform="translate(-125.1,-119.24)"
       d="m 319.58,345.77 c 12.75,-4 24.94,-13.87 24.94,-13.87 l -39.1,-27.7 0.89,-3.8 -3.74,-1.5 -1.63,6.92 39.1,27.7 a 94.35,94.35 0 0 1 -20.46,12.25 z" />
    <path
       id="path1427"
       transform="translate(-125.1,-119.24)"
       d="m 319.83,439.63 a 96.88,96.88 0 0 1 15.33,-3.87 l 0.07,-0.79 a 103.76,103.76 0 0 0 -15.4,4.66 z" />
    <path
       id="path1429"
       transform="translate(-125.1,-119.24)"
       d="m 272.44,482.3 h -0.36 a 0.73,0.73 0 0 1 -0.86,-0.11 3,3 0 0 0 0.86,0.11 c 1.34,-0.78 3.35,-6.86 -0.86,-42.06 -4.5,-37.58 -22.16,-34.63 -31.83,-30.31 9.88,-2.72 23.48,-0.37 27.35,31.94 4.21,35.2 2.2,41.29 0.86,42.06 a 9,9 0 0 0 4.84,-1.63 z" />
    <path
       id="path1431"
       transform="translate(-125.1,-119.24)"
       d="m 267.6,483.94 a 3,3 0 0 1 -0.86,-0.11 0.73,0.73 0 0 0 0.86,0.11 z" />
  </g>
  <path
     id="path1435"
     fill="#a66477"
     d="m 227.72317,216.34353 c 7.06718,0.84024 13.79417,4.02857 20.75161,5.75511 a 10.249605,10.750544 0 0 0 5.36623,0.21869 c 2.69958,-0.87478 4.89435,-3.84441 7.68172,-3.75233 1.7229,0 3.29216,1.28914 4.67487,2.4747 a 56.087508,58.828727 0 0 1 6.44167,5.99682 c 4.79559,5.46735 7.78048,12.83389 12.15906,18.77317 4.37858,5.93927 11.28115,10.56638 17.50334,7.83846 -4.22494,17.26532 -18.09593,30.46754 -33.08625,31.53799 -5.98077,0.42588 -12.07127,-0.87477 -17.8984,0.96686 a 15.670703,16.436592 0 0 1 -4.52124,1.15102 c -3.29216,0 -6.01369,-3.21135 -8.09872,-6.33062 -4.87241,-7.34352 -8.77911,-15.67691 -14.26605,-22.36435 -1.81069,-2.20996 -3.9506,-4.31633 -6.50751,-4.71919 -2.55692,-0.40286 -4.9163,0.87478 -7.19887,2.11788 -3.76404,2.04882 -7.61587,4.1667 -10.53493,7.66581 -2.91905,3.4991 -4.76266,8.73625 -3.55553,13.47846 0.64746,2.55527 2.1399,4.85731 2.19477,7.53919 0,4.25879 -3.53359,7.37805 -4.24689,11.51022 a 42.359183,44.429444 0 0 0 -0.17558,5.24866 c -0.31824,5.68605 -3.85183,10.3592 -7.56101,13.91586 -1.43757,1.39273 -3.03976,2.87755 -3.45677,5.02996 -0.28532,1.4618 0,3.01568 -0.18655,4.5005 -0.53772,3.69478 -4.04937,5.55943 -7.15497,6.04286 a 20.740636,21.754313 0 0 1 -10.73246,-1.33518 c 4.38955,-2.15241 7.01231,-8.28736 6.00271,-13.81226 -1.38271,-7.60826 -8.66936,-13.0641 -8.05483,-20.82199 a 22.968334,24.090887 0 0 1 2.0192,-6.84858 59.752785,62.67314 0 0 0 3.4458,-12.98353 20.971088,21.996028 0 0 0 -0.20851,-10.35919 c -0.93278,-2.98115 -2.83126,-5.35225 -4.45539,-7.87299 a 42.600608,44.682668 0 0 1 -5.15773,-11.08434 7.40737,7.7693975 0 0 1 -0.49382,-3.66025 7.2317879,7.585234 0 0 1 2.19477,-3.79837 c 3.9945,-4.3854 8.27431,-8.95495 13.58567,-10.22108 a 30.463495,31.952367 0 0 1 7.68172,-0.31077 90.249202,94.660037 0 0 0 13.39911,-0.59854 c 3.66527,-0.44889 9.87649,-0.39134 12.97112,-2.90057 2.88613,-2.30204 4.52124,-5.23715 8.08775,-6.71046 a 23.670662,24.827541 0 0 1 11.39089,-1.27763 z"
     style="stroke-width:1.12389" />
  <path
     id="path1437"
     fill="url(#2bd42fb4-2e8b-436b-a616-1dc6bfdc374d)"
     d="m 955.32444,156.35227 v 0 c 0,-0.14963 0,-0.28776 0,-0.42588 0,-0.13812 0,-0.29927 -0.0658,-0.43739 h -0.17559 c 0,-0.31077 0,-0.62155 0,-0.95535 -0.43895,-10.66997 -14.50747,-33.37963 -20.14804,-26.74974 -4.93825,5.82417 2.51302,20.55725 6.30998,27.18713 l 0.34019,0.59853 -0.18656,-0.12661 c 0,0 -15.70362,49.12561 -17.55821,51.03631 -1.85458,1.9107 -14.78181,40.53899 -31.82425,44.88985 -3.36898,0.84025 -6.16732,1.59992 -8.51573,2.30205 l 0.18655,-0.65609 c 1.09739,-3.76384 2.44718,-7.3205 2.99587,-11.51022 0.5487,-4.18971 0,-9.26572 -2.01919,-11.30303 -0.98765,-1.0129 -2.19478,-1.15102 -3.00685,-2.76245 a 12.159061,12.753322 0 0 1 -0.83401,-4.43144 l -1.44855,-18.62353 1.00959,-0.32229 c 6.10148,-2.04881 12.0164,-6.90613 12.70776,-13.44393 a 6.5843289,6.9061311 0 0 1 -0.64746,0.21869 11.116542,11.659851 0 0 0 0.18656,-1.15102 c -5.12481,2.11788 -9.8765,-3.45306 -14.81474,-5.95078 -8.13165,-4.17821 -17.42653,-0.24172 -25.82155,0.71363 -9.51435,1.09347 -18.54586,-3.05021 -28.26872,-2.30204 -5.28941,0.42588 -11.17141,4.18972 -10.88609,9.65707 0.16461,3.00417 2.19478,5.54793 3.02879,8.42548 2.10699,6.96368 -2.57886,13.95039 -6.68309,19.88966 -2.69957,3.90196 -5.28941,8.65568 -5.75031,13.23675 -9.44852,-10.3592 -19.6652,-22.32982 -20.85038,-26.83032 L 755.24867,157.3997 c 0,0 -0.64746,0.72514 -1.68998,1.79559 -0.1646,-0.52947 -0.36213,-1.15102 -0.58161,-1.77257 -3.4897,-10.25561 -13.36619,-35.10617 -25.88739,-30.54812 -12.5212,4.55805 5.19065,30.03016 12.89431,40.18217 l 1.09739,1.40425 a 3.4677466,3.6372291 0 0 1 -1.95335,-0.0921 l 30.48544,54.84619 c 0,0 5.54181,10.49732 10.62272,13.35185 0,0 37.87087,50.08096 38.33177,60.09485 0.4609,10.01389 17.03146,36.72911 17.03146,36.72911 0,0 5.54181,43.40503 -4.1591,51.03631 h 0.12071 0.0768 0.12071 0.10974 0.21948 0.14266 0.14266 0.18656 0.15363 0.21948 0.10974 c -0.4609,0.47192 -0.93278,0.98988 -1.41563,1.55388 -7.18789,8.35642 -16.37303,26.26632 -3.81891,56.72235 18.46904,44.88986 21.24543,62.47747 21.24543,62.47747 0,0 -35.11642,1.9107 -42.02996,3.33796 -6.12343,1.26613 -29.92578,2.15242 -35.36882,2.30205 -1.94238,-2.37111 -7.68172,-7.61977 -15.42928,0 -9.70091,9.54197 -16.62543,41.43678 -16.62543,41.43678 0,0 -3.6982,25.75987 8.7791,19.07244 0,0 14.78182,-21.46656 18.92995,-22.42191 2.06309,-0.47192 4.24689,-3.66025 5.91492,-6.73348 l 0.0878,0.0575 v 0 c 0.0988,0 0.5048,-0.2302 1.16323,-0.50645 v 0 c 3.07269,-1.27763 11.53355,-4.35086 18.20567,-2.82 3.6543,0.84025 19.32501,1.03592 35.75291,0.98988 -3.70917,9.32328 -10.35935,33.37963 -10.35935,33.37963 0,0 -2.77639,22.43342 6.44167,21.5126 6.58433,-0.6791 16.6803,-18.32427 21.94777,-28.39571 3.81891,-2.9351 14.75987,-13.45544 22.84762,-12.66124 l 54.49629,-21.93847 c 0,0 12.92724,-7.63128 6.00272,-32.90772 -5.48694,-20.09684 -21.10278,-61.23436 -27.2701,-77.2681 v 0 l -0.18656,-0.41436 c -1.49244,-3.87895 -2.3923,-6.18099 -2.3923,-6.18099 v 0 a 90.194332,94.602486 0 0 1 -4.94922,-22.68664 c -0.0549,-0.61004 -0.0988,-1.23159 -0.14266,-1.84164 a 9.7009113,10.175033 0 0 0 2.1399,-1.30065 c 0,0 -5.0809,-53.89084 0,-59.62293 v 0 0 l 0.0878,-0.1036 v 0 -0.0691 0 l 0.0878,-0.1151 v 0 l 0.19753,-0.26473 v 0 l 0.24142,-0.32229 v 0 c 0.27435,-0.37984 0.60356,-0.85176 0.97668,-1.42727 v 0 c 2.90808,-4.46596 8.32917,-14.66402 6.77088,-26.7037 v 0 q -0.0988,-0.7827 -0.24142,-1.5769 v 0 a 31.35238,32.884694 0 0 0 -3.16048,-9.3463 24.713181,25.921012 0 0 1 -0.40604,-3.69478 c 0,-0.70212 0,-1.47331 0,-2.30205 v -0.13812 q 0,-0.33379 0,-0.66759 v -0.16114 c 0,-0.54098 0.0878,-1.15103 0.16461,-1.65747 v -0.20719 q 0,-0.31077 0.0988,-0.63306 v -0.26474 c 0,-0.20718 0.0878,-0.41436 0.13168,-0.62155 v -0.21869 c 0.0658,-0.27625 0.13169,-0.55249 0.21948,-0.82874 v -0.13812 q 0.0988,-0.34531 0.21948,-0.6791 l 0.0988,-0.26474 0.21948,-0.55249 0.10974,-0.27624 c 0.0878,-0.20719 0.18656,-0.41437 0.28532,-0.62156 l 0.0768,-0.17265 q 0.19753,-0.37984 0.41701,-0.74816 l 0.12071,-0.19568 0.36214,-0.54098 0.17558,-0.24171 0.38409,-0.48343 0.17558,-0.20718 c 0.19753,-0.2187 0.39506,-0.43739 0.61453,-0.64458 6.00272,-5.75511 32.78996,-48.17026 32.78996,-48.17026 0,0 6.46362,-9.54197 6.46362,-15.73447 0.36214,-0.13812 11.78595,-40.07858 10.63369,-52.22186 z m -71.91185,356.52902 c -0.65843,-6.53781 -1.31686,-14.641 -1.92042,-23.02044 l 10.44713,17.08116 c 0,0 -0.98765,5.20262 -8.52671,5.93928 z"
     style="fill:url(#2bd42fb4-2e8b-436b-a616-1dc6bfdc374d);stroke-width:1.12389" />
  <path
     id="path1439"
     fill="#493545"
     d="m 774.48585,509.26708 c 0,0 -6.25512,-10.3592 -15.64876,-0.93233 -9.39364,9.42687 -16.08771,40.7807 -16.08771,40.7807 0,0 -3.57748,25.32249 8.49379,18.75015 0,0 14.26604,-21.09823 18.32638,-22.03056 4.06033,-0.93233 8.49378,-12.66124 8.49378,-12.66124 z"
     style="stroke-width:1.12389" />
  <path
     id="path1441"
     fill="#493545"
     d="m 841.52529,534.57805 c 0,0 -8.49379,-4.22425 -11.17141,-0.93233 -2.67763,3.29192 -11.62134,36.09605 -11.62134,36.09605 0,0 -2.67763,21.57015 6.25511,20.62631 8.93274,-0.94384 24.58149,-34.71482 24.58149,-34.71482 z"
     style="stroke-width:1.12389" />
  <path
     id="path1443"
     opacity="0.05"
     d="m 841.52529,534.57805 c 0,0 -8.49379,-4.22425 -11.17141,-0.93233 -2.67763,3.29192 -11.62134,36.09605 -11.62134,36.09605 0,0 -2.67763,21.57015 6.25511,20.62631 8.93274,-0.94384 24.58149,-34.71482 24.58149,-34.71482 z"
     style="stroke-width:1.12389" />
  <path
     id="path1445"
     fill="#3e3d77"
     d="m 871.02308,470.82295 19.21527,31.41138 c 0,0 -1.33881,7.03275 -12.96016,5.6285 l -39.78032,26.25481 c 0,0 -3.45677,31.96388 7.59393,29.0633 1.78874,-0.47192 14.26605,-14.06549 23.24268,-13.12165 l 52.75145,-21.57015 c 0,0 12.51022,-7.50466 5.80518,-32.34371 -6.70504,-24.83905 -28.87228,-82.43619 -28.87228,-82.43619 l -35.0396,20.55725 z"
     style="stroke-width:1.12389" />
  <path
     id="path1447"
     opacity="0.05"
     d="m 871.02308,470.82295 19.21527,31.41138 c 0,0 -1.33881,7.03275 -12.96016,5.6285 l -39.78032,26.25481 c 0,0 -3.45677,31.96388 7.59393,29.0633 1.78874,-0.47192 14.26605,-14.06549 23.24268,-13.12165 l 52.75145,-21.57015 c 0,0 12.51022,-7.50466 5.80518,-32.34371 -6.70504,-24.83905 -28.87228,-82.43619 -28.87228,-82.43619 l -35.0396,20.55725 z"
     style="stroke-width:1.12389" />
  <path
     id="path1449"
     fill="#3e3d77"
     d="m 883.09435,517.23215 c 2.67763,17.81782 -12.51022,19.22206 -12.51022,19.22206 0,0 -68.38923,1.40425 -76.43309,-0.47191 -8.04385,-1.87617 -18.77631,3.28041 -18.77631,3.28041 -13.86001,-8.90891 -2.67763,-30.93947 -2.67763,-30.93947 0,0 28.60891,-0.93233 35.31395,-2.30204 6.70505,-1.36972 40.66921,-3.31495 40.66921,-3.31495 0,0 -2.67763,-17.3459 -20.56505,-61.40701 -12.14809,-29.92657 -3.29217,-47.5372 3.69819,-55.74399 a 29.43195,30.870406 0 0 1 6.1344,-5.66303 l 54.97915,2.8085 a 71.33023,74.81642 0 0 0 0.30727,8.71323 88.471433,92.795382 0 0 0 7.29763,28.77555 c -3.12756,0 -23.24268,19.69398 -23.24268,19.69398 0,0 3.11658,59.54236 5.80518,77.34867 z"
     style="stroke-width:1.12389" />
  <path
     id="path1451"
     opacity="0.1"
     d="m 776.71354,510.19941 c 0,0 28.60891,-0.93233 35.31396,-2.30205 6.70504,-1.36971 40.6692,-3.28041 40.6692,-3.28041 0,0 -2.67763,-17.3459 -20.56505,-61.40702 -12.14809,-29.92656 -3.29217,-47.5372 3.69819,-55.74398 a 29.43195,30.870406 0 0 1 6.1344,-5.66303 l 50.94076,2.60131 c 0,-0.55249 0,-1.15102 0,-1.66898 l -54.97914,-2.8085 a 29.43195,30.870406 0 0 0 -6.1344,5.66303 c -6.95744,8.2183 -15.84629,25.81742 -3.6982,55.74399 17.93132,44.02658 20.587,61.37248 20.587,61.37248 0,0 -34.01903,1.87617 -40.66921,3.28042 -6.65017,1.40424 -35.31395,2.30204 -35.31395,2.30204 0,0 -11.17141,22.04207 2.67763,30.98551 0,0 0.41701,-0.20719 1.09739,-0.50645 -9.20709,-9.93332 0.24142,-28.56836 0.24142,-28.56836 z"
     style="stroke-width:1.12389" />
  <rect
     id="rect1453"
     fill="#493545"
     height="73.596336"
     width="27.709051"
     y="207.82599"
     x="830.79285"
     style="stroke-width:1.12389" />
  <rect
     id="rect1455"
     opacity="0.1"
     height="73.596336"
     width="27.709051"
     y="207.82599"
     x="830.79285"
     style="stroke-width:1.12389" />
  <path
     id="path1457"
     fill="#493545"
     d="m 874.34817,197.02938 c 0.95473,0.27625 2.03017,0.31078 2.67763,1.692 a 9.8764934,10.359197 0 0 1 0.64745,3.45307 l 1.74485,22.74419 a 12.07127,12.66124 0 0 0 0.81207,4.35086 c 0.73525,1.54237 1.95335,1.72654 2.90808,2.71641 1.92043,2.00278 2.48009,7.02124 1.95335,11.10737 -0.52675,4.08612 -1.85459,7.58523 -2.89711,11.28001 -1.49244,5.2947 -2.48009,11.24548 -4.5761,15.71145 -2.09602,4.46596 -5.90395,6.90613 -8.3621,3.1538 -2.45815,-3.75233 -2.12894,-11.32606 -2.58984,-17.53007 -0.76817,-10.35919 -4.62,-19.29112 -4.88338,-29.71938 -0.21947,-8.43699 1.94238,-16.30998 3.29217,-24.30958 0.9657,-5.49038 1.02057,-12.15479 2.42523,-17.09268 1.1742,5.87022 3.41287,11.45267 6.8477,12.44255 z"
     style="stroke-width:1.12389" />
  <path
     id="path1459"
     opacity="0.1"
     d="m 874.34817,197.02938 c 0.95473,0.27625 2.03017,0.31078 2.67763,1.692 a 9.8764934,10.359197 0 0 1 0.64745,3.45307 l 1.74485,22.74419 a 12.07127,12.66124 0 0 0 0.81207,4.35086 c 0.73525,1.54237 1.95335,1.72654 2.90808,2.71641 1.92043,2.00278 2.48009,7.02124 1.95335,11.10737 -0.52675,4.08612 -1.85459,7.58523 -2.89711,11.28001 -1.49244,5.2947 -2.48009,11.24548 -4.5761,15.71145 -2.09602,4.46596 -5.90395,6.90613 -8.3621,3.1538 -2.45815,-3.75233 -2.12894,-11.32606 -2.58984,-17.53007 -0.76817,-10.35919 -4.62,-19.29112 -4.88338,-29.71938 -0.21947,-8.43699 1.94238,-16.30998 3.29217,-24.30958 0.9657,-5.49038 1.02057,-12.15479 2.42523,-17.09268 1.1742,5.87022 3.41287,11.45267 6.8477,12.44255 z"
     style="stroke-width:1.12389" />
  <path
     id="path1461"
     fill="#c77485"
     d="m 757.04835,164.69718 -10.72148,9.38082 c 0,0 -1.27297,-1.56538 -3.17146,-4.09763 -7.45126,-9.97936 -24.58149,-35.01409 -12.4773,-39.49156 12.10419,-4.47748 21.67342,19.9357 25.05337,30.01865 0.85597,2.55527 1.31687,4.18972 1.31687,4.18972 z"
     style="stroke-width:1.12389" />
  <path
     id="path1463"
     fill="#c77485"
     d="m 950.58372,161.41676 c -4.46637,7.03275 -10.72148,0 -10.72148,0 0,0 -0.80109,-1.25461 -1.9314,-3.28041 -3.67625,-6.52629 -10.88609,-20.99464 -6.11245,-26.72673 5.48694,-6.54931 19.08358,15.80353 19.50058,26.28934 a 5.9478438,6.2385384 0 0 1 -0.73525,3.7178 z"
     style="stroke-width:1.12389" />
  <path
     id="path1465"
     fill="#c77485"
     d="m 840.62543,237.36119 c 0,0 8.94371,30.00714 6.25511,38.90453 -2.6886,8.8974 19.22624,19.2566 19.22624,19.2566 h 25.03143 c 0,0 8.94371,-19.22206 6.70504,-24.85056 -2.23867,-5.6285 -21.45394,-9.84124 -21.45394,-9.84124 0,0 -11.17141,0 -10.72148,-31.41138 z"
     style="stroke-width:1.12389" />
  <path
     id="path1467"
     opacity="0.1"
     d="m 757.04835,164.69718 -10.72148,9.38082 c 0,0 -1.27297,-1.56538 -3.17146,-4.09763 3.89573,-0.72515 9.94234,-6.68744 12.58705,-9.47291 0.84499,2.55527 1.30589,4.18972 1.30589,4.18972 z"
     style="stroke-width:1.12389" />
  <path
     id="path1469"
     opacity="0.1"
     d="m 950.58372,161.41676 c -4.46637,7.03275 -10.72148,0 -10.72148,0 0,0 -0.80109,-1.25461 -1.9314,-3.28041 l 0.14266,-0.47192 c 2.8971,2.17543 11.90666,0.32229 13.24547,0 a 5.9478438,6.2385384 0 0 1 -0.73525,3.75233 z"
     style="stroke-width:1.12389" />
  <path
     id="path1471"
     opacity="0.1"
     d="m 893.21227,391.40244 c -13.82709,6.61838 -58.75416,-5.16809 -61.45374,-5.87021 a 29.43195,30.870406 0 0 1 6.1344,-5.66303 l 54.97915,2.8085 a 71.33023,74.81642 0 0 0 0.34019,8.72474 z"
     style="stroke-width:1.12389" />
  <path
     id="path1473"
     fill="#ffaac4"
     d="m 846.44159,263.14408 c 0,0 -10.72148,3.75233 -25.92031,-10.78508 0,0 -34.01903,-35.16372 -36.21381,-43.60071 l -26.33731,-48.34291 c 0,0 -11.17142,12.66124 -15.64876,10.78507 l 29.49779,53.91386 c 0,0 5.36623,10.3592 10.28253,13.12165 0,0 36.65276,49.22921 37.09172,59.07044 0.43896,9.84124 16.51569,36.19964 16.51569,36.19964 0,0 5.36623,42.65687 -4.02741,50.16153 0,0 52.29054,14.06549 63.46195,4.68466 0,0 -4.91629,-52.947 0,-58.59852 0,0 15.19883,-18.75015 4.9163,-39.37646 0,0 -2.19477,-11.24548 3.57749,-16.87398 5.77226,-5.62849 31.73646,-47.35304 31.73646,-47.35304 0,0 6.25512,-9.38082 6.25512,-15.46973 0,0 11.62134,-41.25262 9.87649,-52.0377 0,0 -10.28253,2.30205 -13.41008,0 0,0 -15.19883,48.34292 -16.98757,50.16153 -1.78874,1.81862 -14.26605,39.84838 -30.83661,44.07263 -16.57056,4.22425 -19.21527,6.08891 -19.21527,6.08891 0,0 32.17542,21.09823 16.53764,30.46754 -15.63778,9.36932 -41.15205,-26.28933 -41.15205,-26.28933 z"
     style="stroke-width:1.12389" />
  <path
     id="path1475"
     opacity="0.1"
     d="m 866.75424,244.57809 a 85.40972,89.584031 0 0 1 -0.64746,-13.31732 l -25.03142,7.96507 a 33.75566,35.405432 0 0 1 1.56926,5.38678 c 2.86419,1.32368 6.72699,4.45446 10.05208,4.45446 a 22.792752,23.906724 0 0 0 14.05754,-4.48899 z"
     style="stroke-width:1.12389" />
  <ellipse
     id="circle1477"
     fill="#c77485"
     cy="223.29572"
     cx="852.24677"
     rx="23.242682"
     ry="24.378643"
     style="stroke-width:1.12389" />
  <path
     id="path1479"
     opacity="0.1"
     d="m 824.59259,185.73786 c -5.11383,0.41436 -10.82025,4.12065 -10.53493,9.49593 0.15364,2.95812 2.08504,5.45584 2.93003,8.28735 2.03017,6.84858 -2.49107,13.72018 -6.46362,19.56738 -3.97254,5.84719 -7.68171,13.59356 -4.27981,19.78606 a 46.518284,48.791816 0 0 0 3.13853,4.29331 c 4.203,5.95079 4.14813,13.98492 6.01369,21.13276 a 35.346872,37.074414 0 0 0 41.52516,26.47351 22.101397,23.18158 0 0 1 -4.66389,-15.67692 c 0.25239,-4.09764 1.51439,-8.37944 0,-12.1663 -1.95336,-4.86882 -7.68172,-6.79103 -10.6337,-11.04981 -2.95197,-4.25878 -2.75444,-10.16353 -1.32784,-15.23953 1.42661,-5.07601 3.89573,-9.78369 5.08091,-14.96329 a 42.97372,45.074016 0 0 1 1.09739,-4.47747 c 2.06309,-6.14646 8.23041,-9.71463 14.26605,-11.24548 6.03563,-1.53086 12.37853,-1.62294 18.27151,-3.63723 5.89297,-2.01429 11.62134,-6.73348 12.30172,-13.21373 -4.96019,2.08335 -9.55825,-3.34948 -14.34286,-5.8472 -7.87925,-4.09763 -16.86686,-0.24171 -24.98753,0.70213 -9.25098,1.08196 -18.03009,-2.93511 -27.39081,-2.22147 z"
     style="stroke-width:1.12389" />
  <path
     id="path1481"
     fill="#493545"
     d="m 824.14266,184.80553 c -5.11383,0.41437 -10.82025,4.12066 -10.53493,9.49593 0.15364,2.95812 2.08504,5.45584 2.93003,8.28736 2.03017,6.84858 -2.49107,13.72018 -6.46362,19.56737 -3.97254,5.84719 -7.68171,13.59357 -4.27981,19.78606 a 46.518284,48.791816 0 0 0 3.13853,4.29331 c 4.203,5.95079 4.14813,13.98492 6.01369,21.13277 a 35.346872,37.074414 0 0 0 41.52517,26.4735 22.101397,23.18158 0 0 1 -4.6639,-15.67692 c 0.2524,-4.09764 1.51439,-8.37944 0,-12.1663 -1.95335,-4.86882 -7.68172,-6.79103 -10.6337,-11.04981 -2.95197,-4.25878 -2.75444,-10.16352 -1.32783,-15.23953 1.4266,-5.07601 3.89572,-9.78368 5.0809,-14.96328 a 42.97372,45.074016 0 0 1 1.09739,-4.47748 c 2.06309,-6.14646 8.23041,-9.71462 14.26605,-11.24548 6.03563,-1.53086 12.37853,-1.62294 18.27151,-3.63723 5.89297,-2.01429 11.62134,-6.73348 12.30172,-13.21373 -4.96019,2.08335 -9.55825,-3.34948 -14.34286,-5.84719 -7.87925,-4.09764 -16.86686,-0.24172 -24.98753,0.70212 -9.22904,1.07045 -17.97522,-2.99266 -27.39081,-2.22147 z"
     style="stroke-width:1.12389" />
  <path
     id="path1483"
     opacity="0.1"
     d="m 875.26997,277.45128 c 0,0 9.30586,8.71323 11.13849,12.55765"
     style="stroke-width:1.12389" />
  <path
     id="path1485"
     opacity="0.1"
     d="m 895.40705,329.48898 c 0,0 -11.62134,0 -16.98757,1.40424 -5.36623,1.40425 -18.32638,0 -18.32638,0"
     style="stroke-width:1.12389" />
  <g
     id="g1495"
     opacity="0.1"
     transform="matrix(1.0973882,0,0,1.1510219,40.651412,39.120697)">
    <path
       id="path1487"
       transform="translate(-125.1,-119.24)"
       d="m 896.85,336.68 a 10.18,10.18 0 0 1 -2.93,1.12 11.2,11.2 0 0 0 7.82,-1.12 C 916,328.53 886.67,310.21 886.67,310.21 h -4.89 c 0,0 29.33,18.33 15.07,26.47 z" />
    <path
       id="path1489"
       transform="translate(-125.1,-119.24)"
       d="m 955.19,223.79 c 0,-0.26 -0.06,-0.51 -0.1,-0.74 a 47.84,47.84 0 0 1 -5.07,0.77 22.46,22.46 0 0 0 5.17,-0.03 z" />
    <path
       id="path1491"
       transform="translate(-125.1,-119.24)"
       d="m 850.83,418.55 c 8.55,-6.52 3.67,-43.58 3.67,-43.58 0,0 -14.66,-22.81 -15.07,-31.36 -0.41,-8.55 -33.8,-51.32 -33.8,-51.32 -4.48,-2.44 -9.37,-11.4 -9.37,-11.4 0,0 -27.7,-45.21 -31.77,-46.84 l 26.88,46.84 c 0,0 4.89,9 9.37,11.4 0,0 33.4,42.77 33.8,51.32 0.4,8.55 15.06,31.39 15.06,31.39 0,0 4.89,37.06 -3.67,43.58 0,0 29.29,7.51 46.85,6.83 -17.6,-0.62 -41.95,-6.86 -41.95,-6.86 z" />
    <path
       id="path1493"
       transform="translate(-125.1,-119.24)"
       d="m 859.62,314.19 -0.24,-0.31 a 6.44,6.44 0 0 1 -0.85,0.19 c 0.38,0.05 0.74,0.09 1.09,0.12 z" />
  </g>
  <g
     id="g1501"
     opacity="0.1"
     transform="matrix(1.0973882,0,0,1.1510219,40.651412,39.120697)">
    <path
       id="path1497"
       transform="translate(-125.1,-119.24)"
       d="m 955.09,223 -0.25,0.05 c -0.43,12.51 -9.11,41.9 -9.11,41.9 0,5.29 -5.7,13.44 -5.7,13.44 0,0 -23.62,36.25 -28.92,41.14 -5.3,4.89 -3.26,14.66 -3.26,14.66 l 0.05,0.1 c -0.16,-3.29 0.24,-8.39 3.61,-11.51 5.29,-4.89 28.92,-41.14 28.92,-41.14 0,0 5.7,-8.15 5.7,-13.44 0,0.06 10.59,-35.78 8.96,-45.2 z" />
    <path
       id="path1499"
       transform="translate(-125.1,-119.24)"
       d="m 903.37,368.45 c 0.61,3.46 0.2,-0.2 0.41,3.26 0,0 10,-11.73 7.27,-26.23 0.82,12.96 -7.68,22.97 -7.68,22.97 z" />
  </g>
  <path
     id="path1565"
     opacity="0.5"
     fill="#dee3f3"
     d="m 775.79174,56.742842 h -6.8916 a 4.8285079,5.0644962 0 1 0 0,-10.117482 h -55.879 a 4.8285079,5.0644962 0 0 0 0,10.117482 h 6.89159 a 4.8285079,5.0644962 0 0 0 0,10.117482 h -9.64604 a 4.8285079,5.0644962 0 1 0 0,10.117483 h 55.83511 a 4.8285079,5.0644962 0 1 0 0,-10.117483 h 9.68994 a 4.8285079,5.0644962 0 0 0 0,-10.117482 z"
     style="stroke-width:1.12389" />
  <path
     id="path1567"
     opacity="0.5"
     fill="#dee3f3"
     d="m 452.9182,86.255037 h -5.24552 a 3.6762503,3.8559232 0 1 0 0,-7.70033 h -42.49087 a 3.6762503,3.8559232 0 0 0 0,7.70033 h 5.24552 a 3.6762503,3.8559232 0 1 0 0,7.70033 h -7.34153 a 3.6762503,3.8559232 0 1 0 0,7.700343 h 42.49087 a 3.6762503,3.8559232 0 1 0 0,-7.700343 h 7.34153 a 3.6762503,3.8559232 0 0 0 0,-7.70033 z"
     style="stroke-width:1.12389" />
  <path
     id="path1645"
     opacity="0.5"
     fill="#dee3f3"
     d="m 235.81092,125.03296 h -6.89159 a 4.8285079,5.0644962 0 1 0 0,-10.11748 h -55.83511 a 4.8285079,5.0644962 0 0 0 0,10.11748 h 6.8916 a 4.8285079,5.0644962 0 0 0 0,10.11749 h -9.64605 a 4.8285079,5.0644962 0 0 0 0,10.11748 h 55.83511 a 4.8285079,5.0644962 0 1 0 0,-10.11748 h 9.64604 a 4.8285079,5.0644962 0 0 0 0,-10.11749 z"
     style="stroke-width:1.12389" />
</svg>
