<?xml version="1.0" encoding="UTF-8" standalone="no"?>
<svg
   xmlns:dc="http://purl.org/dc/elements/1.1/"
   xmlns:cc="http://creativecommons.org/ns#"
   xmlns:rdf="http://www.w3.org/1999/02/22-rdf-syntax-ns#"
   xmlns:svg="http://www.w3.org/2000/svg"
   xmlns="http://www.w3.org/2000/svg"
   xmlns:sodipodi="http://sodipodi.sourceforge.net/DTD/sodipodi-0.dtd"
   xmlns:inkscape="http://www.inkscape.org/namespaces/inkscape"
   inkscape:version="1.0 (6e3e5246a0, 2020-05-07)"
   sodipodi:docname="undraw_nakamoto_2iv6.svg"
   version="1.1"
   viewBox="0 0 980.49384 751.89531"
   height="751.89531"
   width="980.49384"
   data-name="Layer 1"
   id="fb0462f1-4822-46c6-85a1-002b71cfcb82">
  <metadata
     id="metadata111">
    <rdf:RDF>
      <cc:Work
         rdf:about="">
        <dc:format>image/svg+xml</dc:format>
        <dc:type
           rdf:resource="http://purl.org/dc/dcmitype/StillImage" />
      </cc:Work>
    </rdf:RDF>
  </metadata>
  <defs
     id="defs109" />
  <sodipodi:namedview
     inkscape:current-layer="fb0462f1-4822-46c6-85a1-002b71cfcb82"
     inkscape:window-maximized="0"
     inkscape:window-y="36"
     inkscape:window-x="0"
     inkscape:cy="375.94766"
     inkscape:cx="490.24692"
     inkscape:zoom="0.95093024"
     showgrid="false"
     id="namedview107"
     inkscape:window-height="480"
     inkscape:window-width="755"
     inkscape:pageshadow="2"
     inkscape:pageopacity="0"
     guidetolerance="10"
     gridtolerance="10"
     objecttolerance="10"
     borderopacity="1"
     bordercolor="#666666"
     pagecolor="#ffffff" />
  <title
     id="title2">nakamoto</title>
  <rect
     id="rect4"
     fill="#3f3d56"
     height="107"
     width="2"
     y="116.99986"
     x="313.49413" />
  <rect
     id="rect6"
     fill="#3f3d56"
     height="94.14941"
     width="2"
     y="255.85045"
     x="313.49413" />
  <rect
     id="rect8"
     fill="#3f3d56"
     height="2"
     width="155"
     y="364.99986"
     x="310.49413" />
  <rect
     id="rect10"
     fill="#3f3d56"
     height="85"
     width="2"
     y="391.99986"
     x="244.49413" />
  <rect
     id="rect12"
     fill="#3f3d56"
     height="2"
     width="235"
     y="491.99986"
     x="262.49413" />
  <path
     id="path14"
     stroke-width="2"
     stroke-miterlimit="10"
     stroke="#3f3d56"
     fill="none"
     transform="translate(-109.75308 -74.05234)"
     d="M623.24692,551.05234" />
  <path
     id="path16"
     stroke-width="2"
     stroke-miterlimit="10"
     stroke="#3f3d56"
     fill="none"
     transform="translate(-109.75308 -74.05234)"
     d="M623.24692,469.05234" />
  <rect
     id="rect18"
     fill="#3f3d56"
     height="101"
     width="2"
     y="48.99986"
     x="691.49413" />
  <rect
     id="rect20"
     fill="#3f3d56"
     height="2"
     width="147.03418"
     y="165.99986"
     x="529.45995" />
  <rect
     id="rect22"
     fill="#3f3d56"
     height="135"
     width="2"
     y="181.9999"
     x="512.49399" />
  <path
     id="path24"
     fill="#3f3d56"
     transform="translate(-109.75308 -74.05234)"
     d="M424.24721,331.0522a17,17,0,1,1,17-17A17.019,17.019,0,0,1,424.24721,331.0522Zm0-32a15,15,0,1,0,15,15A15.01672,15.01672,0,0,0,424.24721,299.0522Z" />
  <path
     id="path26"
     fill="#3f3d56"
     transform="translate(-109.75308 -74.05234)"
     d="M356.24721,584.0522a17,17,0,1,1,17-17A17.019,17.019,0,0,1,356.24721,584.0522Zm0-32a15,15,0,1,0,15,15A15.01672,15.01672,0,0,0,356.24721,552.0522Z" />
  <circle
     id="circle28"
     fill="#5dc8cd"
     r="16"
     cy="366"
     cx="315.49384" />
  <rect
     id="rect30"
     fill="#3f3d56"
     height="2"
     width="166"
     y="238.99986"
     x="728.49413" />
  <rect
     id="rect32"
     fill="#3f3d56"
     height="94.14941"
     width="2"
     y="255.85045"
     x="711.49413" />
  <rect
     id="rect34"
     fill="#3f3d56"
     height="2"
     width="133"
     y="364.99986"
     x="562.49413" />
  <rect
     id="rect36"
     fill="#3f3d56"
     height="2"
     width="138"
     y="373.99986"
     x="796.49413" />
  <rect
     id="rect38"
     fill="#3f3d56"
     height="85"
     width="2"
     y="391.99986"
     x="780.49413" />
  <rect
     id="rect40"
     fill="#3f3d56"
     height="2"
     width="235"
     y="491.99986"
     x="529.49413" />
  <rect
     id="rect42"
     fill="#3f3d56"
     height="62"
     width="2"
     y="414.99986"
     x="512.49413" />
  <circle
     id="circle44"
     fill="#5dc8cd"
     r="16"
     cy="240"
     cx="712.49384" />
  <path
     id="path46"
     fill="#3f3d56"
     transform="translate(-109.75308 -74.05234)"
     d="M802.24721,257.0522a17,17,0,1,1,17-17A17.019,17.019,0,0,1,802.24721,257.0522Zm0-32a15,15,0,1,0,15,15A15.01672,15.01672,0,0,0,802.24721,225.0522Z" />
  <path
     id="path48"
     fill="#3f3d56"
     transform="translate(-109.75308 -74.05234)"
     d="M623.24721,257.0522a17,17,0,1,1,17-17A17.019,17.019,0,0,1,623.24721,257.0522Zm0-32a15,15,0,1,0,15,15A15.01672,15.01672,0,0,0,623.24721,225.0522Z" />
  <path
     id="path50"
     fill="#3f3d56"
     transform="translate(-109.75308 -74.05234)"
     d="M890.24721,467.0522a17,17,0,1,1,17-17A17.019,17.019,0,0,1,890.24721,467.0522Zm0-32a15,15,0,1,0,15,15A15.01672,15.01672,0,0,0,890.24721,435.0522Z" />
  <circle
     id="circle52"
     fill="#5dc8cd"
     r="16"
     cy="493"
     cx="780.49384" />
  <path
     id="path54"
     fill="#3f3d56"
     transform="translate(-109.75308 -74.05234)"
     d="M623.24721,584.0522a17,17,0,1,1,17-17A17.019,17.019,0,0,1,623.24721,584.0522Zm0-32a15,15,0,1,0,15,15A15.01672,15.01672,0,0,0,623.24721,552.0522Z" />
  <path
     id="path56"
     fill="#3f3d56"
     transform="translate(-109.75308 -74.05234)"
     d="M821.24721,457.0522a17,17,0,1,1,17-17A17.019,17.019,0,0,1,821.24721,457.0522Zm0-32a15,15,0,1,0,15,15A15.01672,15.01672,0,0,0,821.24721,425.0522Z" />
  <path
     id="path58"
     fill="#3f3d56"
     transform="translate(-109.75308 -74.05234)"
     d="M356.24692,416.05234a20,20,0,1,0,20,20A20.0588,20.0588,0,0,0,356.24692,416.05234Zm0,6a6,6,0,1,1-6,6,6.02013,6.02013,0,0,1,6-6Zm0,28.88462a14.56987,14.56987,0,0,1-12-6.40385c.09616-4,8-6.20192,12-6.20192s11.90385,2.20192,12,6.20192a14.59411,14.59411,0,0,1-12,6.40385Z" />
  <path
     id="path60"
     fill="#3f3d56"
     transform="translate(-109.75308 -74.05234)"
     d="M425.24692,143.05234a20,20,0,1,0,20,20A20.0588,20.0588,0,0,0,425.24692,143.05234Zm0,6a6,6,0,1,1-6,6,6.02013,6.02013,0,0,1,6-6Zm0,28.88462a14.56987,14.56987,0,0,1-12-6.40385c.09616-4,8-6.20192,12-6.20192s11.90385,2.20192,12,6.20192a14.59411,14.59411,0,0,1-12,6.40385Z" />
  <path
     id="path62"
     fill="#3f3d56"
     transform="translate(-109.75308 -74.05234)"
     d="M802.24692,74.05234a20,20,0,1,0,20,20A20.0588,20.0588,0,0,0,802.24692,74.05234Zm0,6a6,6,0,1,1-6,6,6.02013,6.02013,0,0,1,6-6Zm0,28.88462a14.56987,14.56987,0,0,1-12-6.40385c.09616-4,8-6.20192,12-6.20192s11.90385,2.20192,12,6.20192a14.59411,14.59411,0,0,1-12,6.40385Z" />
  <path
     id="path64"
     fill="#3f3d56"
     transform="translate(-109.75308 -74.05234)"
     d="M1032.24692,293.05234a20,20,0,1,0,20,20A20.0588,20.0588,0,0,0,1032.24692,293.05234Zm0,6a6,6,0,1,1-6,6,6.02013,6.02013,0,0,1,6-6Zm0,28.88462a14.56987,14.56987,0,0,1-12-6.40385c.09616-4,8-6.20192,12-6.20192s11.90385,2.20192,12,6.20192a14.59411,14.59411,0,0,1-12,6.40385Z" />
  <path
     id="path66"
     fill="#3f3d56"
     transform="translate(-109.75308 -74.05234)"
     d="M1070.24692,428.05234a20,20,0,1,0,20,20A20.0588,20.0588,0,0,0,1070.24692,428.05234Zm0,6a6,6,0,1,1-6,6,6.02013,6.02013,0,0,1,6-6Zm0,28.88462a14.56987,14.56987,0,0,1-12-6.40385c.09616-4,8-6.20192,12-6.20192s11.90385,2.20192,12,6.20192a14.59411,14.59411,0,0,1-12,6.40385Z" />
  <path
     transform="translate(-109.75308 -74.05234)"
     id="path72"
     fill="#5dc8cd"
     d="M633.78686,403.26389a37.49274,37.49274,0,1,0,27.308,45.451A37.487,37.487,0,0,0,633.78686,403.26389Zm7.462,31.037c-.541,3.653-2.565,5.422-5.254,6.041,3.691,1.921,5.57,4.869,3.78,9.979-2.22,6.345-7.497,6.881-14.512,5.553l-1.703,6.824-4.115-1.025,1.68-6.733q-1.644-.40726-3.279-.85l-1.686,6.764-4.11-1.026,1.703-6.836c-.961-.246-1.937-.508-2.933-.757l-5.354-1.336,2.042-4.709s3.032.807,2.991.747a1.49616,1.49616,0,0,0,1.885-.978l2.691-10.787c.151.037.298.073.434.108a3.49556,3.49556,0,0,0-.427-.137l1.919-7.701a2.18915,2.18915,0,0,0-1.917-2.392c.065-.044-2.988-.743-2.988-.743l1.095-4.395,5.675,1.417-.005.021c.853.212,1.732.413,2.628.617l1.686-6.757,4.112,1.025-1.652,6.625c1.104.252,2.215.506,3.297.775l1.641-6.581,4.114,1.025-1.685,6.76C638.19585,426.6279,641.99486,429.3099,641.24886,434.3009Z" />
  <path
     id="path74"
     fill="#e6e6e6"
     transform="translate(-109.75308 -74.05234)"
     d="M261.75282,807.34635c-2.84542,25.87621-152.22585,23.704-151.99949-.00154C112.59871,781.47014,261.97914,783.64237,261.75282,807.34635Z" />
  <polygon
     id="polygon76"
     fill="#ffb8b8"
     points="103.754 668.156 109.81 681.276 120.911 680.267 127.976 657.054 116.874 650.999 103.754 668.156" />
  <polygon
     id="polygon78"
     fill="#ffb8b8"
     points="65.642 698.373 65.403 707.516 82.56 708.525 82.56 697.424 65.642 698.373" />
  <polygon
     id="polygon80"
     fill="#2f2e41"
     points="71.458 531.908 75.495 612.647 65.403 700.451 95.68 704.488 114.856 593.472 120.911 517.778 71.458 531.908" />
  <path
     id="path82"
     fill="#2f2e41"
     transform="translate(-109.75308 -74.05234)"
     d="M133.777,576.69193s-12.11093,79.7303,13.12018,105.97066,59.54542,72.66559,59.54542,72.66559l24.22186-30.27733L169.10055,659.45l12.11093-44.40676,49.453-23.21262-8.07395-55.50844-72.6656-1.00924Z" />
  <circle
     id="circle84"
     fill="#ffb8b8"
     r="22.20338"
     cy="295.74449"
     cx="83.56933" />
  <path
     id="path86"
     fill="#ffb8b8"
     transform="translate(-109.75308 -74.05234)"
     d="M174.14677,374.84306s-1.00925,31.28657-6.05547,35.32355,18.1664,21.19413,18.1664,21.19413l15.13867-24.22186V384.9355Z" />
  <polygon
     id="polygon88"
     fill="#d0cde1"
     points="74.486 343.179 62.233 324.677 55.31 334.096 45.218 362.355 53.292 472.362 100.726 473.371 106.782 347.216 91.643 329.05 74.486 343.179" />
  <path
     id="path90"
     fill="#2f2e41"
     transform="translate(-109.75308 -74.05234)"
     d="M235.71067,424.296l8.074-1.00924s2.01849,1.00924,3.02773,8.074,13.12018,69.63786,13.12018,69.63786l-16.14791,76.70257-18.1664-24.22186,11.10169-42.38826-11.10169-42.38827Z" />
  <polygon
     id="polygon92"
     fill="#2f2e41"
     points="23.015 349.234 16.959 349.234 1.821 430.983 15.95 494.566 30.079 471.353 26.042 446.122 28.061 423.919 35.126 410.798 23.015 349.234" />
  <path
     id="path94"
     fill="#2f2e41"
     transform="translate(-109.75308 -74.05234)"
     d="M222.5905,751.2912s-6.05547-2.01849-6.05547,2.01849,4.037,16.14791,4.037,16.14791-6.05547,37.342,3.02773,35.32355,16.14791-19.17564,17.15716-24.22186,6.05546-31.28658,6.05546-31.28658,8.074-19.17564,3.02773-20.18488-19.17564-5.04622-19.17564-5.04622S238.73841,749.27271,222.5905,751.2912Z" />
  <path
     id="path96"
     fill="#2f2e41"
     transform="translate(-109.75308 -74.05234)"
     d="M193.32241,782.57778s-16.14791-10.09245-19.17564-2.01849a84.80084,84.80084,0,0,0-4.037,18.1664s-4.037,13.12017,12.11093,11.10169,14.12942-2.01849,15.13867-8.074S193.32241,782.57778,193.32241,782.57778Z" />
  <path
     id="path98"
     fill="#2f2e41"
     transform="translate(-109.75308 -74.05234)"
     d="M180.20223,369.79684l4.037-1.00925s3.02773-17.15715,10.09244-15.13866,25.23111,4.037,25.23111-4.037-17.15715-15.13867-27.24959-14.12942-27.2496,4.037-26.24036,19.17564,7.52165,29.86536,7.52165,29.86536l.526-8.97562Z" />
  <polygon
     id="polygon100"
     fill="#d0cde1"
     points="91.643 355.29 74.486 343.179 91.643 329.05 97.6 336.197 91.643 355.29" />
  <polygon
     id="polygon102"
     fill="#d0cde1"
     points="59.347 354.281 74.486 343.179 62.375 325.013 55.31 334.096 59.347 354.281" />
  <path
     id="path104"
     fill="#2f2e41"
     transform="translate(-109.75308 -74.05234)"
     d="M242.77538,423.28679l-32.29582-13.12018-7.56933-5.55084-22.708,100.41981-15.13866-45.416,4.5416-58.03155-41.88364,21.69876L141.851,491.9154l2.01849,26.24036L137.814,539.34989s-21.19413,15.13866-14.12942,31.28657,15.13866,17.15716,15.13866,17.15716,34.31431-32.29582,36.3328-40.36978,5.04622-22.20337,5.04622-22.20337,17.15716,64.59164,37.342,63.58239,20.18489-22.20337,20.18489-22.20337l-5.04622-22.20338L224.609,521.18349l4.037-38.35129Z" />
  <ellipse
     style="stroke-width:1.83927"
     ry="30.026678"
     rx="28.841991"
     cx="514.25122"
     cy="367.86475"
     fill="#5dc8cd"
     id="circle28-6" />
</svg>
