<?xml version="1.0" encoding="UTF-8" standalone="no"?>
<svg
   xmlns:dc="http://purl.org/dc/elements/1.1/"
   xmlns:cc="http://creativecommons.org/ns#"
   xmlns:rdf="http://www.w3.org/1999/02/22-rdf-syntax-ns#"
   xmlns:svg="http://www.w3.org/2000/svg"
   xmlns="http://www.w3.org/2000/svg"
   xmlns:sodipodi="http://sodipodi.sourceforge.net/DTD/sodipodi-0.dtd"
   xmlns:inkscape="http://www.inkscape.org/namespaces/inkscape"
   id="a2593f0c-3437-45bc-bcbc-f89f51f04e57"
   data-name="Layer 1"
   width="1100"
   height="700"
   viewBox="0 0 1100 700.00003"
   version="1.1"
   sodipodi:docname="about_support.svg"
   inkscape:version="1.0 (9f2f71dc58, 2020-08-02)">
  <metadata
     id="metadata1414">
    <rdf:RDF>
      <cc:Work
         rdf:about="">
        <dc:format>image/svg+xml</dc:format>
        <dc:type
           rdf:resource="http://purl.org/dc/dcmitype/StillImage" />
        <dc:title>welcoming</dc:title>
      </cc:Work>
    </rdf:RDF>
  </metadata>
  <defs
     id="defs1412" />
  <sodipodi:namedview
     pagecolor="#ffffff"
     bordercolor="#666666"
     borderopacity="1"
     objecttolerance="10"
     gridtolerance="10"
     guidetolerance="10"
     inkscape:pageopacity="0"
     inkscape:pageshadow="2"
     inkscape:window-width="1920"
     inkscape:window-height="1005"
     id="namedview1410"
     showgrid="false"
     inkscape:zoom="1.0615376"
     inkscape:cx="550"
     inkscape:cy="-454.52935"
     inkscape:window-x="0"
     inkscape:window-y="40"
     inkscape:window-maximized="1"
     inkscape:current-layer="a2593f0c-3437-45bc-bcbc-f89f51f04e57"
     inkscape:document-rotation="0" />
  <title
     id="title1297">welcoming</title>
  <path
     d="m 580.36963,786.46579 -1.38623,-1.44141 c 0.27441,-0.26367 27.55469,-26.97656 37.95117,-76.89649 9.60156,-46.09668 6.3584,-121.99121 -63.61523,-221.76855 -29.23682,-41.68945 -49.17481,-81.07813 -59.26026,-117.0708 -8.24072,-29.40967 -9.98535,-56.74951 -5.18554,-81.25977 9.48876,-48.45947 41.74072,-69.73388 42.06542,-69.94287 l 1.0835,1.68067 c -0.31787,0.20507 -31.896,21.08007 -41.19873,68.70849 -10.67285,54.644 10.90479,120.83594 64.1333,196.73584 31.082,44.32129 51.77246,87.72071 61.49707,128.99414 7.79,33.06348 8.60156,64.84375 2.41211,94.459 -10.5498,50.47655 -38.21821,77.53417 -38.49658,77.80175 z"
     transform="translate(-64,-113.4487)"
     fill="#f2f2f2"
     id="path1299" />
  <circle
     cx="449.22827"
     cy="138.83504"
     r="77.414238"
     fill="#f2f2f2"
     id="circle1301" />
  <path
     d="M 531.48047,324.40426 A 105.47778,105.47778 0 1 1 636.958,218.92623 105.59766,105.59766 0 0 1 531.48047,324.40426 Z m 0,-208.95556 A 103.47778,103.47778 0 1 0 634.958,218.92623 103.595,103.595 0 0 0 531.48047,115.4487 Z"
     transform="translate(-64,-113.4487)"
     fill="#f2f2f2"
     id="path1303" />
  <circle
     cx="526.64252"
     cy="314.4332"
     r="64.197166"
     fill="#f2f2f2"
     id="circle1305" />
  <circle
     cx="493.91452"
     cy="537.23517"
     r="64.197166"
     fill="#f2f2f2"
     id="circle1307" />
  <rect
     x="528.42114"
     y="113.99993"
     width="235"
     height="153"
     fill="#5dc8cd"
     id="rect1309" />
  <path
     d="M 1140.9802,786.44862 H 923.33913 c 0,0 -4.41165,-64.7041 21.69058,-65.43937 26.10223,-0.73527 23.16112,28.67568 55.88079,-11.76438 32.7197,-40.44006 72.4245,-38.23424 77.5714,-14.33784 5.1469,23.8964 -9.9262,43.01352 17.6466,37.13133 27.5728,-5.88219 67.2776,9.55856 44.8517,54.41026 z"
     transform="translate(-64,-113.4487)"
     fill="#f2f2f2"
     id="path1311" />
  <path
     d="m 1028.4858,786.46334 -0.7345,-0.0294 c 1.713,-42.60065 10.635,-69.972 17.818,-85.43179 7.799,-16.78654 15.3143,-23.58208 15.3894,-23.64886 l 0.4886,0.54948 c -0.074,0.0661 -7.5017,6.79411 -15.2383,23.467 -7.1432,15.39445 -16.0164,42.65344 -17.7232,85.0936 z"
     transform="translate(-64,-113.4487)"
     fill="#ffffff"
     id="path1313" />
  <path
     d="m 1107.2556,786.5513 -0.7058,-0.20535 a 114.05749,114.05749 0 0 1 28.7159,-47.77521 l 0.494,0.54427 a 113.28291,113.28291 0 0 0 -28.5041,47.43629 z"
     transform="translate(-64,-113.4487)"
     fill="#ffffff"
     id="path1315" />
  <path
     d="m 957.61858,786.49925 -0.72845,-0.10125 a 80.08009,80.08009 0 0 0 -7.20285,-46.80693 64.44942,64.44942 0 0 0 -11.36767,-16.58782 l 0.50874,-0.53063 a 65.2568,65.2568 0 0 1 11.51809,16.79282 80.814,80.814 0 0 1 7.27214,47.23381 z"
     transform="translate(-64,-113.4487)"
     fill="#ffffff"
     id="path1317" />
  <path
     d="m 149.53786,786.23866 -0.50195,-1.03125 c -0.15284,-0.31347 -15.188,-31.74316 -6.80518,-62.73144 8.3833,-30.98926 37.21289,-50.55274 37.50293,-50.7461 l 0.95264,-0.63769 0.502,1.03125 c 0.15283,0.31348 15.188,31.74316 6.80469,62.73144 -8.38281,30.98926 -37.2124,50.55274 -37.50244,50.7461 z m 30.3418,-112.16308 c -5.04737,3.67187 -28.398,21.8623 -35.71827,48.92187 -7.32568,27.08106 3.67432,54.54492 6.18311,60.25782 5.04736,-3.67188 28.39795,-21.86231 35.71777,-48.92188 v 0 c 7.32618,-27.08105 -3.67382,-54.54492 -6.18261,-60.25781 z"
     transform="translate(-64,-113.4487)"
     fill="#3f3d56"
     id="path1319" />
  <path
     d="m 110.77331,734.59419 c 8.38218,30.98558 37.093,50.17572 37.093,50.17572 0,0 15.12066,-31.04739 6.73848,-62.033 -8.38218,-30.98561 -37.093,-50.17573 -37.093,-50.17573 0,0 -15.12066,31.04743 -6.73848,62.03301 z"
     transform="translate(-64,-113.4487)"
     fill="#5dc8cd"
     id="path1321" />
  <path
     d="m 149.9905,785.80507 -1.14453,-0.0625 C 148.49733,785.72402 113.72341,783.58046 90.7195,761.18788 67.71657,738.7953 64.63893,704.0912 64.61061,703.74257 l -0.09326,-1.1416 1.14453,0.0625 c 0.34864,0.0186 35.12256,2.16211 58.126,24.55469 23.00342,22.39355 26.08105,57.09668 26.10937,57.44531 z M 66.7322,704.75624 c 0.75439,6.19531 5.29589,35.44531 25.38281,54.998 20.08691,19.55469 49.44678,23.30762 55.66064,23.89551 -0.75439,-6.19629 -5.2959,-35.44434 -25.3833,-54.99805 v 0 C 102.29079,709.08241 72.94313,705.3412 66.7322,704.75624 Z"
     transform="translate(-64,-113.4487)"
     fill="#3f3d56"
     id="path1323" />
  <path
     d="m 174.71075,727.93506 c -23.00082,22.39037 -25.81021,56.80959 -25.81021,56.80959 0,0 34.48233,-1.88275 57.48315,-24.27313 23.00082,-22.39038 25.81021,-56.80959 25.81021,-56.80959 0,0 -34.48232,1.88275 -57.48315,24.27313 z"
     transform="translate(-64,-113.4487)"
     fill="#3f3d56"
     id="path1325" />
  <path
     d="m 361.71075,533.93506 c -23.00082,22.39037 -25.81021,56.80959 -25.81021,56.80959 0,0 34.48233,-1.88275 57.48315,-24.27313 23.00082,-22.39038 25.81021,-56.80959 25.81021,-56.80959 0,0 -34.48232,1.88275 -57.48315,24.27313 z"
     transform="translate(-64,-113.4487)"
     fill="#3f3d56"
     id="path1327" />
  <circle
     cx="84.421158"
     cy="538.99994"
     r="15"
     fill="#5dc8cd"
     id="circle1329" />
  <path
     d="m 330.40261,785.46523 -1.38623,-1.44141 c 0.21777,-0.209 21.85546,-21.4043 30.09667,-61.00781 7.61133,-36.57715 5.02637,-96.80176 -50.51074,-175.99317 -42.59424,-60.73632 -59.831,-113.7998 -51.231,-157.71728 7.55468,-38.582 33.24951,-55.53076 33.5083,-55.69727 l 1.08349,1.68067 c -0.25146,0.16259 -25.27246,16.71191 -32.6416,54.46338 -8.46191,43.35156 8.66943,95.8789 50.91846,156.12207 24.70752,35.23144 41.15576,69.73339 48.88721,102.54687 6.19531,26.2959 6.84033,51.57324 1.917,75.12988 -8.39401,40.16211 -30.41988,61.70118 -30.64156,61.91407 z"
     transform="translate(-64,-113.4487)"
     fill="#3f3d56"
     id="path1331" />
  <ellipse
     cx="256.42117"
     cy="239.11957"
     rx="180"
     ry="30.88036"
     fill="#5dc8cd"
     id="ellipse1333" />
  <path
     d="m 286.92116,374.44862 c -124.76611,0 -222.5,-17.13085 -222.5,-39 0,-21.86915 97.73389,-39 222.5,-39 124.76611,0 222.5,17.13086 222.5,39 0,21.86914 -97.73389,39 -222.5,39 z m 0,-76 c -119.52344,0 -220.5,16.94385 -220.5,37 0,20.05615 100.97656,37 220.5,37 119.52344,0 220.5,-16.94384 220.5,-37 0,-20.05616 -100.97656,-37 -220.5,-37 z"
     transform="translate(-64,-113.4487)"
     fill="#3f3d56"
     id="path1335" />
  <path
     d="m 337.48178,183.89284 c 0,0 -26.67363,-7.5137 -34.563,28.92774 -7.88937,36.44144 -1.87843,54.85 -1.87843,54.85 l 59.54606,-6.95017 c 0,0 16.90581,-65.74487 -23.10463,-76.82757 z"
     transform="translate(-64,-113.4487)"
     fill="#2f2e41"
     id="path1337" />
  <path
     d="m 297.57483,341.72856 c 0,0 -39.12584,3.89677 -32.157,19.69271 6.96884,15.79594 6.96879,17.18971 6.96879,17.18971 l 34.37938,61.32542 11.15008,-11.61466 c 0,0 -12.54384,-27.41061 -12.54384,-36.23775 0,-8.82714 -13.00842,-24.1585 -13.00842,-24.1585 l 22.76474,-1.85835 z"
     transform="translate(-64,-113.4487)"
     fill="#a0616a"
     id="path1339" />
  <path
     d="m 404.79376,360.4921 13.00842,28.33978 c 0,0 9.75632,9.75632 20.44181,48.78159 10.68549,39.02527 13.00843,37.63153 13.00843,37.63153 l -16.26053,3.25211 c 0,0 -18.11888,-42.27738 -24.15851,-45.52948 -6.03963,-3.2521 -13.473,-32.98565 -13.473,-32.98565 l -21.371,-26.946 6.50421,-14.40219 z"
     transform="translate(-64,-113.4487)"
     fill="#a0616a"
     id="path1341" />
  <path
     d="m 388.99782,327.971 19.97718,37.167 c 0,0 -25.08768,-11.61467 -28.80437,13.93759 L 357.40589,361.4213 c 0,0 -31.59189,10.22088 -50.63989,6.50419 0,0 5.575,-17.65429 -14.40218,-25.55227 l 45.06489,-5.575 -1.85834,-9.75631 4.64586,-9.29174 z"
     transform="translate(-64,-113.4487)"
     fill="#2f2e41"
     id="path1343" />
  <path
     d="m 309.55351,431.57385 c 0,0 -12.54384,-1.85835 -9.29173,9.29173 l 6.50421,22.30015 c 0,0 -8.36256,22.76475 4.64587,17.65429 13.00843,-5.11046 21.371,-36.70234 21.371,-36.70234 0,0 5.575,-24.1585 0,-24.1585 -5.575,0 -23.22933,-3.71669 -21.371,0 1.85833,3.71669 -1.85835,11.61467 -1.85835,11.61467 z"
     transform="translate(-64,-113.4487)"
     fill="#2f2e41"
     id="path1345" />
  <path
     d="m 449.85866,468.74077 c 0,0 -16.26053,-4.18128 -19.97723,2.32294 -3.7167,6.50422 -2.78752,27.87519 -2.78752,28.33978 0,0.46459 5.575,5.11045 7.43339,5.11045 1.85839,0 13.473,20.9064 29.26895,13.473 15.79595,-7.4334 -13.93759,-49.24617 -13.93759,-49.24617 z"
     transform="translate(-64,-113.4487)"
     fill="#2f2e41"
     id="path1347" />
  <circle
     cx="268.78284"
     cy="109.06119"
     r="18.118879"
     fill="#a0616a"
     id="circle1349" />
  <path
     d="m 347.64961,226.22658 c 0,0 3.71669,19.51263 6.9688,22.30015 3.25211,2.78752 -24.62309,6.9688 -24.62309,6.9688 0,0 4.18128,-13.473 -0.92917,-20.44181 -5.11045,-6.96881 18.58346,-8.82714 18.58346,-8.82714 z"
     transform="translate(-64,-113.4487)"
     fill="#a0616a"
     id="path1351" />
  <path
     d="m 396.4312,336.79818 c -3.16386,0 -11.21978,-1.31013 -20.25137,-2.99658 -7.81426,-1.45881 -16.36738,-3.19171 -23.11318,-4.59477 -7.22429,-1.50526 -12.38584,-2.62955 -12.38584,-2.62955 0,0 -1.85835,11.61466 -7.898,10.2209 -5.20335,-1.19864 -20.75305,-55.51344 -24.95758,-70.52423 a 5.22182,5.22182 0 0 1 2.309,-5.86773 l 21.357,-13.041 5.47285,2.09064 c 0,0 9.24528,-7.14535 14.61122,-7.28937 5.36594,-0.14402 14.65773,-1.53778 14.65773,-1.53778 0,0 10.68549,0.92918 12.54384,8.82715 1.85835,7.89797 2.78752,57.14415 9.75632,65.97129 6.9688,8.82714 16.72516,21.37103 7.89801,21.37103 z"
     transform="translate(-64,-113.4487)"
     fill="#d0cde1"
     id="path1353" />
  <path
     d="m 331.38908,362.815 c 0,0 0,18.11888 12.07925,15.33136 12.07925,-2.78752 0.92917,-19.51264 0.92917,-19.51264 z"
     transform="translate(-64,-113.4487)"
     fill="#a0616a"
     id="path1355" />
  <path
     d="m 364.83931,364.67338 c 0,0 -4.18128,21.371 -13.00842,18.11888 -8.82714,-3.25212 0,-22.30016 0,-22.30016 z"
     transform="translate(-64,-113.4487)"
     fill="#a0616a"
     id="path1357" />
  <path
     d="m 384.352,314.03344 c 0,0 -4.54832,10.85274 -8.17212,19.76816 -7.81426,-1.45881 -16.36738,-3.19171 -23.11318,-4.59477 a 13.30244,13.30244 0 0 1 2.01634,-3.55872 c 3.25211,-3.7167 1.39376,-4.64587 1.39376,-4.64587 -2.78751,-5.575 -0.46458,-13.00842 -0.46458,-13.00842 -5.575,-14.86677 2.78752,-33.45024 2.78752,-33.45024 z"
     transform="translate(-64,-113.4487)"
     opacity="0.15"
     id="path1359" />
  <path
     d="m 360.19345,274.54358 c 0,0 -8.36256,18.58347 -2.78752,33.45024 0,0 -2.32294,7.43338 0.46458,13.00842 0,0 1.85835,0.92917 -1.39376,4.64587 -3.25211,3.7167 -6.03962,16.72511 -3.71669,19.51263 2.32293,2.78752 -3.2521,7.898 -1.85834,10.68549 1.39376,2.78749 -2.32294,6.50422 -2.32294,6.50422 0,0 13.9376,2.78752 16.26053,6.96879 0,0 2.78752,-3.2521 1.39376,-6.96879 -1.39376,-3.71669 -0.46458,-5.11046 0.92918,-7.43339 1.39376,-2.32293 5.575,-7.43338 6.03962,-9.75632 0.46462,-2.32294 12.54384,-31.1273 12.54384,-31.1273 l -5.66494,-52.49178 z"
     transform="translate(-64,-113.4487)"
     fill="#d0cde1"
     id="path1361" />
  <path
     d="m 311.87644,261.53516 -0.868,0.15781 a 5.22217,5.22217 0 0 0 -4.29024,5.1766 c 0.0331,4.66459 0.29588,12.94276 1.44152,24.39913 1.85835,18.58346 8.36256,46.45866 9.75632,49.24618 a 148.29815,148.29815 0 0 0 7.43338,14.40218 c 4.18128,6.9688 5.11046,4.64587 4.18128,7.898 a 4.89284,4.89284 0 0 0 1.39376,5.11046 c 0,0 8.36256,-9.29174 16.72512,-4.18128 a 10.35217,10.35217 0 0 0 0.92917,-4.18128 c 0,-2.32294 1.39376,-4.64587 -0.92917,-6.03963 -2.32293,-1.39376 1.39376,-7.43338 -2.32293,-10.68549 -3.71669,-3.25211 -4.18128,-2.78752 -3.7167,-6.03963 a 13.83913,13.83913 0 0 0 -0.92917,-6.50421 z"
     transform="translate(-64,-113.4487)"
     fill="#d0cde1"
     id="path1363" />
  <path
     d="m 339.55674,199.23506 c 0,0 -7.5137,19.9113 -25.92226,28.17636 L 310.629,209.75423 Z"
     transform="translate(-64,-113.4487)"
     fill="#2f2e41"
     id="path1365" />
  <ellipse
     cx="286.43713"
     cy="102.09239"
     rx="2.5552299"
     ry="4.87816"
     fill="#a0616a"
     id="ellipse1367" />
  <circle
     cx="811.81317"
     cy="326.40598"
     r="32.45446"
     fill="#2f2e41"
     id="circle1369" />
  <circle
     cx="807.47833"
     cy="283.78033"
     r="10.78039"
     fill="#2f2e41"
     id="circle1371" />
  <path
     d="m 859.34737,403.90543 a 10.7812,10.7812 0 0 1 0.92132,-14.42975 q -0.45189,0.29079 -0.8826,0.63121 a 10.780394,10.780394 0 1 0 13.41081,16.88247 q 0.42976,-0.34138 0.81452,-0.71691 a 10.78117,10.78117 0 0 1 -14.26405,-2.36702 z"
     transform="translate(-64,-113.4487)"
     fill="#2f2e41"
     id="path1373" />
  <path
     d="m 822.655,557.219 -18.78419,15.89432 c 0,0 -28.17629,8.66963 -14.44938,18.06172 13.72691,9.39209 21.67407,-11.5595 21.67407,-11.5595 l 23.119,-14.44938 z"
     transform="translate(-64,-113.4487)"
     fill="#ffb9b9"
     id="path1375" />
  <path
     d="m 863.11331,487.862 -2.16741,-1.44494 c 0,0 -8.66963,0 -10.11457,8.66963 -1.44494,8.66963 -5.77975,26.73135 -5.77975,26.73135 0,0 -14.44938,8.66963 -13.00444,24.56394 l -15.17185,13.00445 c 0,0 18.06173,5.77975 14.44938,10.837 l 26.73133,-24.5639 0.72247,-46.96049 z"
     transform="translate(-64,-113.4487)"
     fill="#2f2e41"
     id="path1377" />
  <circle
     cx="807.78296"
     cy="339.01233"
     r="18.784189"
     fill="#ffb9b9"
     id="circle1379" />
  <path
     d="m 866.00318,465.46547 c 0,0 11.55951,13.00444 4.33482,20.22913 -7.22469,7.22469 -9.3921,42.62567 -9.3921,42.62567 l 31.78864,-48.40542 c 0,0 -8.66963,-17.33926 -7.94716,-23.119 z"
     transform="translate(-64,-113.4487)"
     fill="#ffb9b9"
     id="path1381" />
  <path
     d="m 863.83578,516.0383 c 0,0 17.33925,-38.08367 26.73135,-40.7159 l 24.56394,6.03738 c 0,0 -19.50666,67.18962 -17.33925,73.69184 2.16741,6.50222 14.44938,15.89432 10.11456,72.96937 0,0 55.63012,101.86813 41.90321,119.20739 -13.72691,17.33926 -65.02221,30.34369 -65.74468,25.28641 -0.72247,-5.05728 -23.84148,-83.08393 -20.22913,-106.92541 0,0 0,103.31307 -4.33482,105.48047 -4.33482,2.1674 -73.69184,18.06173 -71.52443,5.77975 2.16741,-12.28198 36.84592,-147.38367 36.84592,-147.38367 l 26.73135,-83.8064 0.72247,-12.282 c 0,0 -11.5595,-7.94716 -2.88987,-26.00888 8.66963,-18.06172 11.5595,-20.9516 11.5595,-20.9516 l 10.4084,-1.954 c 0,0 -9.68593,26.51795 -7.51852,31.57525 z"
     transform="translate(-64,-113.4487)"
     fill="#2f2e41"
     id="path1383" />
  <path
     d="m 902.8491,570.22347 -8.66963,18.7842 c 0,0 -22.39654,23.84147 -6.50222,24.56394 15.89432,0.72247 17.33926,-21.67407 17.33926,-21.67407 l 11.5595,-21.67407 z"
     transform="translate(-64,-113.4487)"
     fill="#ffb9b9"
     id="path1385" />
  <path
     d="m 905.739,482.08225 h 9.39209 c 0,0 2.88988,-4.33481 5.77976,13.72691 2.88988,18.06172 1.44493,45.51555 1.44493,45.51555 l -4.33478,36.12345 c 0,0 -15.17185,-5.77975 -18.78419,-4.33481 -3.61234,1.44494 0,-0.72247 0,-0.72247 l 6.50222,-24.564 -7.94716,-35.401 z"
     transform="translate(-64,-113.4487)"
     fill="#2f2e41"
     id="path1387" />
  <path
     d="m 869.88156,424.76348 c -12.26952,3.33372 -20.63946,11.8383 -18.69479,18.99551 0.87013,3.20245 3.66467,5.586 7.57924,6.95045 l 3.43483,-4.26089 0.156,5.17072 c 0.54335,0.0925 1.09492,0.17509 1.66322,0.2355 l 4.36381,-9.19 2.48809,9.15725 a 38.64777,38.64777 0 0 0 6.05185,-1.14 c 12.26952,-3.33371 20.63946,-11.8383 18.69479,-18.99551 -1.94467,-7.15721 -13.46753,-10.25675 -25.73704,-6.92303 z"
     transform="translate(-64,-113.4487)"
     fill="#2f2e41"
     id="path1389" />
  <ellipse
     cx="826.92834"
     cy="335.03876"
     rx="2.1674099"
     ry="3.61234"
     fill="#ffb9b9"
     id="ellipse1391" />
  <ellipse
     cx="753.42114"
     cy="665.49994"
     rx="17"
     ry="7.5"
     fill="#2f2e41"
     id="ellipse1393" />
  <ellipse
     cx="906.03021"
     cy="773.57361"
     rx="22.794621"
     ry="10"
     transform="rotate(-21.51295,575.43878,885.2943)"
     fill="#2f2e41"
     id="ellipse1395" />
  <path
     d="m 794.89479,581.7162 c -0.29785,-0.0732 -29.95507,-7.62207 -41.24023,-37.60547 -12.86328,-34.17431 2.25976,-82.36621 44.94824,-143.23632 52.13965,-74.34717 54.9707,-99.32813 48.165,-107.19287 -8.60937,-9.94825 -35.625,3.52246 -35.89551,3.65966 l -0.90234,-1.78515 c 1.167,-0.58985 28.68164,-14.30616 38.30859,-3.18457 10.5791,12.22168 -5.584,49.11328 -48.03906,109.65136 -23.13184,32.98487 -38.25195,62.59229 -44.93848,87.99952 -5.42187,20.59814 -5.34961,38.54834 0.21387,53.354 10.89648,28.99609 39.56641,36.32617 39.85449,36.39648 z"
     transform="translate(-64,-113.4487)"
     fill="#3f3d56"
     id="path1397" />
  <path
     d="m 811.42116,356.44862 h -251 v -164 h 251 z m -249,-2 h 247 v -160 h -247 z"
     transform="translate(-64,-113.4487)"
     fill="#3f3d56"
     id="path1399" />
  <circle
     cx="600.95398"
     cy="172.2189"
     r="10.53285"
     fill="#3f3d56"
     id="circle1401" />
  <circle
     cx="690.88831"
     cy="172.2189"
     r="10.53285"
     fill="#3f3d56"
     id="circle1403" />
  <path
     d="m 754.88831,328.60921 c 0,3.1323 -20.31385,12.15328 -45.37226,12.15328 -25.05841,0 -45.37226,-9.021 -45.37226,-12.15328 0,-3.13228 20.31385,0.81022 45.37226,0.81022 25.05841,0 45.37226,-3.94252 45.37226,-0.81022 z"
     transform="translate(-64,-113.4487)"
     fill="#3f3d56"
     id="path1405" />
  <rect
     y="671.55127"
     width="1100"
     height="2"
     fill="#3f3d56"
     id="rect1407"
     x="0" />
</svg>
