<?xml version="1.0" encoding="UTF-8" standalone="no"?>
<svg
   xmlns:dc="http://purl.org/dc/elements/1.1/"
   xmlns:cc="http://creativecommons.org/ns#"
   xmlns:rdf="http://www.w3.org/1999/02/22-rdf-syntax-ns#"
   xmlns:svg="http://www.w3.org/2000/svg"
   xmlns="http://www.w3.org/2000/svg"
   xmlns:sodipodi="http://sodipodi.sourceforge.net/DTD/sodipodi-0.dtd"
   xmlns:inkscape="http://www.inkscape.org/namespaces/inkscape"
   inkscape:version="1.0 (9f2f71dc58, 2020-08-02)"
   sodipodi:docname="about_networking.svg"
   version="1.1"
   viewBox="0 0 1100 699.99999"
   height="700"
   width="1100"
   data-name="Layer 1"
   id="fb0462f1-4822-46c6-85a1-002b71cfcb82">
  <metadata
     id="metadata111">
    <rdf:RDF>
      <cc:Work
         rdf:about="">
        <dc:format>image/svg+xml</dc:format>
        <dc:type
           rdf:resource="http://purl.org/dc/dcmitype/StillImage" />
        <dc:title>nakamoto</dc:title>
      </cc:Work>
    </rdf:RDF>
  </metadata>
  <defs
     id="defs109" />
  <sodipodi:namedview
     inkscape:current-layer="fb0462f1-4822-46c6-85a1-002b71cfcb82"
     inkscape:window-maximized="1"
     inkscape:window-y="40"
     inkscape:window-x="0"
     inkscape:cy="336.18543"
     inkscape:cx="490.24692"
     inkscape:zoom="0.95093024"
     showgrid="false"
     id="namedview107"
     inkscape:window-height="1005"
     inkscape:window-width="1920"
     inkscape:pageshadow="2"
     inkscape:pageopacity="0"
     guidetolerance="10"
     gridtolerance="10"
     objecttolerance="10"
     borderopacity="1"
     bordercolor="#666666"
     pagecolor="#ffffff"
     inkscape:document-rotation="0" />
  <title
     id="title2">nakamoto</title>
  <rect
     id="rect4"
     fill="#3f3d56"
     height="93.868057"
     width="2.0534613"
     y="119.55543"
     x="372.66946"
     style="stroke-width:0.949064" />
  <rect
     id="rect6"
     fill="#3f3d56"
     height="82.594589"
     width="2.0534613"
     y="241.3651"
     x="372.66946"
     style="stroke-width:0.949064" />
  <rect
     id="rect8"
     fill="#3f3d56"
     height="1.7545429"
     width="159.14325"
     y="337.11874"
     x="369.58926"
     style="stroke-width:0.949064" />
  <rect
     id="rect10"
     fill="#3f3d56"
     height="74.568077"
     width="2.0534613"
     y="360.80508"
     x="301.82504"
     style="stroke-width:0.949064" />
  <rect
     id="rect12"
     fill="#3f3d56"
     height="1.7545429"
     width="241.28171"
     y="448.53223"
     x="320.30621"
     style="stroke-width:0.949064" />
  <path
     id="path14"
     stroke-width="1.89813"
     stroke-miterlimit="10"
     stroke="#3f3d56"
     fill="none"
     d="M 578.01529,435.3733" />
  <path
     id="path16"
     stroke-width="1.89813"
     stroke-miterlimit="10"
     stroke="#3f3d56"
     fill="none"
     d="M 578.01529,363.43704" />
  <rect
     id="rect18"
     fill="#3f3d56"
     height="88.604424"
     width="2.0534613"
     y="59.900963"
     x="760.77368"
     style="stroke-width:0.949064" />
  <rect
     id="rect20"
     fill="#3f3d56"
     height="1.7545429"
     width="150.96449"
     y="162.54173"
     x="594.40814"
     style="stroke-width:0.949064" />
  <rect
     id="rect22"
     fill="#3f3d56"
     height="118.43166"
     width="2.0534613"
     y="176.57811"
     x="576.98877"
     style="stroke-width:0.949064" />
  <path
     id="path24"
     fill="#3f3d56"
     d="m 373.69619,242.37344 a 17.454422,14.913616 0 1 1 17.45442,-14.91361 17.473929,14.930284 0 0 1 -17.45442,14.91361 z m 0,-28.07269 a 15.40096,13.159073 0 1 0 15.40096,13.15908 15.418126,13.173741 0 0 0 -15.40096,-13.15908 z"
     style="stroke-width:0.949064" />
  <path
     id="path26"
     fill="#3f3d56"
     d="m 303.87851,464.32314 a 17.454422,14.913616 0 1 1 17.45442,-14.91362 17.473929,14.930284 0 0 1 -17.45442,14.91362 z m 0,-28.0727 a 15.40096,13.159073 0 1 0 15.40096,13.15908 15.418126,13.173741 0 0 0 -15.40096,-13.15908 z"
     style="stroke-width:0.949064" />
  <ellipse
     id="circle28"
     fill="#5dc8cd"
     cy="337.99615"
     cx="374.72263"
     rx="16.427691"
     ry="14.036344"
     style="stroke-width:0.949064" />
  <rect
     id="rect30"
     fill="#3f3d56"
     height="1.7545429"
     width="170.43729"
     y="226.58255"
     x="798.76276"
     style="stroke-width:0.949064" />
  <rect
     id="rect32"
     fill="#3f3d56"
     height="82.594589"
     width="2.0534613"
     y="241.3651"
     x="781.30829"
     style="stroke-width:0.949064" />
  <rect
     id="rect34"
     fill="#3f3d56"
     height="1.7545429"
     width="136.55518"
     y="337.11874"
     x="628.32538"
     style="stroke-width:0.949064" />
  <rect
     id="rect36"
     fill="#3f3d56"
     height="1.7545429"
     width="141.68884"
     y="345.01422"
     x="868.58038"
     style="stroke-width:0.949064" />
  <rect
     id="rect38"
     fill="#3f3d56"
     height="74.568077"
     width="2.0534613"
     y="360.80508"
     x="852.15265"
     style="stroke-width:0.949064" />
  <rect
     id="rect40"
     fill="#3f3d56"
     height="1.7545429"
     width="241.28171"
     y="448.53223"
     x="594.44324"
     style="stroke-width:0.949064" />
  <rect
     id="rect42"
     fill="#3f3d56"
     height="54.390835"
     width="2.0534613"
     y="380.98233"
     x="576.98889"
     style="stroke-width:0.949064" />
  <ellipse
     id="circle44"
     fill="#5dc8cd"
     cy="227.45996"
     cx="782.33466"
     rx="16.427691"
     ry="14.036344"
     style="stroke-width:0.949064" />
  <path
     id="path46"
     fill="#3f3d56"
     d="m 761.80038,177.45535 a 17.454422,14.913616 0 1 1 17.45442,-14.91361 17.473929,14.930284 0 0 1 -17.45442,14.91361 z m 0,-28.07269 a 15.40096,13.159073 0 1 0 15.40096,13.15908 15.418126,13.173741 0 0 0 -15.40096,-13.15908 z"
     style="stroke-width:0.949064" />
  <path
     id="path48"
     fill="#3f3d56"
     d="m 578.0156,177.45535 a 17.454422,14.913616 0 1 1 17.45441,-14.91361 17.473929,14.930284 0 0 1 -17.45441,14.91361 z m 0,-28.07269 a 15.40096,13.159073 0 1 0 15.40096,13.15908 15.418126,13.173741 0 0 0 -15.40096,-13.15908 z"
     style="stroke-width:0.949064" />
  <path
     id="path50"
     fill="#3f3d56"
     d="m 852.15269,361.68237 a 17.454422,14.913616 0 1 1 17.45441,-14.91361 17.473929,14.930284 0 0 1 -17.45441,14.91361 z m 0,-28.07269 a 15.40096,13.159073 0 1 0 15.40095,13.15908 15.418126,13.173741 0 0 0 -15.40095,-13.15908 z"
     style="stroke-width:0.949064" />
  <ellipse
     id="circle52"
     fill="#5dc8cd"
     cy="449.40964"
     cx="852.1524"
     rx="16.427691"
     ry="14.036344"
     style="stroke-width:0.949064" />
  <path
     id="path54"
     fill="#3f3d56"
     d="m 578.0156,464.32314 a 17.454422,14.913616 0 1 1 17.45441,-14.91362 17.473929,14.930284 0 0 1 -17.45441,14.91362 z m 0,-28.0727 a 15.40096,13.159073 0 1 0 15.40096,13.15908 15.418126,13.173741 0 0 0 -15.40096,-13.15908 z"
     style="stroke-width:0.949064" />
  <path
     id="path56"
     fill="#3f3d56"
     d="m 781.30827,352.90965 a 17.454422,14.913616 0 1 1 17.45442,-14.91361 17.473929,14.930284 0 0 1 -17.45442,14.91361 z m 0,-28.07269 a 15.40096,13.159073 0 1 0 15.40096,13.15908 15.418126,13.173741 0 0 0 -15.40096,-13.15908 z"
     style="stroke-width:0.949064" />
  <path
     id="path58"
     fill="#3f3d56"
     d="m 303.8782,316.94164 a 20.534613,17.54543 0 1 0 20.53462,17.54543 20.594985,17.597014 0 0 0 -20.53462,-17.54543 z m 0,5.26364 a 6.160384,5.2636291 0 1 1 -6.16037,5.26362 6.1810521,5.2812886 0 0 1 6.16037,-5.26362 z m 0,25.33964 a 14.959332,12.781732 0 0 1 -12.32077,-5.61791 c 0.0988,-3.50908 8.21386,-5.44077 12.32077,-5.44077 4.10693,0 12.22205,1.93169 12.32077,5.44077 a 14.98422,12.802997 0 0 1 -12.32077,5.61791 z"
     style="stroke-width:0.949064" />
  <path
     id="path60"
     fill="#3f3d56"
     d="m 374.72262,77.446518 a 20.534613,17.54543 0 1 0 20.53461,17.54543 20.594985,17.597014 0 0 0 -20.53461,-17.54543 z m 0,5.263628 a 6.160384,5.2636291 0 1 1 -6.16038,5.263629 6.1810521,5.2812886 0 0 1 6.16038,-5.263629 z m 0,25.339654 a 14.959332,12.781732 0 0 1 -12.32077,-5.61791 c 0.0988,-3.509091 8.21384,-5.440772 12.32077,-5.440772 4.10693,0 12.22205,1.931681 12.32077,5.440772 a 14.98422,12.802997 0 0 1 -12.32077,5.61791 z"
     style="stroke-width:0.949064" />
  <path
     id="path62"
     fill="#3f3d56"
     d="m 761.80008,16.914782 a 20.534613,17.54543 0 1 0 20.53462,17.54543 20.594985,17.597014 0 0 0 -20.53462,-17.54543 z m 0,5.263629 a 6.160384,5.2636291 0 1 1 -6.16038,5.26363 6.1810521,5.2812886 0 0 1 6.16038,-5.26363 z m 0,25.339655 A 14.959332,12.781732 0 0 1 749.47932,41.90015 c 0.0987,-3.509085 8.21384,-5.440767 12.32076,-5.440767 4.10693,0 12.22205,1.931682 12.32077,5.440767 a 14.98422,12.802997 0 0 1 -12.32077,5.617916 z"
     style="stroke-width:0.949064" />
  <path
     id="path64"
     fill="#3f3d56"
     d="m 997.94812,209.03725 a 20.534613,17.54543 0 1 0 20.53458,17.54542 20.594985,17.597014 0 0 0 -20.53458,-17.54542 z m 0,5.26363 a 6.160384,5.2636291 0 1 1 -6.16039,5.26362 6.1810521,5.2812886 0 0 1 6.16039,-5.26362 z m 0,25.33965 a 14.959332,12.781732 0 0 1 -12.32077,-5.61791 c 0.0985,-3.50909 8.21384,-5.44077 12.32077,-5.44077 4.10688,0 12.22208,1.93168 12.32078,5.44077 a 14.98422,12.802997 0 0 1 -12.32078,5.61791 z"
     style="stroke-width:0.949064" />
  <path
     id="path66"
     fill="#3f3d56"
     d="m 1036.9639,327.4689 a 20.534613,17.54543 0 1 0 20.5346,17.54544 20.594985,17.597014 0 0 0 -20.5346,-17.54544 z m 0,5.26363 a 6.160384,5.2636291 0 1 1 -6.1604,5.26362 6.1810521,5.2812886 0 0 1 6.1604,-5.26362 z m 0,25.33966 a 14.959332,12.781732 0 0 1 -12.3208,-5.61792 c 0.099,-3.50909 8.2139,-5.44077 12.3208,-5.44077 4.1069,0 12.2221,1.93168 12.3208,5.44077 a 14.98422,12.802997 0 0 1 -12.3208,5.61792 z"
     style="stroke-width:0.949064" />
  <path
     id="path72"
     fill="#5dc8cd"
     d="m 588.83697,305.72269 a 38.494946,32.891313 0 1 0 28.03796,39.87288 38.489052,32.886277 0 0 0 -28.03796,-39.87288 z m 7.66146,27.22789 c -0.55545,3.20467 -2.63355,4.75657 -5.39444,5.29959 3.78967,1.68525 5.71889,4.27144 3.88105,8.75429 -2.27935,5.56629 -7.69741,6.03651 -14.89992,4.87149 l -1.74852,5.98651 -4.225,-0.89921 1.72491,-5.90667 q -1.68794,-0.35728 -3.36665,-0.74568 l -1.73107,5.93387 -4.21986,-0.90008 1.74852,-5.99704 c -0.98668,-0.2158 -1.98877,-0.44565 -3.0114,-0.66409 l -5.49711,-1.17203 2.09658,-4.13108 c 0,0 3.11304,0.70797 3.07095,0.65533 a 1.5361534,1.3125386 0 0 0 1.93539,-0.85797 l 2.76293,-9.46313 c 0.15504,0.0325 0.30596,0.0641 0.4456,0.0948 a 3.5889987,3.0665552 0 0 0 -0.43841,-0.12019 l 1.97029,-6.75587 a 2.2476675,1.920479 0 0 0 -1.96824,-2.09844 c 0.0667,-0.0386 -3.06787,-0.6518 -3.06787,-0.6518 l 1.12426,-3.85561 5.82671,1.24309 -0.005,0.0184 c 0.87579,0.18598 1.77829,0.36232 2.69824,0.54128 l 1.73106,-5.92773 4.22193,0.89921 -1.69617,5.81192 c 1.13352,0.22107 2.27421,0.44391 3.38514,0.67988 l 1.68486,-5.77332 4.22397,0.8992 -1.73004,5.93036 c 5.33283,1.56945 9.23339,3.92229 8.46744,8.30075 z"
     style="stroke-width:0.949064" />
  <path
     id="path74"
     fill="#e6e6e6"
     d="m 206.85822,660.21274 c -2.92148,22.70046 -156.294952,20.79484 -156.062542,-0.002 2.921439,-22.69911 156.294902,-20.79348 156.062542,0.002 z"
     style="stroke-width:0.949064" />
  <polygon
     id="polygon76"
     fill="#ffb8b8"
     points="116.874,650.999 103.754,668.156 109.81,681.276 120.911,680.267 127.976,657.054 "
     transform="matrix(1.0267307,0,0,0.87727152,50.795422,16.914782)" />
  <polygon
     id="polygon78"
     fill="#ffb8b8"
     points="65.642,698.373 65.403,707.516 82.56,708.525 82.56,697.424 "
     transform="matrix(1.0267307,0,0,0.87727152,50.795422,16.914782)" />
  <polygon
     id="polygon80"
     fill="#2f2e41"
     points="114.856,593.472 120.911,517.778 71.458,531.908 75.495,612.647 65.403,700.451 95.68,704.488 "
     transform="matrix(1.0267307,0,0,0.87727152,50.795422,16.914782)" />
  <path
     id="path82"
     fill="#2f2e41"
     d="m 75.461517,457.86618 c 0,0 -12.434663,69.94513 13.470891,92.96505 25.905552,23.01991 61.137112,63.74745 61.137112,63.74745 l 24.86932,-26.56145 -63.20955,-57.54975 12.43466,-38.95678 50.77491,-20.36378 -8.28977,-48.69597 -74.607998,-0.88538 z"
     style="stroke-width:0.949064" />
  <ellipse
     id="circle84"
     fill="#ffb8b8"
     cy="276.36298"
     cx="136.5986"
     rx="22.796892"
     ry="19.478394"
     style="stroke-width:0.949064" />
  <path
     id="path86"
     fill="#ffb8b8"
     d="m 116.91039,280.78992 c 0,0 -1.03622,27.44682 -6.21733,30.98834 -5.18111,3.54152 18.65201,18.593 18.65201,18.593 l 15.54332,-21.24914 v -19.4784 z"
     style="stroke-width:0.949064" />
  <polygon
     id="polygon88"
     fill="#d0cde1"
     points="53.292,472.362 100.726,473.371 106.782,347.216 91.643,329.05 74.486,343.179 62.233,324.677 55.31,334.096 45.218,362.355 "
     transform="matrix(1.0267307,0,0,0.87727152,50.795422,16.914782)" />
  <path
     id="path90"
     fill="#2f2e41"
     d="m 180.11994,324.17357 8.28983,-0.88537 c 0,0 2.07244,0.88537 3.10866,7.08308 1.03622,6.19771 13.47089,61.09132 13.47089,61.09132 l -16.57955,67.28898 -18.65201,-21.24915 11.39845,-37.18602 -11.39845,-37.18602 z"
     style="stroke-width:0.949064" />
  <polygon
     id="polygon92"
     fill="#2f2e41"
     points="30.079,471.353 26.042,446.122 28.061,423.919 35.126,410.798 23.015,349.234 16.959,349.234 1.821,430.983 15.95,494.566 "
     transform="matrix(1.0267307,0,0,0.87727152,50.795422,16.914782)" />
  <path
     id="path94"
     fill="#2f2e41"
     d="m 166.64906,611.03714 c 0,0 -6.21734,-1.77076 -6.21734,1.77078 0,3.54152 4.14492,14.16609 4.14492,14.16609 0,0 -6.21734,32.75908 3.10865,30.98834 9.32601,-1.77072 16.57957,-16.82224 17.61579,-21.24914 1.03623,-4.42691 6.21733,-27.44683 6.21733,-27.44683 0,0 8.28982,-16.82224 3.10866,-17.70761 -5.18115,-0.88538 -19.68822,-4.42691 -19.68822,-4.42691 0,0 8.28976,22.13452 -8.28979,23.90528 z"
     style="stroke-width:0.949064" />
  <path
     id="path96"
     fill="#2f2e41"
     d="m 136.59861,638.48398 c 0,0 -16.57955,-8.85382 -19.68822,-1.77077 a 87.067623,74.393362 0 0 0 -4.14491,15.93687 c 0,0 -4.1449,11.50995 12.43467,9.73919 16.57958,-1.77075 14.50711,-1.77076 15.54333,-7.08309 1.03624,-5.31233 -4.14487,-16.8222 -4.14487,-16.8222 z"
     style="stroke-width:0.949064" />
  <path
     id="path98"
     fill="#2f2e41"
     d="m 123.12773,276.36301 4.1449,-0.88539 c 0,0 3.10867,-15.05148 10.36223,-13.28071 7.25355,1.77076 25.90554,3.54155 25.90554,-3.54155 0,-7.08309 -17.61576,-13.28072 -27.97798,-12.39533 -10.36222,0.88538 -27.978,3.54154 -26.94179,16.82224 1.03623,13.2807 7.72272,26.20003 7.72272,26.20003 l 0.54006,-7.87406 z"
     style="stroke-width:0.949064" />
  <polygon
     id="polygon100"
     fill="#d0cde1"
     points="91.643,355.29 74.486,343.179 91.643,329.05 97.6,336.197 "
     transform="matrix(1.0267307,0,0,0.87727152,50.795422,16.914782)" />
  <polygon
     id="polygon102"
     fill="#d0cde1"
     points="59.347,354.281 74.486,343.179 62.375,325.013 55.31,334.096 "
     transform="matrix(1.0267307,0,0,0.87727152,50.795422,16.914782)" />
  <path
     id="path104"
     fill="#2f2e41"
     d="m 187.37349,323.28822 -33.1591,-11.50996 -7.77166,-4.8696 -23.315,88.09545 -15.54333,-39.84216 4.663,-50.90943 -43.00322,19.0357 14.507161,60.20592 2.072445,23.01992 -6.217358,18.59301 c 0,0 -21.760663,13.28072 -14.507108,27.44682 7.253554,14.1661 15.543327,15.05149 15.543327,15.05149 0,0 35.231553,-28.33221 37.304003,-35.41527 2.07244,-7.08304 5.1811,-19.47837 5.1811,-19.47837 0,0 17.61579,56.6644 38.34019,55.77901 20.72439,-0.88538 20.72444,-19.47838 20.72444,-19.47838 l -5.18111,-19.47839 -8.28975,-20.36378 4.14491,-33.64449 z"
     style="stroke-width:0.949064" />
  <ellipse
     style="stroke-width:1.74559"
     ry="26.341551"
     rx="29.612957"
     cx="578.79291"
     cy="339.63205"
     fill="#5dc8cd"
     id="circle28-6" />
</svg>
