<?xml version="1.0" encoding="UTF-8" standalone="no"?>
<svg
   xmlns:dc="http://purl.org/dc/elements/1.1/"
   xmlns:cc="http://creativecommons.org/ns#"
   xmlns:rdf="http://www.w3.org/1999/02/22-rdf-syntax-ns#"
   xmlns:svg="http://www.w3.org/2000/svg"
   xmlns="http://www.w3.org/2000/svg"
   xmlns:sodipodi="http://sodipodi.sourceforge.net/DTD/sodipodi-0.dtd"
   xmlns:inkscape="http://www.inkscape.org/namespaces/inkscape"
   id="ee68b97f-fc10-400d-a2ff-be2b67d80654"
   data-name="Layer 1"
   width="1125"
   height="800"
   viewBox="0 0 1125 799.99997"
   version="1.1"
   sodipodi:docname="application-support.svg"
   inkscape:version="1.0 (9f2f71dc58, 2020-08-02)">
  <metadata
     id="metadata2276">
    <rdf:RDF>
      <cc:Work
         rdf:about="">
        <dc:format>image/svg+xml</dc:format>
        <dc:type
           rdf:resource="http://purl.org/dc/dcmitype/StillImage" />
        <dc:title>road sign</dc:title>
      </cc:Work>
    </rdf:RDF>
  </metadata>
  <defs
     id="defs2274" />
  <sodipodi:namedview
     pagecolor="#ffffff"
     bordercolor="#666666"
     borderopacity="1"
     objecttolerance="10"
     gridtolerance="10"
     guidetolerance="10"
     inkscape:pageopacity="0"
     inkscape:pageshadow="2"
     inkscape:window-width="1920"
     inkscape:window-height="1005"
     id="namedview2272"
     showgrid="false"
     inkscape:zoom="0.9238228"
     inkscape:cx="487.48349"
     inkscape:cy="386.97897"
     inkscape:window-x="0"
     inkscape:window-y="40"
     inkscape:window-maximized="1"
     inkscape:current-layer="ee68b97f-fc10-400d-a2ff-be2b67d80654" />
  <title
     id="title2215">road sign</title>
  <circle
     cx="588.58038"
     cy="115.01066"
     r="64"
     fill="#ff6584"
     id="circle2217" />
  <path
     d="m 395.87655,423.02433 c 0,123.61 -73.48421,166.77 -164.13156,166.77 -90.64735,0 -164.131559,-43.16 -164.131559,-166.77 0,-123.61 164.131559,-280.86149 164.131559,-280.86149 0,0 164.13156,157.25146 164.13156,280.86149 z"
     fill="#f2f2f2"
     id="path2219" />
  <polygon
     points="160.097,436.154 160.852,389.639 209.067,297.044 161.052,377.329 161.052,377.329 162.412,293.669 214.04,219.952 162.625,280.514 163.474,127.11 158.138,330.188 158.576,321.811 106.085,241.464 157.735,337.893 152.844,431.327 152.698,428.847 92.185,344.294 152.515,437.608 151.903,449.293 151.794,449.469 151.844,450.428 139.435,687.478 156.014,687.478 158.003,565.037 218.185,471.952 158.153,555.833 159.833,452.383 229.79,324.4 "
     fill="#3f3d56"
     id="polygon2221"
     transform="translate(67.613431,15.052743)" />
  <path
     d="m 882.26057,358.17447 c 0,151.01141 -89.77388,203.739 -200.51558,203.739 -110.7417,0 -200.51559,-52.72759 -200.51559,-203.739 0,-151.01141 200.51559,-343.121767 200.51559,-343.121767 0,0 200.51558,192.110367 200.51558,343.121767 z"
     fill="#f2f2f2"
     id="path2223" />
  <polygon
     points="609.202,377.552 610.126,320.725 669.028,207.605 610.37,305.687 610.37,305.687 612.03,203.481 675.104,113.423 612.291,187.409 613.329,0 606.809,248.096 607.345,237.861 543.218,139.704 606.317,257.508 600.341,371.654 600.164,368.625 526.236,265.329 599.94,379.328 599.192,393.603 599.059,393.818 599.12,394.99 583.96,684.589 604.214,684.589 606.645,535.005 680.167,421.285 606.827,523.761 608.88,397.378 694.345,241.024 "
     fill="#3f3d56"
     id="polygon2225"
     transform="translate(67.613431,15.052743)" />
  <ellipse
     cx="467.58041"
     cy="700.01068"
     rx="308"
     ry="11"
     fill="#3f3d56"
     id="ellipse2227" />
  <ellipse
     cx="900.58038"
     cy="775.51068"
     rx="142"
     ry="13.5"
     fill="#3f3d56"
     id="ellipse2229" />
  <rect
     x="449.58041"
     y="362.01065"
     width="36"
     height="338"
     fill="#2f2e41"
     id="rect2231" />
  <polygon
     points="564.967,361.958 628.967,392.958 564.967,423.958 343.967,423.958 343.967,361.958 "
     fill="#3f3d56"
     id="polygon2233"
     transform="translate(67.613431,15.052743)" />
  <polygon
     points="564.967,423.958 628.967,392.958 623.806,390.458 564.967,418.958 343.967,418.958 343.967,423.958 "
     opacity="0.1"
     id="polygon2235"
     transform="translate(67.613431,15.052743)" />
  <polygon
     points="235.967,443.958 171.967,474.958 235.967,505.958 456.967,505.958 456.967,443.958 "
     fill="#3f3d56"
     id="polygon2237"
     transform="translate(67.613431,15.052743)" />
  <polygon
     points="456.967,505.958 456.967,500.958 235.967,500.958 177.128,472.458 171.967,474.958 235.967,505.958 "
     opacity="0.1"
     id="polygon2239"
     transform="translate(67.613431,15.052743)" />
  <rect
     x="535.58038"
     y="389.01065"
     width="38"
     height="38"
     fill="#5dc8cd"
     id="rect2241" />
  <circle
     cx="382.58041"
     cy="490.01065"
     r="19"
     fill="#5dc8cd"
     id="circle2243" />
  <circle
     cx="467.58041"
     cy="406.01065"
     r="11"
     fill="#2f2e41"
     id="circle2245" />
  <circle
     cx="467.58041"
     cy="488.01065"
     r="11"
     fill="#2f2e41"
     id="circle2247" />
  <path
     d="m 393.58041,662.34678 c 0,22.46856 -13.35643,30.31375 -29.83387,30.31375 q -0.57257,0 -1.14331,-0.0127 c -0.76345,-0.0164 -1.51962,-0.0527 -2.26669,-0.10361 -14.87057,-1.05244 -26.42387,-9.30115 -26.42387,-30.19741 0,-21.62514 27.63446,-48.91242 29.71026,-50.93189 l 0.004,-0.004 c 0.08,-0.0782 0.12,-0.11633 0.12,-0.11633 0,0 29.83384,28.58329 29.83384,51.05185 z"
     fill="#5dc8cd"
     id="path2249" />
  <path
     d="m 362.65956,689.22325 10.91162,-15.24683 -10.93889,16.92094 -0.0291,1.75044 c -0.76345,-0.0164 -1.51962,-0.0527 -2.26669,-0.10361 l 1.17607,-22.47946 -0.009,-0.1745 0.02,-0.0327 0.11088,-2.12307 -10.9662,-16.96274 11.00073,15.37043 0.0255,0.45079 0.88883,-16.98456 -9.38839,-17.52807 9.50291,14.547 0.9252,-35.21244 0.004,-0.12 v 0.11633 l -0.1545,27.76715 9.34661,-11.008 -9.38478,13.40017 -0.2472,15.20685 8.72677,-14.59429 -8.76312,16.83189 -0.13814,8.4541 12.66934,-20.31277 -12.7166,23.2629 z"
     fill="#3f3d56"
     id="path2251" />
  <path
     d="m 854.62049,750.9247 c 0,0 -14.15906,11.92341 -21.61119,11.1782 -7.45213,-0.74521 -21.6112,-0.74521 -15.64949,7.45213 5.96171,8.19734 30.55376,12.66863 40.98675,13.41385 10.43299,0.74522 33.5346,1.49042 32.04418,-2.98086 -1.49042,-4.47128 -2.98082,-25.33732 -8.94256,-26.82772 -5.96174,-1.4904 -26.82769,-2.2356 -26.82769,-2.2356 z"
     fill="#575a89"
     id="path2253" />
  <path
     d="m 935.88592,739.21812 c 0,0 -10.43362,15.29007 -17.81186,16.57509 -7.37824,1.28502 -21.01635,5.09036 -13.07089,11.38386 7.94546,6.2935 32.8344,3.991 43.08382,1.90486 10.24943,-2.08614 32.70133,-7.57707 30.06413,-11.48328 -2.6373,-3.90621 -9.6808,-23.60393 -15.8237,-23.43727 -6.1429,0.16666 -26.4415,5.05674 -26.4415,5.05674 z"
     fill="#575a89"
     id="path2255" />
  <path
     d="m 846.32632,520.5485 c 0,0 -9.591,65.684 -7.35532,77.60739 2.23568,11.92339 3.72607,30.55375 3.72607,30.55375 0,0 -1.49042,15.64948 0,23.10162 1.49042,7.45214 10.433,78.24742 10.433,79.73785 0,1.49043 -1.49043,5.9617 0,9.68777 1.49043,3.72607 4.47128,0.74521 0,6.70692 -4.47128,5.96171 -1.49043,7.45214 -0.74521,7.45214 0.74522,0 29.80854,2.98085 31.299,0 1.49046,-2.98085 -0.74522,-3.72607 0,-7.45214 0.74522,-3.72607 1.49042,-4.47128 2.98085,-5.21649 1.49043,-0.74521 4.47128,0.74521 2.23564,-2.98086 -2.23564,-3.72607 -7.45213,-8.19734 -5.96171,-10.433 1.49042,-2.23566 -0.74521,-18.63033 -0.74521,-18.63033 0,0 -1.49043,-36.51547 -2.23564,-58.87187 -0.74521,-22.3564 6.70692,-45.458 6.70692,-45.458 a 85.26363,85.26363 0 0 0 19.37555,49.92931 c 19.37555,23.10162 29.06333,66.324 29.06333,66.324 0,0 4.47128,6.70692 2.23564,12.66863 -2.23564,5.96171 -8.94256,2.23564 -2.23564,5.96171 6.70692,3.72607 29.80853,-1.49043 32.04413,-3.72607 2.2357,-2.23564 -2.9808,-5.21649 -1.4904,-11.1782 1.4904,-5.96171 7.4522,-4.47128 2.2357,-7.45213 -5.2165,-2.98085 -6.707,-2.23565 -6.707,-5.2165 0,-2.98085 -13.4138,-67.81443 -34.27978,-86.44477 l -1.49043,-67.81443 c 0,0 18.63034,-47.69366 -0.74521,-52.16494 -19.37555,-4.47128 -78.34428,13.30864 -78.34428,13.30864 z"
     fill="#2f2e41"
     id="path2257" />
  <path
     d="m 859.83698,344.03808 c 0,0 12.66863,31.299 9.68778,35.77025 -2.98085,4.47125 36.51546,-14.90427 36.51546,-14.90427 0,0 -12.66863,-31.299 -12.66863,-35.025 0,-3.726 -33.53461,14.15902 -33.53461,14.15902 z"
     fill="#a0616a"
     id="path2259" />
  <circle
     cx="869.15216"
     cy="324.28992"
     r="27.572901"
     fill="#a0616a"
     id="circle2261" />
  <path
     d="m 906.04022,352.23543 c 0,0 -19.37555,-2.23564 -29.06333,9.68777 -9.68778,11.92341 -11.1782,14.90427 -11.1782,14.90427 0,0 -23.10162,37.26068 -18.63034,55.891 a 53.90649,53.90649 0 0 1 2.98086,5.21649 c 1.49042,2.98086 1.49042,44.71281 0,51.41973 -1.49042,6.70692 -2.98086,8.94257 -1.49043,18.63034 1.49043,9.68777 -11.92342,25.33726 3.72607,28.31811 15.64949,2.98085 27.5729,0.74522 32.78939,-5.9617 5.21649,-6.70692 0.74522,-11.17821 17.13991,-11.17821 16.39469,0 26.82769,-11.1782 26.82769,-11.1782 0,0 -8.19735,-8.94256 -5.21649,-10.433 2.98086,-1.49044 0,-5.21649 -1.49043,-8.94256 -1.49043,-3.72607 -1.49043,-6.70692 0.74521,-6.70692 2.23564,0 0.74522,-1.49043 -0.74521,-5.2165 -1.49043,-3.72607 26.08247,-67.81443 9.68777,-86.44476 -16.3947,-18.63033 -24.592,-29.06333 -24.592,-29.06333 0,0 2.98081,-11.17817 -1.49047,-8.94253 z"
     fill="#5dc8cd"
     id="path2263" />
  <path
     d="m 863.56305,423.0307 v 32.7894 l -23.84683,78.9926 c 0,0 -15.64949,40.98674 0,40.98674 15.64949,0 14.811,-39.12023 14.811,-39.12023 l 33.62785,-59.248 c 0,0 13.41384,-46.94845 11.92341,-50.67452 -1.49043,-3.72607 -36.51543,-3.72599 -36.51543,-3.72599 z"
     fill="#a0616a"
     id="path2265" />
  <path
     d="m 876.23168,374.59183 c 0,0 -22.3564,8.94256 -16.3947,32.7894 5.9617,23.84684 0,23.10162 0,23.10162 0,0 30.55376,-2.98086 40.24153,3.72606 l 2.23564,-8.94256 c 0,0 8.94257,-51.41973 -26.08247,-50.67452 z"
     fill="#5dc8cd"
     id="path2267" />
  <path
     d="m 859.737,303.59033 a 11.00137,11.00137 0 0 1 -10.33394,-1.60811 c -2.809,-2.3144 -4.0005,-6.58471 -2.34813,-9.82763 1.42688,-2.80037 4.47892,-4.33669 7.40558,-5.48244 a 68.82993,68.82993 0 0 1 20.1708,-4.55454 c 3.29659,-0.23446 6.75883,-0.19731 9.70069,1.30864 1.45563,0.74513 2.71991,1.82055 4.16154,2.59242 2.6508,1.41927 5.73546,1.73482 8.60017,2.6483 a 21.52613,21.52613 0 0 1 13.15521,12.09243 25.93875,25.93875 0 0 1 1.62042,6.00275 33.43529,33.43529 0 0 1 -1.73891,16.73774 c -3.17662,8.4578 -9.83912,15.852 -10.21514,24.87887 -4.07791,-2.95853 -5.59006,-8.29853 -8.85792,-12.133 a 16.50328,16.50328 0 0 0 -9.4191,-5.4634 5.24614,5.24614 0 0 1 -2.80764,-1.02373 4.52018,4.52018 0 0 1 -1.02536,-2.39214 L 875.015,314.19235 c -0.56785,-2.68112 -1.28546,-5.60425 -3.48916,-7.23353 a 10.558,10.558 0 0 0 -4.54771,-1.60216 71.33929,71.33929 0 0 0 -11.65011,-1.06224"
     fill="#2f2e41"
     id="path2269" />
</svg>
