<?xml version="1.0" encoding="UTF-8" standalone="no"?>
<svg
   xmlns:dc="http://purl.org/dc/elements/1.1/"
   xmlns:cc="http://creativecommons.org/ns#"
   xmlns:rdf="http://www.w3.org/1999/02/22-rdf-syntax-ns#"
   xmlns:svg="http://www.w3.org/2000/svg"
   xmlns="http://www.w3.org/2000/svg"
   xmlns:xlink="http://www.w3.org/1999/xlink"
   xmlns:sodipodi="http://sodipodi.sourceforge.net/DTD/sodipodi-0.dtd"
   xmlns:inkscape="http://www.inkscape.org/namespaces/inkscape"
   id="ae37f038-3a9e-4b82-ad68-fc94ba16af2a"
   data-name="Layer 1"
   width="666.88995"
   height="359.8428"
   viewBox="0 0 666.88995 359.84281"
   version="1.1"
   sodipodi:docname="contact-us-flipped.svg"
   inkscape:version="1.0 (9f2f71dc58, 2020-08-02)">
  <metadata
     id="metadata1810">
    <rdf:RDF>
      <cc:Work
         rdf:about="">
        <dc:format>image/svg+xml</dc:format>
        <dc:type
           rdf:resource="http://purl.org/dc/dcmitype/StillImage" />
        <dc:title>contact us</dc:title>
      </cc:Work>
    </rdf:RDF>
  </metadata>
  <sodipodi:namedview
     pagecolor="#ffffff"
     bordercolor="#666666"
     borderopacity="1"
     objecttolerance="10"
     gridtolerance="10"
     guidetolerance="10"
     inkscape:pageopacity="0"
     inkscape:pageshadow="2"
     inkscape:window-width="1920"
     inkscape:window-height="1018"
     id="namedview1808"
     showgrid="false"
     inkscape:zoom="1.1468978"
     inkscape:cx="289.2803"
     inkscape:cy="70.205269"
     inkscape:window-x="1920"
     inkscape:window-y="27"
     inkscape:window-maximized="1"
     inkscape:current-layer="ae37f038-3a9e-4b82-ad68-fc94ba16af2a"
     fit-margin-top="0"
     fit-margin-left="0"
     fit-margin-right="0"
     fit-margin-bottom="0"
     inkscape:document-rotation="0" />
  <defs
     id="defs1471">
    <linearGradient
       id="eb6c86d6-45fa-49e0-9a60-1b0612516196"
       x1="819.07001"
       y1="732.58002"
       x2="819.07001"
       y2="560.46002"
       gradientUnits="userSpaceOnUse">
      <stop
         offset="0"
         stop-color="gray"
         stop-opacity="0.25"
         id="stop1358" />
      <stop
         offset="0.54"
         stop-color="gray"
         stop-opacity="0.12"
         id="stop1360" />
      <stop
         offset="1"
         stop-color="gray"
         stop-opacity="0.1"
         id="stop1362" />
    </linearGradient>
    <pattern
       id="ad310e25-2b04-44c8-bb7b-982389166780"
       data-name="New Pattern 3"
       width="36.88"
       height="49.48"
       patternUnits="userSpaceOnUse"
       viewBox="0 0 36.88 49.48">
      <rect
         width="36.88"
         height="49.48"
         fill="none"
         id="rect1365" />
      <path
         d="M4.33,13.19c4.5,0,4.51-7,0-7s-4.52,7,0,7Z"
         id="path1367" />
      <path
         d="M4.51,17.16c4.51,0,4.52-7,0-7s-4.51,7,0,7Z"
         id="path1369" />
      <path
         d="M4.51,20.94c4.51,0,4.52-7,0-7s-4.51,7,0,7Z"
         id="path1371" />
      <path
         d="M3.38,24.72c4.51,0,4.51-7,0-7s-4.51,7,0,7Z"
         id="path1373" />
      <path
         d="M1.09,28.29l.2.38a3.52,3.52,0,0,0,4.78,1.25,3.58,3.58,0,0,0,1.26-4.79l-.19-.37A3.52,3.52,0,0,0,2.35,23.5a3.59,3.59,0,0,0-1.26,4.79Z"
         id="path1375" />
      <path
         d="M1.49,30.1l.18.57a3.73,3.73,0,0,0,1.61,2.09,3.59,3.59,0,0,0,2.7.35A3.54,3.54,0,0,0,8.42,28.8l-.18-.56a3.68,3.68,0,0,0-1.61-2.1,3.61,3.61,0,0,0-2.69-.35A3.56,3.56,0,0,0,1.49,30.1Z"
         id="path1377" />
      <path
         d="M1.58,33.88v.38a3.54,3.54,0,0,0,3.5,3.5,3.56,3.56,0,0,0,3.5-3.5v-.38a3.54,3.54,0,0,0-3.5-3.5,3.57,3.57,0,0,0-3.5,3.5Z"
         id="path1379" />
      <path
         d="M4.89,42.3c4.51,0,4.51-7,0-7s-4.51,7,0,7Z"
         id="path1381" />
      <path
         d="M1.77,42v.19a3.54,3.54,0,0,0,3.5,3.5,3.56,3.56,0,0,0,3.5-3.5V42a3.54,3.54,0,0,0-3.5-3.5A3.56,3.56,0,0,0,1.77,42Z"
         id="path1383" />
      <path
         d="M6,49.29c4.5,0,4.51-7,0-7s-4.52,7,0,7Z"
         id="path1385" />
      <path
         d="M10,14.14c4.5,0,4.51-7,0-7s-4.52,7,0,7Z"
         id="path1387" />
      <path
         d="M6.59,20.94c4.51,0,4.52-7,0-7s-4.51,7,0,7Z"
         id="path1389" />
      <path
         d="M8.48,27c4.51,0,4.51-7,0-7s-4.51,7,0,7Z"
         id="path1391" />
      <path
         d="M8.48,29.26c4.51,0,4.51-7,0-7s-4.51,7,0,7Z"
         id="path1393" />
      <path
         d="M14.91,33.79c4.5,0,4.51-7,0-7s-4.51,7,0,7Z"
         id="path1395" />
      <path
         d="M9.81,38.52c4.5,0,4.51-7,0-7s-4.52,7,0,7Z"
         id="path1397" />
      <path
         d="M10.56,45.13c4.51,0,4.51-7,0-7s-4.51,7,0,7Z"
         id="path1399" />
      <path
         d="M10.56,49.48c4.51,0,4.51-7,0-7s-4.51,7,0,7Z"
         id="path1401" />
      <path
         d="M12.83,18.12c2.57,0,2.58-4,0-4s-2.58,4,0,4Z"
         id="path1403" />
      <path
         d="M13,20.39c2.57,0,2.58-4,0-4s-2.58,4,0,4Z"
         id="path1405" />
      <path
         d="M13.1,21v.19a2,2,0,0,0,4,0V21a2,2,0,0,0-4,0Z"
         id="path1407" />
      <path
         d="M15.1,25.87c2.57,0,2.58-4,0-4s-2.58,4,0,4Z"
         id="path1409" />
      <path
         d="M16.61,11.07a1,1,0,0,0,0-2,1,1,0,0,0,0,2Z"
         id="path1411" />
      <path
         d="M21.71,16.55a1,1,0,0,0,0-2,1,1,0,0,0,0,2Z"
         id="path1413" />
      <path
         d="M16.85,8.94V8.56a1,1,0,0,0-2,0v.38a1,1,0,0,0,2,0Z"
         id="path1415" />
      <path
         d="M16.48,4.78V4.59a1,1,0,0,0-2,0v.19a1,1,0,0,0,2,0Z"
         id="path1417" />
      <path
         d="M15.48,2a1,1,0,0,0,0-2,1,1,0,0,0,0,2Z"
         id="path1419" />
      <path
         d="M10.56,2a1,1,0,0,0,0-2,1,1,0,0,0,0,2Z"
         id="path1421" />
      <path
         d="M10.37,4.65a1,1,0,0,0,0-2,1,1,0,0,0,0,2Z"
         id="path1423" />
      <path
         d="M7.35,6.16a1,1,0,0,0,0-2,1,1,0,0,0,0,2Z"
         id="path1425" />
      <path
         d="M11.88,7.1h.38a1,1,0,0,0,0-2h-.38a1,1,0,0,0,0,2Z"
         id="path1427" />
      <path
         d="M13.28,11l.57,1.32a1,1,0,0,0,1.37.36,1,1,0,0,0,.36-1.37L15,10a1,1,0,0,0-1.37-.36A1,1,0,0,0,13.28,11Z"
         id="path1429" />
      <path
         d="M18.44,19.33v.19a1,1,0,0,0,2,0v-.19a1,1,0,0,0-2,0Z"
         id="path1431" />
      <path
         d="M20.68,24.93l.19.38c.57,1.15,2.3.14,1.72-1l-.19-.38c-.57-1.15-2.3-.14-1.72,1Z"
         id="path1433" />
      <path
         d="M22.13,29.38a2.48,2.48,0,0,0-.84,1.86,1,1,0,0,0,2,0,.56.56,0,0,1,.25-.44,1,1,0,0,0,0-1.42,1,1,0,0,0-1.41,0Z"
         id="path1435" />
      <path
         d="M20.32,33.41l-.54,1.71c-.38,1.23,1.55,1.76,1.93.53l.54-1.71c.38-1.23-1.55-1.76-1.93-.53Z"
         id="path1437" />
      <path
         d="M19.44,37h-.19a1,1,0,0,0,0,2h.19a1,1,0,0,0,0-2Z"
         id="path1439" />
      <path
         d="M17.64,41.5l-.19.38c-.58,1.15,1.15,2.16,1.72,1l.19-.38c.58-1.15-1.15-2.16-1.72-1Z"
         id="path1441" />
      <path
         d="M15.8,47.87v.56a1,1,0,0,0,2,0v-.56a1,1,0,0,0-2,0Z"
         id="path1443" />
      <path
         d="M14.34,49.43a1,1,0,0,0,0-2,1,1,0,0,0,0,2Z"
         id="path1445" />
      <path
         d="M14.34,41.31a1,1,0,0,0,0-2,1,1,0,0,0,0,2Z"
         id="path1447" />
      <path
         d="M17.13,36.47a2,2,0,0,0,1-1.64,1,1,0,0,0-2,0c0-.13.19-.2,0-.08-1.15.58-.14,2.3,1,1.72Z"
         id="path1449" />
      <path
         d="M17.37,31.29a1,1,0,0,0,0-2,1,1,0,0,0,0,2Z"
         id="path1451" />
      <path
         d="M18.12,28.46a1,1,0,0,0,0-2,1,1,0,0,0,0,2Z"
         id="path1453" />
      <path
         d="M19,24.94l.19-.38c.58-1.15-1.15-2.16-1.72-1l-.19.38c-.58,1.15,1.15,2.16,1.72,1Z"
         id="path1455" />
      <path
         d="M17.93,16a1,1,0,0,0,0-2,1,1,0,0,0,0,2Z"
         id="path1457" />
      <path
         d="M24.64,16.05l.57.94a1,1,0,0,0,1.72-1L26.37,15a1,1,0,0,0-1.73,1Z"
         id="path1459" />
      <path
         d="M34.88,29.72v.19a1,1,0,0,0,2,0v-.19a1,1,0,0,0-2,0Z"
         id="path1461" />
      <path
         d="M24,39.23a1,1,0,0,0,0-2,1,1,0,0,0,0,2Z"
         id="path1463" />
      <path
         d="M22.85,29a1,1,0,0,0,0-2,1,1,0,0,0,0,2Z"
         id="path1465" />
      <path
         d="M18.24,21.9l.57-.56c.93-.89-.48-2.3-1.41-1.41l-.58.56c-.93.89.49,2.3,1.42,1.41Z"
         id="path1467" />
    </pattern>
    <linearGradient
       id="a964f849-fa65-4178-8cc4-fb8fb10b3617"
       x1="462.91"
       y1="660.67999"
       x2="462.91"
       y2="559.69"
       xlink:href="#eb6c86d6-45fa-49e0-9a60-1b0612516196"
       gradientTransform="translate(-264.8,-300.84999)" />
    <linearGradient
       inkscape:collect="always"
       xlink:href="#eb6c86d6-45fa-49e0-9a60-1b0612516196"
       id="linearGradient1830"
       gradientUnits="userSpaceOnUse"
       x1="819.07001"
       y1="732.58002"
       x2="819.07001"
       y2="560.46002"
       gradientTransform="translate(-316.44982,-373.92404)" />
  </defs>
  <title
     id="title1473">contact us</title>
  <circle
     cx="566.92999"
     cy="99.959999"
     r="99.959999"
     fill="#3f3d56"
     id="circle1633" />
  <path
     d="M 566.93,0.01000641 A 100,100 0 1 0 666.88,99.960006 100,100 0 0 0 566.93,0.01000641 Z m 0,186.62000359 A 86.67,86.67 0 1 1 653.6,99.960006 86.67,86.67 0 0 1 566.93,186.63001 Z"
     opacity="0.1"
     id="path1637" />
  <circle
     cx="337.28003"
     cy="251.79001"
     r="99.959999"
     fill="#3f3d56"
     id="circle1639" />
  <path
     d="m 336.02,151.84001 a 100,100 0 1 0 99.95,99.95 100,100 0 0 0 -99.95,-99.95 z m 0,186.62 a 86.67,86.67 0 1 1 86.67,-86.67 86.67,86.67 0 0 1 -86.67,86.67 z"
     opacity="0.1"
     id="path1645" />
  <circle
     cx="100.05"
     cy="177.13998"
     r="99.959999"
     fill="#3f3d56"
     id="circle1647" />
  <path
     d="M 100.05,77.150006 A 100,100 0 1 0 200,177.15001 100,100 0 0 0 100.05,77.150006 Z m 0,186.620004 a 86.67,86.67 0 1 1 86.67,-86.62 86.67,86.67 0 0 1 -86.67,86.66 z"
     opacity="0.1"
     id="path1651" />
  <path
     d="m 524.48018,229.95596 q -1.36,-3.32 -2.79,-6.62 a 19.65,19.65 0 0 0 -3.41,-5.89 6.24,6.24 0 0 0 -2,-1.5 8.53,8.53 0 0 0 -2.61,-0.52 20.83,20.83 0 0 0 -4.1,-0.11 c -0.53,-0.16 -1.13,-0.37 -1.72,-0.61 a 14.28,14.28 0 0 0 10.64,-13.25 c 0,-0.2 0,-0.41 0,-0.61 a 14.25,14.25 0 0 0 -14.19,-14.31 14,14 0 0 0 -7.45,2.13 13.37,13.37 0 0 0 -15,7.23 16.53,16.53 0 0 0 -5.1,12.3 c 0,0.21 0,0.43 0,0.63 0.26,7.77 5.28,14 11.62,14.63 a 6.66,6.66 0 0 0 -1.84,1.23 c -1.94,1.87 -2.26,4.84 -2.47,7.54 l -0.15,2 -3.36,1.2 a 0.62,0.62 0 0 0 -0.15,1.09 l 3.21,2.29 c 0,0.19 0,0.38 0,0.57 0,0.19 0,0.43 0.06,0.65 a 4.59,4.59 0 0 0 -1.24,1.77 8.18,8.18 0 0 0 -0.29,3.24 l 0.12,2.79 a 21.91,21.91 0 0 0 0.85,6.21 c 0.42,1.24 2.24,4.23 3.55,4.25 -1.21,5.5 -1.53,17.1 -1.53,17.1 -0.15,0.15 0.27,0.29 1,0.41 0.72,5.52 3.07,21 7.24,27.81 a 58.64,58.64 0 0 1 1.57,6.76 c 0,0 1.19,14.71 2.76,19.08 1.34,3.72 2.4,12.9 2.69,15.56 a 1.53,1.53 0 0 0 -1.11,1.14 c -0.79,2.38 -5.91,6 -5.91,6 a 24.76,24.76 0 0 0 -4.42,2.83 c -1.61,1.45 -1.55,2.76 5.6,1.94 13.8,-1.59 16.16,-6 16.16,-6 0,0 -0.22,-0.74 -0.55,-1.7 a 18.46,18.46 0 0 0 -1.81,-4.27 c -0.2,-0.19 -0.4,0.13 -0.64,0.63 a 85.63,85.63 0 0 1 -0.94,-19.31 c 0,0 0.39,-6.76 -1.58,-11.53 a 21.83,21.83 0 0 1 0,-7.55 c 0.79,-3.18 -3.15,-18.69 -3.15,-18.69 l -2.26,-11.42 a 3.28,3.28 0 0 1 0.63,1.33 l 0.06,0.23 0.06,0.33 a 0.62,0.62 0 0 0 0.16,0.31 c 1.54,6.4 5.76,24.13 5.76,26.73 0,3.18 3.94,11.13 3.94,11.13 0,0 1.57,13.12 4.33,18.28 2.1,3.93 2.15,9.69 2.05,12.23 v 0 c 0,0 -0.47,3.27 -1.26,4.06 a 9.66,9.66 0 0 0 -1.49,2.59 l -0.09,0.19 c 0,0 -1.18,2.39 -0.39,2.79 a 19.37,19.37 0 0 0 9.46,1.19 c 0,0 1.58,-2 1.58,-2.78 a 12.52,12.52 0 0 0 -0.18,-1.42 c -0.29,-1.88 -0.83,-4.84 -0.84,-4.87 0.33,-1.28 -1,-4.84 -1,-4.84 l -0.4,-11.13 a 51.38,51.38 0 0 0 -2.76,-22.27 c 0,0 -2,-7.15 -1.57,-9.14 0.43,-1.99 -0.79,-23.06 -0.79,-23.06 l -0.12,-0.3 a 22.78,22.78 0 0 1 0.12,-4.47 c 0.39,-4.77 -1.18,-14.71 -1.58,-15.1 a 13.1,13.1 0 0 1 -0.56,-3.29 c 0.09,-0.83 0.36,-3.26 0.73,-6.28 a 112.91,112.91 0 0 0 11.62,-1 1.45,1.45 0 0 0 1,-0.4 1.4,1.4 0 0 0 0.23,-0.81 c 0.46,-5.99 -1.73,-11.81 -4,-17.35 z m -7.93,12.61 c 0.41,-2.85 0.85,-5.61 1.29,-7.66 l 0.06,0.18 a 55.65,55.65 0 0 1 1.9,6.3 21.43,21.43 0 0 1 -3.25,1.18 z"
     fill="url(#eb6c86d6-45fa-49e0-9a60-1b0612516196)"
     id="path1653"
     style="fill:url(#linearGradient1830)" />
  <path
     d="m 485.92018,274.75596 c 0,0 2.36,21.23 7.47,29.48 a 57.21,57.21 0 0 1 1.57,6.68 c 0,0 1.18,14.54 2.75,18.86 1.57,4.32 2.75,16.12 2.75,16.12 0,0 5.5,6.28 7.47,1.18 a 82.82,82.82 0 0 1 -1.18,-20.44 c 0,0 0.39,-6.68 -1.57,-11.4 a 21.32,21.32 0 0 1 0,-7.46 c 0.78,-3.15 -3.15,-18.47 -3.15,-18.47 l -3.14,-15.33 z"
     fill="#be6f72"
     id="path1655" />
  <path
     d="m 510.68018,351.00596 c 0,0 -2.36,4.32 -16.11,5.89 -7.14,0.81 -7.19,-0.48 -5.58,-1.92 a 24.9,24.9 0 0 1 4.4,-2.8 c 0,0 5.11,-3.53 5.89,-5.89 0.78,-2.36 3.54,-0.39 3.54,-0.39 3.93,5.89 4.72,-1.58 5.5,-0.79 a 17.73,17.73 0 0 1 1.81,4.21 c 0.33,0.95 0.55,1.69 0.55,1.69 z"
     fill="#ff6f61"
     id="path1657" />
  <path
     d="m 510.68018,351.00596 c 0,0 -2.36,4.32 -16.11,5.89 -7.14,0.81 -7.19,-0.48 -5.58,-1.92 1.12,0.71 3.38,1 7.93,-0.83 6.55,-2.68 11.3,-4.23 13.21,-4.83 0.33,0.95 0.55,1.69 0.55,1.69 z"
     opacity="0.1"
     id="path1659" />
  <path
     d="m 506.75018,326.63596 c 0,0 0.39,-6.68 -1.57,-11.4 a 21.32,21.32 0 0 1 0,-7.46 c 0.78,-3.15 -3.15,-18.47 -3.15,-18.47 l -3.14,-15.33 -2.72,0.16 3.11,15.17 c 0,0 3.93,15.32 3.15,18.47 a 21.32,21.32 0 0 0 0,7.46 c 2,4.72 1.57,11.4 1.57,11.4 a 82.82,82.82 0 0 0 1.18,20.44 3.44,3.44 0 0 1 -1.14,1.62 c 1.46,0.66 3,0.63 3.89,-1.62 a 82.82,82.82 0 0 1 -1.18,-20.44 z"
     opacity="0.1"
     id="path1661" />
  <path
     d="m 504.19018,188.49596 a 14,14 0 0 0 -7.42,2.11 13.35,13.35 0 0 0 -15,7.15 16.28,16.28 0 0 0 -5.09,12.16 c 0,8.36 5.63,15.13 12.57,15.13 5,0 9.38,-3.56 11.39,-8.71 a 13.8,13.8 0 0 0 3.54,0.46 14.15,14.15 0 0 0 0,-28.3 z"
     fill="#3f3d56"
     id="path1663" />
  <path
     d="m 515.79018,276.72596 1.18,3.14 c 0,0 1.18,20.83 0.78,22.8 -0.4,1.97 1.58,9 1.58,9 a 50.31,50.31 0 0 1 2.75,22 l 0.39,11 c 0,0 1.57,4.32 0.79,5.11 -0.78,0.79 -6.71,-0.7 -6.71,-0.7 0,0 0.79,-8.25 -2,-13.36 -2.79,-5.11 -4.32,-18.08 -4.32,-18.08 0,0 -3.93,-7.86 -3.93,-11 0,-3.14 -6.29,-28.69 -6.29,-28.69 z"
     fill="#be6f72"
     id="path1665" />
  <path
     d="m 485.13018,276.33596 c 0,0 0.4,-14.15 2,-18.47 a 29.33,29.33 0 0 0 1.75,-6.27 c 0,0 23.79,4.3 25.76,2.73 0,0 0.39,5.5 0.79,5.89 0.4,0.39 2,10.22 1.57,14.94 -0.43,4.72 0,4.71 0,4.71 0,0 -16.12,2.36 -16.51,0 -0.39,-2.36 -1.57,-2.35 -1.57,-2.35 0,0 -14.57,-0.44 -13.79,-1.18 z"
     fill="#3f3d56"
     id="path1667" />
  <g
     opacity="0.1"
     id="g1677"
     transform="translate(-264.44982,-211.29405)">
    <path
       d="m 814.55,650.26 c 0,0 -9.94,-0.27 -12.94,-0.81 0,0.51 0,0.81 0,0.81 -0.78,0.78 13.76,1.18 13.76,1.18 a 1,1 0 0 1 0.54,0.22 c -0.53,-1.4 -1.36,-1.4 -1.36,-1.4 z"
       transform="translate(-52,-162.63)"
       id="path1669" />
    <path
       d="m 831.85,634.14 c -0.4,-0.39 -0.79,-5.89 -0.79,-5.89 a 1.69,1.69 0 0 1 -0.67,0.24 c 0.14,1.66 0.41,4.21 0.67,4.47 0.26,0.26 2,10.22 1.57,14.94 -0.43,4.72 0,4.71 0,4.71 0,0 -12.75,1.87 -15.84,0.62 0,0.17 0.09,0.36 0.12,0.56 0.39,2.36 16.51,0 16.51,0 0,0 -0.4,0 0,-4.71 0.4,-4.71 -1.18,-14.54 -1.57,-14.94 z"
       transform="translate(-52,-162.63)"
       id="path1671" />
    <path
       d="m 814.55,650.26 c 0,0 -9.94,-0.27 -12.94,-0.81 0,0.51 0,0.81 0,0.81 -0.78,0.78 13.76,1.18 13.76,1.18 a 1,1 0 0 1 0.54,0.22 c -0.53,-1.4 -1.36,-1.4 -1.36,-1.4 z"
       transform="translate(-52,-162.63)"
       fill="url(#ad310e25-2b04-44c8-bb7b-982389166780)"
       id="path1673" />
    <path
       d="m 831.85,634.14 c -0.4,-0.39 -0.79,-5.89 -0.79,-5.89 a 1.69,1.69 0 0 1 -0.67,0.24 c 0.14,1.66 0.41,4.21 0.67,4.47 0.26,0.26 2,10.22 1.57,14.94 -0.43,4.72 0,4.71 0,4.71 0,0 -12.75,1.87 -15.84,0.62 0,0.17 0.09,0.36 0.12,0.56 0.39,2.36 16.51,0 16.51,0 0,0 -0.4,0 0,-4.71 0.4,-4.71 -1.18,-14.54 -1.57,-14.94 z"
       transform="translate(-52,-162.63)"
       fill="url(#ad310e25-2b04-44c8-bb7b-982389166780)"
       id="path1675" />
  </g>
  <path
     d="m 502.45018,213.25596 a 5.21,5.21 0 0 0 1.5,1.94 3.36,3.36 0 0 0 1.41,0.61 c -0.88,0.51 -1.84,0.89 -2.72,1.4 a 48.36,48.36 0 0 0 -4,3 8.14,8.14 0 0 1 -4.59,1.78 5.62,5.62 0 0 0 0.64,-5.59 5.22,5.22 0 0 1 -0.7,-1.94 c 0,-1.13 1,-2 1.93,-2.6 0.75,-0.51 1.52,-1 2.3,-1.49 0.61,-0.38 1.53,-1.18 2.3,-1.15 0.77,0.03 0.86,0.71 1,1.41 a 11.09,11.09 0 0 0 0.93,2.63 z"
     fill="#be6f72"
     id="path1679" />
  <path
     d="m 502.45018,213.25596 a 5.21,5.21 0 0 0 1.5,1.94 3.36,3.36 0 0 0 1.41,0.61 c -0.88,0.51 -1.84,0.89 -2.72,1.4 a 48.36,48.36 0 0 0 -4,3 8.14,8.14 0 0 1 -4.59,1.78 5.62,5.62 0 0 0 0.64,-5.59 5.22,5.22 0 0 1 -0.7,-1.94 c 0,-1.13 1,-2 1.93,-2.6 0.75,-0.51 1.52,-1 2.3,-1.49 0.61,-0.38 1.53,-1.18 2.3,-1.15 0.77,0.03 0.86,0.71 1,1.41 a 11.09,11.09 0 0 0 0.93,2.63 z"
     opacity="0.1"
     id="path1681" />
  <circle
     cx="511.66016"
     cy="227.40594"
     r="9.04"
     fill="#be6f72"
     id="circle1683" />
  <path
     d="m 524.43018,355.71596 c 0,0.79 -1.57,2.75 -1.57,2.75 a 19.46,19.46 0 0 1 -9.43,-1.18 c -0.79,-0.39 0.39,-2.75 0.39,-2.75 l 0.09,-0.19 a 9.54,9.54 0 0 1 1.49,-2.56 c 0.78,-0.78 1.25,-4 1.25,-4 2.44,-4 6.77,1.73 6.77,1.73 0,0 0.55,3 0.84,4.82 0.1,0.65 0.17,1.18 0.17,1.38 z"
     fill="#ff6f61"
     id="path1685" />
  <path
     d="m 524.43018,355.71596 c 0,0.79 -1.57,2.75 -1.57,2.75 a 19.46,19.46 0 0 1 -9.43,-1.18 c -0.79,-0.39 0.39,-2.75 0.39,-2.75 l 0.09,-0.19 a 19,19 0 0 0 8.56,1.76 l 1.79,-1.79 c 0.1,0.67 0.17,1.2 0.17,1.4 z"
     opacity="0.1"
     id="path1687" />
  <circle
     cx="493.5802"
     cy="208.53592"
     r="8.8400002"
     fill="#be6f72"
     id="circle1689" />
  <path
     d="m 486.45018,226.21596 c -1.94,1.85 -2.26,4.78 -2.46,7.45 l -0.3,3.91 a 19.72,19.72 0 0 0 -0.07,3.17 c 0,0.65 0.16,1.31 0.22,2 0.06,0.69 0.08,1.56 0.09,2.35 v 5.78 a 6.82,6.82 0 0 0 0.64,3.47 2.36,2.36 0 0 0 3,1.08 3.42,3.42 0 0 0 1.24,-1.92 29.85,29.85 0 0 0 2,-7.32 c 0.08,-0.87 0.09,-1.74 0.17,-2.61 0.08,-0.87 0.23,-1.78 0.36,-2.66 0.56,-3.68 0.81,-7.4 1.06,-11.11 0.07,-1.1 1.06,-5.43 -0.38,-5.91 -0.7,-0.23 -2.15,0.49 -2.82,0.73 a 7.94,7.94 0 0 0 -2.75,1.59 z"
     fill="#be6f72"
     id="path1691" />
  <path
     d="m 486.45018,226.21596 c -1.94,1.85 -2.26,4.78 -2.46,7.45 l -0.3,3.91 a 19.72,19.72 0 0 0 -0.07,3.17 c 0,0.65 0.16,1.31 0.22,2 0.06,0.69 0.08,1.56 0.09,2.35 v 5.78 a 6.82,6.82 0 0 0 0.64,3.47 2.36,2.36 0 0 0 3,1.08 3.42,3.42 0 0 0 1.24,-1.92 29.85,29.85 0 0 0 2,-7.32 c 0.08,-0.87 0.09,-1.74 0.17,-2.61 0.08,-0.87 0.23,-1.78 0.36,-2.66 0.56,-3.68 0.81,-7.4 1.06,-11.11 0.07,-1.1 1.06,-5.43 -0.38,-5.91 -0.7,-0.23 -2.15,0.49 -2.82,0.73 a 7.94,7.94 0 0 0 -2.75,1.59 z"
     opacity="0.1"
     id="path1693" />
  <path
     d="m 504.78018,214.23596 c 0,0 -6.68,5.11 -10.61,6.29 0,0 -2.33,2.66 -2.73,3.3 -0.4,0.64 -1.2,7.7 -2,9.28 -0.8,1.58 -2.75,5.11 0,8.64 0,0 0.78,3.54 0.39,4.72 -0.39,1.18 -1.82,5.5 -0.52,5.7 1.3,0.2 5.24,2.94 8.77,2.16 3.53,-0.78 16.71,3 16.71,3 0,0 2.18,-20.25 3.76,-23.83 l -3.54,-1.18 c 0,0 -9.82,-5.89 -3.93,-14.93 -0.01,0 -5.53,-1.18 -6.3,-3.15 z"
     fill="#ff6f61"
     id="path1695" />
  <path
     d="m 480.39018,237.90596 8.12,5.75 a 0.6,0.6 0 0 0 0.71,0 l 2.2,-1.65 a 0.62,0.62 0 0 0 0,-0.94 l -6.25,-5.55 a 0.6,0.6 0 0 0 -0.61,-0.12 l -4.01,1.44 a 0.61,0.61 0 0 0 -0.16,1.07 z"
     fill="#3f3d56"
     id="path1697" />
  <path
     d="m 483.12018,255.22596 a 21.76,21.76 0 0 1 -0.85,-6.13 l -0.12,-2.77 a 8,8 0 0 1 0.29,-3.2 5.23,5.23 0 0 1 3.37,-2.95 11.64,11.64 0 0 1 4.59,-0.33 1.18,1.18 0 0 1 0.59,0.16 1.1,1.1 0 0 1 0.32,0.54 3.62,3.62 0 0 1 0.18,2.89 3,3 0 0 1 -0.92,0.95 c -1.09,0.78 -2.36,1.3 -3.39,2.15 a 1.23,1.23 0 0 0 -0.46,0.58 1.35,1.35 0 0 0 0,0.63 10.08,10.08 0 0 0 0.52,1.61 1.59,1.59 0 0 0 0.45,0.68 c 0.19,0.16 0.44,0.22 0.64,0.37 0.43,0.35 1.33,0.81 1.28,1.36 -0.15,2 -1.35,4.24 -1.82,6.22 -0.9,3.87 -4.09,-1.07 -4.67,-2.76 z"
     fill="#be6f72"
     id="path1699" />
  <g
     opacity="0.1"
     id="g1705"
     transform="translate(-264.44982,-211.29405)">
    <path
       d="m 812.2,628.25 h -0.22 a 6.73,6.73 0 0 0 2.57,0 h 0.25 a 9,9 0 0 0 -2.6,0 z"
       transform="translate(-52,-162.63)"
       id="path1701" />
    <path
       d="m 832.83,606.83 c -1.41,3.17 -3.49,20.34 -3.86,23.75 1.38,0.36 2.29,0.62 2.29,0.62 0,0 2.16,-20.2 3.74,-23.78 z"
       transform="translate(-52,-162.63)"
       id="path1703" />
  </g>
  <path
     d="m 511.97018,227.68596 a 3,3 0 0 0 1.29,1.95 17.31,17.31 0 0 1 2.29,2.32 16.43,16.43 0 0 1 2.27,4.55 55.75,55.75 0 0 1 1.89,6.22 c -5,2.32 -10.68,2.21 -16,3.74 a 12.77,12.77 0 0 0 -6,3.55 8.27,8.27 0 0 0 -2.21,6.51 0.85,0.85 0 0 0 0.12,0.39 0.84,0.84 0 0 0 0.7,0.28 6,6 0 0 0 3.67,-1.26 17.46,17.46 0 0 0 2.81,-2.76 4.52,4.52 0 0 1 2,-1.48 c 2.89,-0.88 6,-0.83 9,-0.88 a 113.42,113.42 0 0 0 13.41,-1.06 1.08,1.08 0 0 0 1.2,-1.2 c 0.44,-5.9 -1.75,-11.66 -4,-17.13 q -1.35,-3.29 -2.78,-6.55 a 19.4,19.4 0 0 0 -3.4,-5.82 6,6 0 0 0 -2,-1.48 8.46,8.46 0 0 0 -2.68,-0.5 19,19 0 0 0 -4.39,-0.08 9.36,9.36 0 0 0 -0.42,2.27 c 0.08,2.7 1.26,5.23 2.42,7.67 0.15,0.37 0.58,0.39 0.81,0.75 z"
     fill="#be6f72"
     id="path1707" />
  <path
     d="m 495.96018,232.74596 a 7.33,7.33 0 0 0 -1,3.82 5.14,5.14 0 0 0 0.25,1.56 5.06,5.06 0 0 0 3.19,3"
     fill="none"
     stroke="#000000"
     stroke-miterlimit="10"
     opacity="0.1"
     id="path1709" />
  <path
     d="m 501.05018,199.89596 a 4.59,4.59 0 0 0 -1.45,0.23 c -1.31,-2 -4.39,-3.38 -8,-3.38 -4.78,0 -8.65,2.47 -8.65,5.51 0,3.04 3.87,5.5 8.65,5.5 a 12.17,12.17 0 0 0 5.19,-1.1 4.71,4.71 0 1 0 4.24,-6.76 z"
     fill="#3f3d56"
     id="path1711" />
  <path
     d="m 501.44018,208.14596 a 4.7,4.7 0 0 1 -4.24,-2.67 12.17,12.17 0 0 1 -5.19,1.1 c -4.77,0 -8.64,-2.46 -8.64,-5.5 a 3.31,3.31 0 0 1 0,-0.55 3.73,3.73 0 0 0 -0.44,1.73 c 0,3 3.87,5.5 8.65,5.5 a 12.17,12.17 0 0 0 5.19,-1.1 4.71,4.71 0 0 0 8.87,-1.17 4.69,4.69 0 0 1 -4.2,2.66 z"
     opacity="0.1"
     id="path1713" />
  <path
     d="m 481.78018,200.07596 a 13.35,13.35 0 0 1 15,-7.15 14.14,14.14 0 0 1 21.52,10.86 c 0,-0.39 0,-0.78 0,-1.18 a 14.14,14.14 0 0 0 -21.57,-12 13.35,13.35 0 0 0 -15,7.15 16.28,16.28 0 0 0 -5.09,12.16 c 0,0.4 0,0.79 0,1.18 a 16,16 0 0 1 5.14,-11.02 z"
     opacity="0.1"
     id="path1715" />
  <path
     d="m 265.2,287.06001 a 9.81,9.81 0 0 0 -3.91,-7.92 11.5,11.5 0 0 0 -9.61,-11.28 11.48,11.48 0 0 0 -7.65,-8.55 v 0 a 9.76,9.76 0 0 0 -1.42,-0.33 h -0.14 -0.25 -0.2 -0.22 -0.27 -0.61 a 11.26,11.26 0 0 0 -10.88,9.62 c -3.51,-0.81 -6.72,0.24 -7.31,2.46 a 3,3 0 0 0 0.1,1.78 c 0.6,1.72 2.55,3.37 5.16,4.18 l 0.34,0.1 0.51,0.13 h 0.11 v 0 a 8.84,8.84 0 0 0 -0.84,3.79 8.74,8.74 0 0 0 4.71,7.8 l -0.23,0.14 a 3.12,3.12 0 0 0 -0.76,1.06 15.86,15.86 0 0 0 -1.47,3.54 c -0.25,1.06 -0.29,2.16 -0.6,3.21 -0.58,1.93 -2.06,3.56 -2.23,5.57 -0.08,0.9 0.07,2 -0.57,2.58 a 3.11,3.11 0 0 1 -0.51,0.36 4.13,4.13 0 0 0 -1.11,1.17 3.88,3.88 0 0 1 -0.78,1.12 c -0.58,0.43 -1.53,0.39 -1.81,1.06 -0.28,0.67 0.45,1.46 0.28,2.19 -0.17,0.73 -0.79,0.87 -1.24,1.28 a 4.45,4.45 0 0 0 -1.07,2 6.56,6.56 0 0 1 -5.4,-1.38 10.09,10.09 0 0 1 0.56,2 8.76,8.76 0 0 0 -2.91,-1.46 9.19,9.19 0 0 1 -3.1,-2.3 l 1.66,-0.23 -7.33,-11.19 -2.17,-0.45 1.94,3.73 a 1.19,1.19 0 0 0 -0.66,0.79 3.39,3.39 0 0 0 -0.07,1.27 22.73,22.73 0 0 0 0.5,3 l 0.56,2.62 c 0.05,0.24 0.11,0.49 0.18,0.73 a 6.89,6.89 0 0 0 -2.17,0.24 18.88,18.88 0 0 0 -4.51,-1.07 2.5,2.5 0 0 0 -1,0 2.59,2.59 0 0 0 -0.95,0.77 30.76,30.76 0 0 0 -3.35,4.72 c -4,6.86 -9.21,12.85 -14.14,19.05 -3.4,1.38 -6.83,2.69 -10.26,4 l -7.38,2.82 a 11.19,11.19 0 0 1 -4.58,1 c -0.7,0 -1.57,-0.15 -2,0.45 a 4.21,4.21 0 0 0 -0.45,1 l -0.76,0.08 v 0 a 8.74,8.74 0 0 0 -1.77,-3.26 1.12,1.12 0 0 0 -0.83,0.64 c -0.18,0.33 -0.29,0.69 -0.5,1 -0.39,0.58 -1.08,0.86 -1.57,1.35 -0.49,0.49 -0.8,1.25 -1.34,1.75 a 5.3,5.3 0 0 1 -2.51,1 15.84,15.84 0 0 0 -3.93,1.49 6.33,6.33 0 0 1 -1.45,0.67 5.45,5.45 0 0 1 -1.71,0.06 l -3.9,-0.29 a 3.08,3.08 0 0 0 -1.05,0.05 2,2 0 0 0 -1.24,2 3.15,3.15 0 0 0 1.24,2.15 7.94,7.94 0 0 0 2.22,1.15 65.15,65.15 0 0 0 10.4,3.08 v 0.79 a 17.75,17.75 0 0 0 8,1.9 1.24,1.24 0 0 0 0.6,-0.11 1.32,1.32 0 0 0 0.5,-0.78 32.17,32.17 0 0 0 1.56,-7.66 v 0 a 4,4 0 0 0 1.41,-0.36 c 1.34,-0.37 2.68,0.55 4.07,0.7 1.71,0.19 3.29,-0.81 4.91,-1.42 l 0.7,-0.23 a 7.68,7.68 0 0 1 -1.62,1.55 c -0.67,0.48 -1.42,0.84 -2.07,1.34 a 14.26,14.26 0 0 1 -1.76,1.36 11.05,11.05 0 0 1 -1.35,0.52 8.91,8.91 0 0 0 -1.93,1 3.91,3.91 0 0 0 -1.31,1.28 1.92,1.92 0 0 0 -0.11,1.8 1.9,1.9 0 0 0 1.29,0.9 5.29,5.29 0 0 0 1.59,0 c 2.12,-0.16 4.23,-0.35 6.34,-0.54 a 16.92,16.92 0 0 0 2.65,-0.38 c 0.46,-0.11 0.92,-0.26 1.38,-0.39 a 12.31,12.31 0 0 1 2.41,-0.36 2,2 0 0 1 0.7,0.07 c 0.49,0.16 0.84,0.66 1.34,0.76 a 2,2 0 0 0 1,-0.13 22.3,22.3 0 0 1 4.69,-0.5 c 0.69,0 1.5,-0.17 1.82,-0.81 0.32,-0.64 -0.26,-1.67 -0.52,-2.52 a 7.71,7.71 0 0 1 -0.22,-1.66 10.39,10.39 0 0 0 -1.16,-3.94 10.29,10.29 0 0 1 -0.87,-1.8 45.47,45.47 0 0 0 8.63,-4.38 15.43,15.43 0 0 1 4.92,-2.37 13.38,13.38 0 0 1 6.18,0.72 140.61,140.61 0 0 1 14.17,4.94 c 2.21,0.91 4.41,1.87 6.69,2.56 a 10.43,10.43 0 0 0 2.38,2.31 11,11 0 0 0 5.15,1.41 67.48,67.48 0 0 0 7.25,0.27 12.23,12.23 0 0 0 5.4,-1 5.55,5.55 0 0 0 1.13,-0.75 4.48,4.48 0 0 0 3.56,-1.31 8.63,8.63 0 0 0 2.71,-4.28 c 0.59,-2.28 0.14,-5 1.54,-6.82 0.37,-0.5 0.86,-0.9 1.23,-1.4 a 3.94,3.94 0 0 0 0.64,-2.31 0.47,0.47 0 0 1 0.06,-0.09 8.47,8.47 0 0 0 0.6,-2.3 13.14,13.14 0 0 1 0.65,-1.82 56.19,56.19 0 0 0 1.86,-5.39 31.49,31.49 0 0 0 0.86,-3.7 c 0.15,-1 0.24,-2 0.32,-3 a 18.63,18.63 0 0 1 0.91,-4.63 37.68,37.68 0 0 0 2.1,-11.08 v -0.22 a 7.43,7.43 0 0 0 6.58,-7.56 7.89,7.89 0 0 0 -0.69,-3.23 10,10 0 0 0 1.34,-5.04 z m -35.78,43.47 c 0.11,0.39 0.24,0.77 0.37,1.15 -0.59,-0.57 -1.16,-1.16 -1.75,-1.74 0.23,0.08 0.47,0.15 0.69,0.24 a 3.73,3.73 0 0 1 0.66,0.35 z m -2.83,-1.92 c -3.46,-3 -7.46,-5.33 -11,-8.24 1.93,0.95 3.81,2.06 5.67,3.12 q 3.31,1.89 6.71,3.63 a 5.49,5.49 0 0 1 -1.41,1.49 z m 1.47,-7.56 0.17,-0.17 c 0,0.43 0,0.82 0,1.19 l -0.93,-0.32 a 8.28,8.28 0 0 0 0.73,-0.7 z m -30.43,8.1 a 28.63,28.63 0 0 0 3.68,-5.25 c 1.37,2.39 3.6,4.12 5.49,6.13 -3.05,-0.39 -6.11,-0.72 -9.17,-0.88 z"
     fill="url(#a964f849-fa65-4178-8cc4-fb8fb10b3617)"
     id="path1753"
     style="fill:url(#a964f849-fa65-4178-8cc4-fb8fb10b3617)" />
  <polygon
     points="424.96,449.68 421.69,450.12 415.35,438.25 417.53,438.69 "
     fill="#2f2e41"
     id="polygon1755"
     transform="translate(-212.8,-138.21999)" />
  <path
     d="m 149.69,344.61001 a 42.78,42.78 0 0 0 2.18,5.67 54,54 0 0 0 7.25,-2.07 22.86,22.86 0 0 0 -1.51,-2 7.46,7.46 0 0 0 -2.05,-1.57 5.64,5.64 0 0 0 -2.49,0 c -1.12,-0.03 -2.25,-0.01 -3.38,-0.03 z"
     fill="#fbbebe"
     id="path1757" />
  <path
     d="m 155.57,347.54001 a 4.52,4.52 0 0 1 -2.48,-2.82 9.08,9.08 0 0 0 -1.89,-3.37 1.08,1.08 0 0 0 -0.84,0.63 c -0.18,0.32 -0.29,0.68 -0.49,1 -0.4,0.57 -1.1,0.85 -1.6,1.33 -0.5,0.48 -0.8,1.23 -1.34,1.72 a 5.32,5.32 0 0 1 -2.53,1 16.41,16.41 0 0 0 -4,1.47 6.9,6.9 0 0 1 -1.47,0.66 5.82,5.82 0 0 1 -1.72,0 l -3.94,-0.28 a 3.08,3.08 0 0 0 -1,0 1.91,1.91 0 0 0 -1.25,2 3,3 0 0 0 1.25,2.12 8.3,8.3 0 0 0 2.24,1.14 65.9,65.9 0 0 0 10.56,3 v 0.78 a 18.28,18.28 0 0 0 8.05,1.87 1.36,1.36 0 0 0 0.6,-0.1 1.32,1.32 0 0 0 0.5,-0.78 31.2,31.2 0 0 0 1.65,-8.56 6.82,6.82 0 0 0 -0.17,-2.21 c -0.22,-0.71 0.52,-0.41 -0.16,-0.69"
     fill="#2f2e41"
     id="path1759" />
  <path
     d="m 231.13,332.69001 c -11.68,0.7 -23.22,-2.72 -34.92,-3.08 a 17.05,17.05 0 0 0 -4.34,0.27 21.87,21.87 0 0 0 -4.3,1.67 c -6.27,2.92 -12.76,5.34 -19.24,7.75 l -7.45,2.77 a 11.28,11.28 0 0 1 -4.61,1 c -0.71,0 -1.58,-0.15 -2,0.44 -1.21,1.8 -0.64,4.43 0.16,6.45 0.26,0.65 0.7,1.36 1.4,1.43 a 4.07,4.07 0 0 0 1.42,-0.36 c 1.35,-0.36 2.7,0.55 4.1,0.7 1.72,0.18 3.32,-0.8 4.95,-1.4 2.7,-1 5.64,-1 8.48,-1.44 4.75,-0.79 9.16,-3 13.28,-5.51 a 15.5,15.5 0 0 1 4.95,-2.34 13.7,13.7 0 0 1 6.23,0.71 143,143 0 0 1 14.29,4.86 66.61,66.61 0 0 0 7.46,2.73 27,27 0 0 0 16.73,-1 c 1.87,-0.74 3.9,-2 4,-4.06 0.07,-1.15 -0.83,-2.16 -1.42,-3.15 -0.38,-0.63 -0.77,-1.26 -1.18,-1.87 -2,-2.9 -4.44,-6.78 -7.99,-6.57 z"
     fill="#2f2e41"
     id="path1761" />
  <path
     d="m 231.13,332.69001 c -11.68,0.7 -23.22,-2.72 -34.92,-3.08 a 17.05,17.05 0 0 0 -4.34,0.27 21.87,21.87 0 0 0 -4.3,1.67 c -6.27,2.92 -12.76,5.34 -19.24,7.75 l -7.45,2.77 a 11.28,11.28 0 0 1 -4.61,1 c -0.71,0 -1.58,-0.15 -2,0.44 -1.21,1.8 -0.64,4.43 0.16,6.45 0.26,0.65 0.7,1.36 1.4,1.43 a 4.07,4.07 0 0 0 1.42,-0.36 c 1.35,-0.36 2.7,0.55 4.1,0.7 1.72,0.18 3.32,-0.8 4.95,-1.4 2.7,-1 5.64,-1 8.48,-1.44 4.75,-0.79 9.16,-3 13.28,-5.51 a 15.5,15.5 0 0 1 4.95,-2.34 13.7,13.7 0 0 1 6.23,0.71 143,143 0 0 1 14.29,4.86 66.61,66.61 0 0 0 7.46,2.73 27,27 0 0 0 16.73,-1 c 1.87,-0.74 3.9,-2 4,-4.06 0.07,-1.15 -0.83,-2.16 -1.42,-3.15 -0.38,-0.63 -0.77,-1.26 -1.18,-1.87 -2,-2.9 -4.44,-6.78 -7.99,-6.57 z"
     opacity="0.1"
     id="path1763" />
  <path
     d="m 172.12,345.15001 q 2.74,0.93 5.53,1.72 c 1,-1.71 3,-2.9 3.43,-4.86 a 0.46,0.46 0 0 0 0,-0.26 0.48,0.48 0 0 0 -0.21,-0.19 10.48,10.48 0 0 0 -4.34,-1.27 c -1.2,-0.07 -1.75,1.18 -2.29,2.06 -0.21,0.39 -1.63,2.99 -2.12,2.8 z"
     fill="#fbbebe"
     id="path1765" />
  <path
     d="m 174.68,343.93001 a 4,4 0 0 1 -2.69,-1.77 c -0.25,-0.45 -0.53,-1.06 -1.05,-1 -0.52,0.06 -0.69,0.6 -0.8,1.07 a 30,30 0 0 1 -1.51,5.19 9.74,9.74 0 0 1 -3.23,4.25 c -0.68,0.47 -1.43,0.82 -2.1,1.32 a 14.43,14.43 0 0 1 -1.77,1.34 10.51,10.51 0 0 1 -1.36,0.5 9.43,9.43 0 0 0 -1.94,1 3.85,3.85 0 0 0 -1.33,1.27 1.83,1.83 0 0 0 -0.1,1.77 1.89,1.89 0 0 0 1.29,0.88 5.44,5.44 0 0 0 1.61,0 c 2.13,-0.15 4.26,-0.34 6.39,-0.53 a 18.44,18.44 0 0 0 2.67,-0.37 l 1.39,-0.38 a 11.06,11.06 0 0 1 2.43,-0.36 1.89,1.89 0 0 1 0.71,0.07 c 0.49,0.16 0.84,0.65 1.35,0.75 a 2.26,2.26 0 0 0 1,-0.13 22.08,22.08 0 0 1 4.73,-0.49 c 0.7,0 1.52,-0.18 1.84,-0.8 0.4,-0.78 -0.26,-1.65 -0.53,-2.49 a 8,8 0 0 1 -0.22,-1.63 9.94,9.94 0 0 0 -1.17,-3.88 c -0.54,-1 -1.28,-2.1 -0.9,-3.16 a 3,3 0 0 0 0.36,-1.09 c -0.15,-1.72 -4.09,-1.11 -5.07,-1.33 z"
     fill="#2f2e41"
     id="path1767" />
  <path
     d="m 213.62,313.95001 a 9.12,9.12 0 0 1 -4.66,-4.62 c -0.19,-0.44 -0.35,-0.91 -0.54,-1.35 a 10.26,10.26 0 0 0 -2.78,-3.87 1.37,1.37 0 0 0 -1,-0.43 1.09,1.09 0 0 0 -0.75,0.81 3.09,3.09 0 0 0 -0.08,1.25 22.27,22.27 0 0 0 0.5,2.92 l 0.57,2.58 a 5.66,5.66 0 0 0 0.35,1.15 4,4 0 0 0 0.95,1.13 c 0.52,0.48 1.05,0.94 1.58,1.4 a 5.43,5.43 0 0 0 1,0.69 5.81,5.81 0 0 0 1.77,0.52 15.06,15.06 0 0 1 6.64,2.56 c 0,0 0,-1.73 0,-1.92 a 2.54,2.54 0 0 0 -0.5,-1.39 8.87,8.87 0 0 0 -3.05,-1.43 z"
     fill="#fbbebe"
     id="path1769" />
  <path
     d="m 213.62,313.95001 a 9.12,9.12 0 0 1 -4.66,-4.62 c -0.19,-0.44 -0.35,-0.91 -0.54,-1.35 a 10.26,10.26 0 0 0 -2.78,-3.87 1.37,1.37 0 0 0 -1,-0.43 1.09,1.09 0 0 0 -0.75,0.81 3.09,3.09 0 0 0 -0.08,1.25 22.27,22.27 0 0 0 0.5,2.92 l 0.57,2.58 a 5.66,5.66 0 0 0 0.35,1.15 4,4 0 0 0 0.95,1.13 c 0.52,0.48 1.05,0.94 1.58,1.4 a 5.43,5.43 0 0 0 1,0.69 5.81,5.81 0 0 0 1.77,0.52 15.06,15.06 0 0 1 6.64,2.56 c 0,0 0,-1.73 0,-1.92 a 2.54,2.54 0 0 0 -0.5,-1.39 8.87,8.87 0 0 0 -3.05,-1.43 z"
     opacity="0.1"
     id="path1771" />
  <ellipse
     cx="237.40001"
     cy="291.35001"
     rx="2.8399999"
     ry="2.8599999"
     fill="#2f2e41"
     id="ellipse1773" />
  <path
     d="m 235.64,289.63001 a 3.07,3.07 0 0 0 -2.24,0.32 3.11,3.11 0 0 0 -0.77,1.05 15.25,15.25 0 0 0 -1.48,3.48 c -0.25,1 -0.29,2.13 -0.61,3.16 -0.58,1.9 -2.07,3.51 -2.24,5.49 -0.08,0.89 0.07,1.93 -0.58,2.53 a 3.68,3.68 0 0 1 -0.51,0.37 3.84,3.84 0 0 0 -1.12,1.15 3.77,3.77 0 0 1 -0.79,1.09 c -0.58,0.43 -1.54,0.39 -1.82,1 -0.28,0.61 0.45,1.44 0.28,2.16 -0.17,0.72 -0.8,0.86 -1.25,1.26 a 4.37,4.37 0 0 0 -1.08,2 6.67,6.67 0 0 1 -5.44,-1.35 17.32,17.32 0 0 1 0.85,6.22 2.54,2.54 0 0 1 -0.5,1.92 34.64,34.64 0 0 1 6.67,1.16 4.6,4.6 0 0 0 2.91,0 4.86,4.86 0 0 0 1.34,-1.06 c 1.2,-1.22 2.46,-2.55 2.75,-4.24 a 24.91,24.91 0 0 0 0.05,-2.87 16.18,16.18 0 0 1 0.73,-3.49 41.53,41.53 0 0 0 1.27,-7.18 c 0.13,-1.5 1.43,-2.7 2.11,-4 1.28,-2.53 2.6,-5.16 2.69,-8 0.04,-0.92 -0.28,-2.07 -1.22,-2.17 z"
     fill="#2f2e41"
     id="path1775" />
  <path
     d="m 235.64,289.63001 a 3.07,3.07 0 0 0 -2.24,0.32 3.11,3.11 0 0 0 -0.77,1.05 15.25,15.25 0 0 0 -1.48,3.48 c -0.25,1 -0.29,2.13 -0.61,3.16 -0.58,1.9 -2.07,3.51 -2.24,5.49 -0.08,0.89 0.07,1.93 -0.58,2.53 a 3.68,3.68 0 0 1 -0.51,0.37 3.84,3.84 0 0 0 -1.12,1.15 3.77,3.77 0 0 1 -0.79,1.09 c -0.58,0.43 -1.54,0.39 -1.82,1 -0.28,0.61 0.45,1.44 0.28,2.16 -0.17,0.72 -0.8,0.86 -1.25,1.26 a 4.37,4.37 0 0 0 -1.08,2 6.67,6.67 0 0 1 -5.44,-1.35 17.32,17.32 0 0 1 0.85,6.22 2.54,2.54 0 0 1 -0.5,1.92 34.64,34.64 0 0 1 6.67,1.16 4.6,4.6 0 0 0 2.91,0 4.86,4.86 0 0 0 1.34,-1.06 c 1.2,-1.22 2.46,-2.55 2.75,-4.24 a 24.91,24.91 0 0 0 0.05,-2.87 16.18,16.18 0 0 1 0.73,-3.49 41.53,41.53 0 0 0 1.27,-7.18 c 0.13,-1.5 1.43,-2.7 2.11,-4 1.28,-2.53 2.6,-5.16 2.69,-8 0.04,-0.92 -0.28,-2.07 -1.22,-2.17 z"
     opacity="0.1"
     id="path1777" />
  <path
     d="m 232.98,335.15001 c -2.43,-1.16 -4.21,-3.31 -6.18,-5.16 -3.75,-3.53 -8.34,-6 -12.29,-9.33 -2.62,-2.19 -5,-4.74 -7.83,-6.58 a 19.57,19.57 0 0 0 -8.39,-2.93 2.23,2.23 0 0 0 -1,0 2.3,2.3 0 0 0 -0.95,0.75 30.22,30.22 0 0 0 -3.39,4.65 c -5,8.5 -12.11,15.64 -18,23.54 a 1.5,1.5 0 0 0 -0.29,0.56 1.39,1.39 0 0 0 0.22,0.87 l 1.2,2.34 c 0.67,1.32 1.75,2.85 3.19,2.59 a 3.49,3.49 0 0 0 1.67,-1.07 l 5.38,-5.15 5.64,-5.39 c 3.3,-3.15 6.66,-6.38 8.82,-10.42 1.68,2.92 4.67,4.83 6.71,7.5 0.78,1 1.42,2.13 2.12,3.21 1.11,1.72 2.38,3.34 3.64,5 l 6.47,8.25 a 12.38,12.38 0 0 0 3,3 11.45,11.45 0 0 0 5.19,1.39 68.59,68.59 0 0 0 7.31,0.26 12.6,12.6 0 0 0 5.45,-1 4.94,4.94 0 0 0 2.95,-4.39 6.44,6.44 0 0 0 -0.93,-2.73 c -2.34,-4.17 -5.36,-7.69 -9.71,-9.76 z"
     fill="#2f2e41"
     id="path1779" />
  <ellipse
     cx="239.15001"
     cy="293.32999"
     rx="2.1900001"
     ry="2.2"
     fill="#e8e8f0"
     id="ellipse1781" />
  <path
     d="m 238.67,291.68001 a 4.21,4.21 0 0 1 0.24,3.16 12.82,12.82 0 0 1 -1.41,2.91 13.85,13.85 0 0 1 -1.83,2.6 c 3.38,0.16 6.65,-1.16 9.62,-2.76 2.4,-1.29 4.79,-2.88 6.07,-5.29 a 2.8,2.8 0 0 1 -2.24,-0.42 8,8 0 0 1 -1.71,-1.59 l -1.69,-1.9 a 7.61,7.61 0 0 1 -1,-1.37 3.78,3.78 0 0 1 -0.45,-2.21 12.87,12.87 0 0 1 -2.24,1.86 c -1.21,0.79 -2.54,1.36 -3.76,2.14 -0.42,0.28 -1.38,0.72 -1.13,1.28 0.25,0.56 1.19,0.99 1.53,1.59 z"
     fill="#fbbebe"
     id="path1783" />
  <path
     d="m 238.67,291.68001 a 4.21,4.21 0 0 1 0.24,3.16 12.82,12.82 0 0 1 -1.41,2.91 13.85,13.85 0 0 1 -1.83,2.6 c 3.38,0.16 6.65,-1.16 9.62,-2.76 2.4,-1.29 4.79,-2.88 6.07,-5.29 a 2.8,2.8 0 0 1 -2.24,-0.42 8,8 0 0 1 -1.71,-1.59 l -1.69,-1.9 a 7.61,7.61 0 0 1 -1,-1.37 3.78,3.78 0 0 1 -0.45,-2.21 12.87,12.87 0 0 1 -2.24,1.86 c -1.21,0.79 -2.54,1.36 -3.76,2.14 -0.42,0.28 -1.38,0.72 -1.13,1.28 0.25,0.56 1.19,0.99 1.53,1.59 z"
     opacity="0.1"
     id="path1785" />
  <path
     d="m 238.71,292.01001 a 2.85,2.85 0 0 0 0,3.3 c 0.1,0.12 0.46,0.87 0.61,0.88 a 0.55,0.55 0 0 0 0.38,-0.2 25.1,25.1 0 0 0 2.14,-2.55 4.76,4.76 0 0 1 2.72,-1.78 5.88,5.88 0 0 1 3.75,1.17 3.56,3.56 0 0 1 1.29,1 3.49,3.49 0 0 1 0.42,1.43 68.9,68.9 0 0 1 0.38,9.09 35.82,35.82 0 0 1 -0.43,6.55 c -0.22,1.11 -0.54,2.2 -0.69,3.33 a 21.24,21.24 0 0 0 -0.14,3 v 4.18 a 11,11 0 0 0 0.16,2.29 c 0.2,0.91 0.63,1.76 0.92,2.65 a 17.33,17.33 0 0 1 0.61,3.13 l 0.57,4.32 c 0.18,1.36 0.32,2.85 -0.51,4 -0.37,0.49 -0.86,0.89 -1.24,1.38 -1.41,1.84 -1,4.47 -1.55,6.72 a 8.38,8.38 0 0 1 -2.74,4.2 4.53,4.53 0 0 1 -3.61,1.29 c -1.76,-0.33 -2.81,-2.16 -3.29,-3.89 -0.48,-1.73 -0.65,-3.61 -1.69,-5.07 a 13.45,13.45 0 0 0 -3.34,-2.79 5.77,5.77 0 0 1 -2.61,-3.39 c -0.11,-0.63 0,-1.28 -0.11,-1.92 a 4.53,4.53 0 0 0 -2.79,-3.67 c -0.9,-0.35 -2,-0.48 -2.52,-1.3 a 6.07,6.07 0 0 0 2.63,-3.53 18.13,18.13 0 0 0 0.64,-4.46 l 0.3,-5 c 0.14,-2.25 0.2,-4.47 1.19,-6.49 0.44,-0.9 1,-1.75 1.45,-2.64 a 28.66,28.66 0 0 0 1.55,-3.87 c 0.72,-2.06 1.44,-4.12 2.08,-6.2 a 11.68,11.68 0 0 1 1.14,-2.89 c 0.54,-0.94 1.32,-2.07 2.33,-2.27 z"
     fill="#e8e8f0"
     id="path1787" />
  <path
     d="m 227.56,324.65001 h 1.33 l 0.28,-2 a 4.17,4.17 0 0 1 0.28,-1.17 7,7 0 0 1 0.77,-1.12 c 1.3,-1.85 1.21,-4.3 1.53,-6.55 a 33.33,33.33 0 0 1 2.92,-8.56 l 2.58,-5.75 a 7.94,7.94 0 0 0 0.56,-1.47 8.82,8.82 0 0 0 0.16,-1.7 c 0,-0.89 0.28,-4.13 0.31,-5 0,-0.33 -0.73,-0.15 -0.88,-0.44 -0.32,-0.64 -0.76,1.09 -1.37,1.47 a 3.36,3.36 0 0 0 -1.19,1.74 c -0.56,1.44 -0.9,3 -1.42,4.43 a 9.05,9.05 0 0 1 -2.41,3.92 c -0.53,0.46 -1.14,0.83 -1.64,1.33 -1.6,1.58 -1.76,4.09 -1.81,6.35 -0.04,1.38 -0.3,14.52 0,14.52 z"
     fill="#2f2e41"
     id="path1789" />
  <path
     d="m 246.7,289.62001 a 4.54,4.54 0 0 0 -2.37,3.25 16.44,16.44 0 0 1 -1.2,4 c -1.62,2.82 -5.75,3.64 -6.9,6.69 a 12.3,12.3 0 0 0 -0.46,3.15 c -0.2,2.19 -0.92,4.3 -1.14,6.48 a 28.87,28.87 0 0 0 0.12,5.09 l 1.45,17.22 a 23,23 0 0 1 -0.43,7.58 7.3,7.3 0 0 0 4.34,-0.72 c 1.35,-0.62 2.59,-1.47 3.9,-2.19 2.24,-1.24 4.72,-2.11 6.69,-3.76 a 4.09,4.09 0 0 0 0.9,-1 8.65,8.65 0 0 0 0.6,-2.26 12.2,12.2 0 0 1 0.65,-1.78 52.45,52.45 0 0 0 1.88,-5.32 30.53,30.53 0 0 0 0.86,-3.64 c 0.16,-1 0.25,-2 0.33,-3 a 17.6,17.6 0 0 1 0.92,-4.55 36.65,36.65 0 0 0 2.11,-10.92 5.71,5.71 0 0 0 -0.11,-1.6 8.56,8.56 0 0 0 -0.88,-1.83 c -0.6,-1.13 -1,-2.37 -1.52,-3.52 a 17.31,17.31 0 0 0 -5.91,-6.21 c -1.16,-0.79 -2.52,-1.63 -3.83,-1.16 z"
     fill="#2f2e41"
     id="path1791" />
  <path
     d="m 216.49,317.72001 a 10.43,10.43 0 0 1 -2.75,-2.09 c -0.36,-0.42 -0.66,-0.89 -1,-1.31 a 6.81,6.81 0 0 0 -3.46,-2 16.9,16.9 0 0 0 -4,-0.39 7.26,7.26 0 0 0 -2.67,0.32 2.72,2.72 0 0 0 -1.77,1.9 3.15,3.15 0 0 0 1.35,2.8 6.36,6.36 0 0 0 2.69,1.3 21.5,21.5 0 0 0 2.43,0.29 c 4.78,0.5 9.05,3.1 13.24,5.47 q 5.52,3.14 11.26,5.84 a 23.4,23.4 0 0 0 0.19,-3.45 c 0,-0.86 -0.07,-2.18 -0.88,-2.69 a 17.66,17.66 0 0 0 -3.58,-1.07 56.34,56.34 0 0 1 -7.21,-2.92 c -1.32,-0.57 -2.59,-1.27 -3.84,-2 z"
     fill="#fbbebe"
     id="path1793" />
  <ellipse
     cx="237.40001"
     cy="282.13"
     rx="8.5200005"
     ry="8.5699997"
     fill="#fbbebe"
     id="ellipse1795" />
  <path
     d="m 249.13,299.33001 a 13.66,13.66 0 0 0 -1.65,3.09 c -1,2.16 -2.7,4 -3.53,6.29 -0.83,2.29 -0.84,5.23 -2.55,7.1 a 2.49,2.49 0 0 0 -0.75,1.08 5.16,5.16 0 0 1 -0.08,0.78 c -0.25,0.68 -1.36,0.71 -1.57,1.41 -0.06,0.2 0,0.42 -0.1,0.62 -0.17,0.45 -0.77,0.52 -1.16,0.79 -0.83,0.56 -0.66,1.86 -1.25,2.67 a 2.25,2.25 0 0 1 -2.13,0.75 7.5,7.5 0 0 1 -2.21,-0.83 2.13,2.13 0 0 0 -0.8,-0.25 1.65,1.65 0 0 0 -0.92,0.32 5.67,5.67 0 0 0 -2.3,4.85 15.84,15.84 0 0 0 1.32,5.43 2.18,2.18 0 0 0 0.43,0.81 1.91,1.91 0 0 0 2.12,0.16 10,10 0 0 1 2.07,-0.93 c 1.32,-0.24 2.61,0.67 3.95,0.59 a 5.49,5.49 0 0 0 2.66,-1.17 14.7,14.7 0 0 0 3.58,-3 c 0.58,-0.77 1,-1.64 1.52,-2.46 a 31.54,31.54 0 0 1 2.15,-2.87 l 4.92,-6 a 13.83,13.83 0 0 0 1.32,-1.82 12.83,12.83 0 0 0 1,-2.75 21.07,21.07 0 0 0 1,-4.89 18.79,18.79 0 0 0 -0.36,-4.1 14.49,14.49 0 0 0 -1,-3.91 c -1.07,-2.26 -3.67,-4.1 -5.68,-1.76 z"
     fill="#2f2e41"
     id="path1797" />
  <path
     d="m 266.25,288.15001 a 9.6,9.6 0 0 0 -3.94,-7.8 11.41,11.41 0 0 0 -9.69,-11.11 11.07,11.07 0 0 0 -21.81,0.59 c -3.54,-0.8 -6.78,0.24 -7.37,2.42 -0.59,2.18 1.91,5 5.64,6 a 10.51,10.51 0 0 0 3.62,0.36 11.08,11.08 0 0 0 7.62,4.75 11.37,11.37 0 0 0 8.32,8.58 9.55,9.55 0 0 0 2.57,3.55 c 0,0.27 0,0.55 0,0.83 a 7.21,7.21 0 1 0 14.42,0 7.7,7.7 0 0 0 -0.69,-3.19 9.64,9.64 0 0 0 1.31,-4.98 z"
     fill="#f86d70"
     id="path1799" />
  <path
     d="m 225.84,272.71001 c 0.59,-2.18 3.83,-3.22 7.37,-2.42 a 11.26,11.26 0 0 1 11,-9.48 h 0.73 a 10.84,10.84 0 0 0 -3.14,-0.47 11.26,11.26 0 0 0 -11,9.48 c -3.54,-0.8 -6.78,0.24 -7.37,2.42 -0.59,2.18 1.91,5 5.64,6 a 11,11 0 0 0 2.14,0.37 c -3.57,-1.07 -5.96,-3.67 -5.37,-5.9 z"
     opacity="0.1"
     id="path1801" />
  <path
     d="m 253.57,296.74001 a 7.52,7.52 0 0 1 0,-0.82 9.34,9.34 0 0 1 -2.57,-3.55 11.34,11.34 0 0 1 -8.32,-8.59 11.05,11.05 0 0 1 -7.63,-4.74 9.6,9.6 0 0 1 -2.13,-0.06 11.11,11.11 0 0 0 7.35,4.37 11.37,11.37 0 0 0 8.32,8.58 9.55,9.55 0 0 0 2.57,3.55 c 0,0.27 0,0.55 0,0.83 a 7.34,7.34 0 0 0 7.17,7.46 7.46,7.46 0 0 1 -4.76,-7.03 z"
     opacity="0.1"
     id="path1803" />
  <ellipse
     cx="19.600647"
     cy="371.38177"
     rx="1.3099999"
     ry="1.75"
     transform="rotate(-37.22)"
     fill="#fbbebe"
     id="ellipse1805" />
  <path
     d="m 157.73701,142.17043 -29.93,30.45 a 0.54,0.54 0 0 0 0,0.78 l 21,22.33 a 3.62,3.62 0 0 1 -2.55,6.17 3.64,3.64 0 0 1 -2.56,-1.06 l -20.89,-22.25 a 0.57,0.57 0 0 0 -0.8,0 l -5.09,5.14 a 22.37,22.37 0 0 1 -16,6.73 22.86,22.86 0 0 1 -16.279997,-6.92 l -4.89,-5 a 0.57,0.57 0 0 0 -0.8,0 l -20.84,22.2 a 3.61,3.61 0 0 1 -5.11,0 3.6,3.6 0 0 1 0,-5.11 l 20.92,-22.28 a 0.6,0.6 0 0 0 0,-0.78 l -29.93,-30.45 a 0.55,0.55 0 0 0 -0.94,0.39 v 60.93 a 8.92,8.92 0 0 0 8.89,8.89 h 97.869997 a 8.92,8.92 0 0 0 8.89,-8.89 v -60.88 a 0.55,0.55 0 0 0 -0.96,-0.39 z"
     fill="#5dc8cd"
     id="path1641-1" />
  <path
     d="m 100.88701,183.23043 a 15.14,15.14 0 0 0 10.92,-4.5 l 43.59,-44.37 a 8.7,8.7 0 0 0 -5.5,-2 H 51.957013 a 8.64,8.64 0 0 0 -5.5,2 l 43.6,44.37 a 15.08,15.08 0 0 0 10.829997,4.5 z"
     fill="#5dc8cd"
     id="path1643-5" />
  <path
     d="m 381.1748,282.75382 c -3.48,-3.48 -11.85,-8.73 -16,-10.69 -4.79,-2.3 -6.55,-2.26 -9.94,0.19 -2.82,2 -4.65,3.93 -7.89,3.22 -3.24,-0.71 -9.66,-5.55 -15.87,-11.74 -6.21,-6.19 -11.03,-12.57 -11.72,-15.86 -0.69,-3.29 1.21,-5.08 3.23,-7.9 2.44,-3.39 2.51,-5.15 0.19,-9.94 -2,-4.15 -7.19,-12.5 -10.7,-16 -3.51,-3.5 -4.27,-2.73 -6.19,-2 a 35.8,35.8 0 0 0 -5.67,3 c -3.48,2.33 -5.43,4.27 -6.8,7.19 -1.37,2.92 -2.92,8.34 5.05,22.53 a 125.69,125.69 0 0 0 22.1,29.47 v 0 0 a 125.88,125.88 0 0 0 29.57,22.14 c 14.18,8 19.61,6.41 22.53,5.05 2.92,-1.36 4.86,-3.29 7.18,-6.8 a 35.33,35.33 0 0 0 3,-5.67 c 0.66,-1.92 1.44,-2.7 -2.07,-6.19 z"
     fill="#5dc8cd"
     id="path1635" />
  <path
     d="m 625.11319,68.064862 -29.92999,30.45 a 0.54,0.54 0 0 0 0,0.78 l 20.99999,22.329998 a 3.62,3.62 0 0 1 -2.55,6.17 3.64,3.64 0 0 1 -2.56,-1.06 l -20.88999,-22.25 a 0.57,0.57 0 0 0 -0.8,0 l -5.09,5.14 a 22.37,22.37 0 0 1 -16,6.73 22.86,22.86 0 0 1 -16.28,-6.92 l -4.89,-5 a 0.57,0.57 0 0 0 -0.8,0 l -20.84,22.2 a 3.61,3.61 0 0 1 -5.11,0 3.6,3.6 0 0 1 0,-5.11 l 20.92,-22.279998 a 0.6,0.6 0 0 0 0,-0.78 l -29.93,-30.45 a 0.55,0.55 0 0 0 -0.94,0.39 v 60.929998 a 8.92,8.92 0 0 0 8.89,8.89 h 97.86999 a 8.92,8.92 0 0 0 8.89,-8.89 V 68.454862 a 0.55,0.55 0 0 0 -0.96,-0.39 z"
     fill="#5dc8cd"
     id="path1641" />
  <path
     d="m 568.2632,109.12486 a 15.14,15.14 0 0 0 10.92,-4.5 l 43.58999,-44.369998 a 8.7,8.7 0 0 0 -5.5,-2 H 519.3332 a 8.64,8.64 0 0 0 -5.5,2 l 43.6,44.369998 a 15.08,15.08 0 0 0 10.83,4.5 z"
     fill="#5dc8cd"
     id="path1643" />
</svg>
