<?xml version="1.0" encoding="UTF-8" standalone="no"?>
<svg
   xmlns:dc="http://purl.org/dc/elements/1.1/"
   xmlns:cc="http://creativecommons.org/ns#"
   xmlns:rdf="http://www.w3.org/1999/02/22-rdf-syntax-ns#"
   xmlns:svg="http://www.w3.org/2000/svg"
   xmlns="http://www.w3.org/2000/svg"
   xmlns:sodipodi="http://sodipodi.sourceforge.net/DTD/sodipodi-0.dtd"
   xmlns:inkscape="http://www.inkscape.org/namespaces/inkscape"
   id="78bf026f-5d34-4e97-88cf-29aa2cfb8006"
   data-name="Layer 1"
   width="899.66443"
   height="758.56482"
   viewBox="0 0 899.66441 758.56481"
   version="1.1"
   sodipodi:docname="interview.svg"
   inkscape:version="1.0 (9f2f71dc58, 2020-08-02)">
  <metadata
     id="metadata1586">
    <rdf:RDF>
      <cc:Work
         rdf:about="">
        <dc:format>image/svg+xml</dc:format>
        <dc:type
           rdf:resource="http://purl.org/dc/dcmitype/StillImage" />
        <dc:title>interview</dc:title>
      </cc:Work>
    </rdf:RDF>
  </metadata>
  <defs
     id="defs1584">
    <filter
       inkscape:collect="always"
       style="color-interpolation-filters:sRGB"
       id="filter1121"
       x="-0.0014303131"
       width="1.0028606"
       y="-0.0016963637"
       height="1.0033927">
      <feGaussianBlur
         inkscape:collect="always"
         stdDeviation="0.53616741"
         id="feGaussianBlur1123" />
    </filter>
  </defs>
  <sodipodi:namedview
     pagecolor="#ffffff"
     bordercolor="#666666"
     borderopacity="1"
     objecttolerance="10"
     gridtolerance="10"
     guidetolerance="10"
     inkscape:pageopacity="0"
     inkscape:pageshadow="2"
     inkscape:window-width="1920"
     inkscape:window-height="1005"
     id="namedview1582"
     showgrid="false"
     fit-margin-top="0"
     fit-margin-left="0"
     fit-margin-right="0"
     fit-margin-bottom="0"
     inkscape:zoom="1.0493428"
     inkscape:cx="357.58284"
     inkscape:cy="379.27476"
     inkscape:window-x="0"
     inkscape:window-y="40"
     inkscape:window-maximized="1"
     inkscape:current-layer="78bf026f-5d34-4e97-88cf-29aa2cfb8006"
     inkscape:document-rotation="0" />
  <title
     id="title1237">interview</title>
  <path
     d="M 382.74185,29.149756 C 346.17128,12.389756 307.52614,-1.6102436 268.07607,0.14975635 210.07102,2.7297564 154.38949,42.059756 127.12131,99.809756 103.98568,148.73976 101.13106,206.08976 91.16482,260.38976 c -12.26488,66.89 -35.79883,130.48 -60.92605,192.65 -13.49302,33.4 -27.7328896,67.52 -29.94852957,104.13 -3.07037003,50.83 18.48028957,101.48 52.27922957,135.29 33.79894,33.81 78.68439,51.65 123.73581,55.54 23.97376,2.07 49.0263,0.15 70.31971,-12.43 22.52986,-13.31 38.95217,-37.36 61.57331,-50.48 20.96149,-12.16 45.48293,-13.86 69.01689,-12.28 a 327.48373,394.64 0 0 1 90.10283,21.6 c 32.89442,13.92 63.48192,34.09 96.26017,48.21 32.77825,14.12 69.48988,22 103.03157,10.22 31.53351,-11.07 56.42838,-37.95 78.87525,-65.17 a 958.60191,1155.18 0 0 0 100.59192,-143.39 c 20.2561,-34.21 39.1098,-70.3 48.0637,-110.17 17.1276,-76.23 -6.4395,-162.23 -58.7104,-214.29 -43.30882,-43.13 -101.43005,-61.85 -158.32313,-73.21 -51.88091,-10.36 -111.86925,-11 -159.62591,-38 C 471.94017,82.829756 430.49851,51.049756 382.74185,29.149756 Z"
     fill="#5dc8cd"
     opacity="0.1"
     id="path1239"
     style="stroke-width:0.91095;fill:#cccccc;opacity:1;filter:url(#filter1121)" />
  <polygon
     points="642.91,655.33 640.91,616.33 632.58,619 632.58,655.33 "
     fill="#aaabb0"
     id="polygon1241"
     transform="translate(-184.49217,-0.01024365)" />
  <polygon
     points="487.75,648 485.75,609 477.41,611.67 477.41,648 "
     fill="#aaabb0"
     id="polygon1243"
     transform="translate(-184.49217,-0.01024365)" />
  <rect
     x="460.08786"
     y="551.65973"
     width="13.33"
     height="64.669998"
     rx="6.6700001"
     ry="6.6700001"
     fill="#aaabb0"
     id="rect1245" />
  <rect
     x="289.08783"
     y="537.31976"
     width="13.33"
     height="79"
     rx="6.6700001"
     ry="6.6700001"
     fill="#aaabb0"
     id="rect1247" />
  <path
     d="m 490.42783,164.65976 c 0,0 13.33,-5.67 15.33,0 2,5.67 3,54.67 3,54.67 h -12.67 z"
     fill="#aaabb0"
     id="path1249" />
  <path
     d="m 344.42783,164.65976 c 0,0 -13.34,-5.67 -15.34,0 -2,5.67 -3,54.67 -3,54.67 h 12.67 z"
     fill="#aaabb0"
     id="path1251" />
  <polygon
     points="537.91,156.67 537.91,115 530.91,116 528.91,156.67 "
     fill="#aaabb0"
     id="polygon1253"
     transform="translate(-184.49217,-0.01024365)" />
  <path
     d="m 338.75783,219.32976 2.67,-58.67 c 0,0 -1,-13 30.66,-9 31.66,4 124.34,12 124.34,12 v 55.67 z"
     fill="#33323d"
     id="path1255" />
  <path
     d="m 465.42783,528.32976 -5,89.66 c 0,0 -73.34,40.67 -162.34,2 l 8,-94.33 z"
     fill="#33323d"
     id="path1257" />
  <polygon
     points="685.25,233.33 679.25,156.67 580.25,175.33 581.91,233.33 "
     fill="#444053"
     id="polygon1259"
     transform="translate(-184.49217,-0.01024365)" />
  <rect
     x="308.91785"
     y="489.98975"
     width="97.339996"
     height="123.33"
     fill="#4c4981"
     id="rect1261" />
  <path
     d="m 370.42783,540.32976 c 0,0 14,-11 16.33,-7.67 2.33,3.33 -8.32,17.67 -12.66,16 -4.34,-1.67 -3.67,-8.33 -3.67,-8.33 z"
     fill="#ffb9b9"
     id="path1263" />
  <rect
     x="120.01784"
     y="215.98976"
     width="638.96997"
     height="320"
     fill="#504f60"
     id="rect1265" />
  <path
     d="m 339.08783,113.65976 c 0,0 -5,-46.670004 0,-52.330004 5,-5.66 89,-59.3399996 166.67,3.66 0,0 7.33,0.34 6,17 a 200,200 0 0 0 0.16,31.670004 c 0,0 -167.16,12 -172.83,0 z"
     fill="#33323d"
     id="path1267" />
  <path
     d="m 339.08783,113.65976 c 0,0 -5,-46.670004 0,-52.330004 5,-5.66 89,-59.3399996 166.67,3.66 0,0 7.33,0.34 6,17 a 200,200 0 0 0 0.16,31.670004 c 0,0 -167.16,12 -172.83,0 z"
     opacity="0.1"
     id="path1269" />
  <path
     d="m 339.08783,119.65976 c 0,0 -5,-46.670004 0,-52.330004 5,-5.66 89,-59.3399996 166.67,3.66 0,0 7.33,0.34 6,17 a 200,200 0 0 0 0.16,31.670004 c 0,0 -167.16,12 -172.83,0 z"
     fill="#33323d"
     id="path1271" />
  <path
     d="m 514.75783,98.329756 c 0,0 5.33,20.000004 3.67,23.330004 -1.66,3.33 -1.36,12.67 -1.36,12.67 0,0 0.36,6 -2.31,6.66 -2.67,0.66 -5,1 -2.84,3 2.16,2 0,5 0,5 0,0 -1.17,4.67 0,7.67 1.17,3 -6.84,4.25 -6.16,8 0.68,3.75 2.92,14.33 0,14.67 -2.92,0.34 1,13.33 -1.63,13.33 -2.63,0 -4.5,23.33 -4.5,23.33 0,0 -18.5,-15.66 -30.83,-11.33 0,0 1,-13 5,-17.67 4,-4.67 2.79,-16.66 2.79,-16.66 l 19.84,-59.67 z"
     fill="#4c4981"
     id="path1273" />
  <path
     d="m 415.75783,374.10976 c -4.33,4.79 -9,-20.79 -9,-20.79 0,0 -12.33,17 -20.33,5.67 -5.54,-7.85 -1.17,-30.09 2,-43 1.42,-5.74 2.62,-9.64 2.62,-9.64 l 18,-3 c 0,0 0.06,3.92 0.46,8.68 0.54,6.43 1.71,14.41 4.2,16.32 4.39,3.31 6.39,40.93 2.05,45.76 z"
     fill="#ae6e79"
     id="path1275" />
  <path
     d="m 406.42783,74.659756 c 0,0 -31.34,-0.33 -39,16.33 -7.66,16.660004 -8,22.340004 -11,25.000004 -3,2.66 32.66,16.67 32.66,16.67 l 1.67,57.33 c 0,0 7,-7.09 18.33,-3.88 11.33,3.21 25.67,0 25.67,0 0,0 -0.67,-1.21 8.67,0 9.34,1.21 39,-14.45 39,-14.45 0,0 0.49,-25.08 -0.17,-30.42 -0.66,-5.34 21.16,-44.580004 21.16,-44.580004 0,0 17,-16.33 -0.66,-22 0,0 -6.25,-9.42 -22.33,-9.33 -16.08,0.09 -74,9.33 -74,9.33 z"
     opacity="0.1"
     id="path1277" />
  <path
     d="m 406.42783,73.659756 c 0,0 -31.34,-0.33 -39,16.33 -7.66,16.660004 -8,22.340004 -11,25.000004 -3,2.66 32.66,16.67 32.66,16.67 l 1.67,57.33 c 0,0 7,-7.09 18.33,-3.88 11.33,3.21 25.67,0 25.67,0 0,0 -0.67,-1.21 8.67,0 9.34,1.21 39,-14.45 39,-14.45 0,0 11.66,-19 11,-24.33 -0.66,-5.33 23.33,-45.67 23.33,-45.67 0,0 3.67,-21.330004 -14,-27.000004 0,0 -6.25,-9.42 -22.33,-9.33 -16.08,0.09 -74,9.33 -74,9.33 z"
     fill="#4c4981"
     id="path1279" />
  <path
     d="m 409.58783,311.99976 c -6.87,-2.14 -17.65,2.58 -21.08,4 1.42,-5.74 2.62,-9.64 2.62,-9.64 l 18,-3 c 0,0 0.03,3.92 0.46,8.64 z"
     opacity="0.1"
     id="path1281" />
  <path
     d="m 366.08783,114.98976 h -9.66 c 0,0 -2,20.34 0,26.34 2,6 3,5.13 2.33,9.57 -0.67,4.44 4.67,11.24 4.67,11.24 0,0 0.66,16.76 4,23 3.34,6.24 -3.67,34.22 -3.67,34.22 a 40.26,40.26 0 0 0 8.33,13 c 5.67,5.66 8.67,26.66 7,34.66 -1.67,8 4.67,11 4.67,11 0,0 2.67,37.34 3.67,37.34 1,0 20.33,-10 26.33,-1.34 l -4.67,-34.33 0.34,-66.33 c 0,0 -6.34,-8.34 -3,-15.67 3.34,-7.33 -2.67,-24.67 -2.67,-24.67 l -8.67,-38.66 z"
     fill="#4c4981"
     id="path1283" />
  <path
     d="m 306.08783,641.98976 c 0,0 -14,-3 -14.33,0 -0.33,3 -16.67,33.67 3.67,42.67 20.34,9 74.66,28.33 163,3.33 0,0 5.66,2 4.33,-10.33 -1.33,-12.33 -1.33,-26 -1.33,-26 0,0 -13.34,-3.67 -23.34,-2.33 -10,1.34 -97,19 -132,-7.34 z"
     fill="#33323d"
     id="path1285" />
  <path
     d="m 306.08783,641.98976 c 0,0 -14,-3 -14.33,0 -0.33,3 -16.67,33.67 3.67,42.67 20.34,9 74.66,28.33 163,3.33 0,0 5.66,2 4.33,-10.33 -1.33,-12.33 -1.33,-26 -1.33,-26 0,0 -13.34,-3.67 -23.34,-2.33 -10,1.34 -97,19 -132,-7.34 z"
     opacity="0.1"
     id="path1287" />
  <path
     d="m 306.08783,637.98976 c 0,0 -14,-3 -14.33,0 -0.33,3 -16.67,33.67 3.67,42.67 20.34,9 74.66,28.33 163,3.33 0,0 5.66,2 4.33,-10.33 -1.33,-12.33 -1.33,-26 -1.33,-26 0,0 -13.34,-3.67 -23.34,-2.33 -10,1.34 -97,19 -132,-7.34 z"
     fill="#33323d"
     id="path1289" />
  <path
     d="m 387.72783,126.96976 c -0.86,4.89 -2.81,9.59 -3.11,14.54 -0.3,4.95 1.61,10.58 6.18,12.52 a 20.83,20.83 0 0 1 3.69,1.5 c 1.76,1.19 2.48,3.43 2.85,5.53 a 30.2,30.2 0 0 1 0.35,8.22 c -0.25,2.76 -0.84,5.73 0.52,8.14 2.39,4.27 8.62,3.64 13.36,2.44 l -1.63,12.63 c -0.13,1 -0.21,2.13 0.52,2.81 a 3.15,3.15 0 0 0 2.4,0.52 c 4.12,-0.26 8.36,-0.83 11.89,-3 3.53,-2.17 6.16,-6.21 5.49,-10.28 -0.78,-4.72 -5.66,-8.47 -5,-13.21 0.51,-3.67 4.1,-6 6.46,-8.82 4.27,-5.16 4.5,-13 1.15,-18.84 -3.35,-5.84 -9.82,-9.46 -16.48,-10.12 -3.69,-0.37 -7.53,0.08 -11,-1.2 a 8.34,8.34 0 0 1 -5.1,-5.38"
     fill="#444053"
     id="path1291" />
  <path
     d="m 271.42783,571.65976 3.49,-7.6 c 0,0 18.84,-17.55 23.17,-18.78 4.33,-1.23 22,-6.59 24.67,-6.59 2.67,0 51.34,-2.67 51.34,-2.67 l 5.66,13.34 -61.08,13.41 -20.59,15 z"
     fill="#767d9f"
     id="path1293" />
  <path
     d="m 418.17783,366.98976 -3.19,24.55 -1.23,9.45 -14.33,2 c 0,0 -1.55,-3.32 -3.74,-8.42 -6.65,-15.48 -19.17,-47.4 -11.91,-52.91 9.65,-7.34 12,17 12,17 l 11,-5.34 z"
     fill="#ffb9b9"
     id="path1295" />
  <rect
     x="343.41782"
     y="412.65976"
     width="72.370003"
     height="109.33"
     fill="#ffffff"
     id="rect1297" />
  <rect
     x="343.41782"
     y="412.65976"
     width="72.370003"
     height="109.33"
     opacity="0.1"
     id="rect1299" />
  <rect
     x="432.34329"
     y="348.5098"
     width="72.370003"
     height="109.33"
     transform="rotate(8.41)"
     fill="#ffffff"
     id="rect1301" />
  <rect
     x="440.51874"
     y="357.72787"
     width="37.25"
     height="56.27"
     transform="rotate(8.41)"
     fill="#5dc8cd"
     id="rect1303" />
  <rect
     x="438.92746"
     y="430.24643"
     width="45.130001"
     height="12.22"
     transform="rotate(8.41)"
     fill="#5dc8cd"
     id="rect1305" />
  <circle
     cx="434.75784"
     cy="94.989754"
     r="41.830002"
     opacity="0.1"
     id="circle1307" />
  <circle
     cx="434.75784"
     cy="93.989754"
     r="41.830002"
     fill="#ae6e79"
     id="circle1309" />
  <path
     d="m 400.26783,124.98976 a 4.76,4.76 0 0 1 0.29,-3.23 c 1.59,-3.31 6.12,-3.6 9.79,-3.43 8.63,0.4 18.1,0.45 24.85,-5 2.8,-2.24 5.93,-7.87 10,-6.8 3.62,0.95 5.13,5.86 8.9,6.95 2.73,0.79 5.56,-0.47 8.34,-1 4,-0.79 8.1,-0.13 12.16,-0.1 4.06,0.03 8.47,-0.74 11.24,-3.71 3.74,-4 3.13,-10.250004 2.8,-15.730004 a 84.69,84.69 0 0 1 1.43,-21.14 c 1.36,-6.92 3.45,-14.66 -0.37,-20.59 -3.64,-5.65 -11.18,-7.2 -16.33,-11.53 -4.82,-4 -7.37,-10.41 -12.46,-14.12 -6.41,-4.67 -15.12,-4 -23,-3.19 l -17.1,1.82 c -4.41,0.47 -9,1 -12.63,3.63 -6.55,4.74 -7.45,14.59 -13.65,19.78 -2.76,2.3 -6.29,3.44 -9.44,5.16 -3.15,1.72 -6.19,4.44 -6.55,8 -0.3,3 1.32,5.77 2.11,8.66 1.87,6.9 -1.05,14 -2.92,20.95 -1.87,6.95 -2.23,15.390004 3.2,20.000004 1.1,0.94 2.38,1.66 3.45,2.64 3.67,3.35 4.17,9 3.32,13.88"
     fill="#444053"
     id="path1311" />
  <ellipse
     cx="438.16782"
     cy="143.73976"
     rx="1"
     ry="2.5"
     fill="#444053"
     id="ellipse1313" />
  <ellipse
     cx="438.16782"
     cy="154.15976"
     rx="1"
     ry="2.5"
     fill="#444053"
     id="ellipse1315" />
  <path
     d="m 415.98783,374.03976 c 1.07,-1.23 1.78,-4.39 2.19,-8.56 l -11.92,-14.86 c 0,0 5.05,28.81 9.73,23.42 z"
     fill="#ae6e79"
     id="path1317" />
  <path
     d="m 429.42783,619.65976 c 0,0 -19.56,30.24 -80.67,27 -57.57,-3 -85.67,-31.33 -84.33,-41.33 1.34,-10 -3.67,-34.34 8.66,-41.34 7.15,-4.05 16.56,-1.65 23.2,1.09 a 13.1,13.1 0 0 0 13.77,-2.47 c 6.07,-5.47 17.39,-11.63 35.26,-6.78 a 12.7,12.7 0 0 0 7,-0.13 c 7.44,-2.27 25.15,-6.21 38,2.54 a 13,13 0 0 0 13.92,0.53 l 0.18,-0.11 c 6,-3.67 34,31 34,31 0,0 1.34,26.67 -8.99,30 z"
     opacity="0.1"
     id="path1319" />
  <path
     d="m 429.42783,620.65976 c 0,0 -19.56,30.24 -80.67,27 -57.57,-3 -85.67,-31.33 -84.33,-41.33 1.34,-10 -3.67,-34.34 8.66,-41.34 7.15,-4.05 16.56,-1.65 23.2,1.09 a 13.1,13.1 0 0 0 13.77,-2.47 c 6.07,-5.47 17.39,-11.63 35.26,-6.78 a 12.7,12.7 0 0 0 7,-0.13 c 7.44,-2.27 25.15,-6.21 38,2.54 a 13,13 0 0 0 13.92,0.53 l 0.18,-0.11 c 6,-3.67 34,31 34,31 0,0 1.34,26.67 -8.99,30 z"
     fill="#767d9f"
     id="path1321" />
  <circle
     cx="348.75784"
     cy="592.65973"
     r="39.84"
     opacity="0.1"
     id="circle1323" />
  <circle
     cx="348.75784"
     cy="593.65973"
     r="39.84"
     fill="#ffb9b9"
     id="circle1325" />
  <path
     d="m 337.33783,559.21976 c -4.18,1.13 -8.3,3.29 -10.34,6.84 -1.23,2.14 -1.66,4.71 -3.44,6.49 -2.52,2.53 -6.77,2.58 -10.18,4 -3.41,1.42 -5.66,6.42 -2.32,8 -3.48,0.18 -6.06,3.39 -6.49,6.58 -0.43,3.19 0.78,6.37 1.95,9.41 3.82,9.84 7.93,20.11 16.35,27.11 13.72,11.42 34.4,10.89 52.83,9.68 a 8.64,8.64 0 0 0 4.33,-1 c 2,-1.32 2.25,-3.85 2.58,-6.07 1.39,-9.48 6.53,-18.09 9.89,-27.14 3.36,-9.05 4.74,-19.68 -0.92,-27.69 -8.33,-11.88 -40.22,-20.01 -54.24,-16.21 z"
     fill="#b96b6b"
     id="path1327" />
  <path
     d="m 414.98783,391.53976 -1.23,9.45 -14.33,2 c 0,0 -1.55,-3.32 -3.74,-8.42 l 19.07,-3.58 z"
     opacity="0.1"
     id="path1329" />
  <path
     d="m 430.08783,600.32976 8.34,-9.67 -1.67,-53.33 a 86.51,86.51 0 0 0 1.67,-11.67 c 0.33,-5.67 -4.17,-18.33 -4.17,-18.33 a 39.71,39.71 0 0 1 2.83,-7.34 c 2,-4 -2.82,-13 -2.82,-13 0,0 -7.18,-23.33 -4.18,-35 3,-11.67 -0.73,-18.33 -0.73,-18.33 0,0 -2.93,-13 -2.6,-18.33 0.33,-5.33 -6.67,-10.34 -6.67,-10.34 l -5.33,-13 -21.33,4 v 45 c 0,0 1.33,43 0,51.34 -1.33,8.34 2.66,16.33 2.66,16.33 0,0 -2.33,12.33 -0.33,17 2,4.67 6,16 6,16 a 26,26 0 0 0 0.67,12.16 c 2,5.84 0,9.17 0,9.17 z"
     fill="#767d9f"
     id="path1331" />
  <g
     opacity="0.1"
     id="g1341"
     transform="translate(-184.49217,-0.01024365)">
    <path
       d="M 732.51,139.23 A 84.66,84.66 0 0 0 731,157 a 85.07,85.07 0 0 1 1.55,-14.76 c 0.88,-4.44 2,-9.22 1.76,-13.65 a 83,83 0 0 1 -1.8,10.64 z"
       transform="translate(-57.92,-70.71)"
       id="path1333" />
    <path
       d="m 626.82,180.51 c -1.07,-1 -2.35,-1.7 -3.45,-2.65 -2.92,-2.49 -4.15,-6.1 -4.39,-10 -0.29,5 0.73,9.84 4.39,13 1.1,0.95 2.38,1.67 3.45,2.65 a 12.22,12.22 0 0 1 3.62,8.35 c 0.29,-4.2 -0.56,-8.57 -3.62,-11.35 z"
       transform="translate(-57.92,-70.71)"
       id="path1335" />
    <path
       d="m 623.63,143.17 a 18.85,18.85 0 0 0 -0.54,-6.29 c -0.58,-2.14 -1.62,-4.23 -2,-6.38 0,0.23 -0.08,0.47 -0.11,0.72 -0.29,3 1.33,5.77 2.11,8.66 a 17,17 0 0 1 0.54,3.29 z"
       transform="translate(-57.92,-70.71)"
       id="path1337" />
    <path
       d="m 728.28,176.1 c -2.77,3 -7.18,3.74 -11.24,3.71 -4.06,-0.03 -8.17,-0.69 -12.16,0.11 -2.78,0.56 -5.61,1.81 -8.34,1 -3.77,-1.09 -5.28,-6 -8.89,-6.95 -4.11,-1.08 -7.24,4.55 -10,6.79 -6.75,5.4 -16.22,5.35 -24.85,5 -3.67,-0.17 -8.2,0.12 -9.78,3.44 a 4.64,4.64 0 0 0 -0.29,3.23 l -12.22,1.92 a 23.71,23.71 0 0 1 -0.33,3 l 12.55,-2 a 4.64,4.64 0 0 1 0.29,-3.23 c 1.58,-3.32 6.11,-3.61 9.78,-3.44 8.63,0.4 18.1,0.45 24.85,-5 2.8,-2.24 5.93,-7.87 10,-6.79 3.61,0.94 5.12,5.86 8.89,6.95 2.73,0.78 5.56,-0.47 8.34,-1 4,-0.8 8.1,-0.14 12.16,-0.11 4.06,0.03 8.47,-0.74 11.24,-3.71 2.77,-2.97 3.17,-7.4 3,-11.72 -0.12,3.35 -0.81,6.45 -3,8.8 z"
       transform="translate(-57.92,-70.71)"
       id="path1339" />
  </g>
  <g
     opacity="0.1"
     id="g1351"
     transform="translate(-184.49217,-0.01024365)">
    <path
       d="m 635.71,224.13 a 20.23,20.23 0 0 0 -3.69,-1.5 9.55,9.55 0 0 1 -4.83,-4.94 c 0.75,3.45 2.65,6.59 5.83,7.94 a 20.23,20.23 0 0 1 3.69,1.5 5.54,5.54 0 0 1 1.77,2.07 c -0.4,-1.96 -1.13,-3.96 -2.77,-5.07 z"
       transform="translate(-57.92,-70.71)"
       id="path1343" />
    <path
       d="m 652.79,248.46 c -4.61,1.17 -10.63,1.78 -13.16,-2.13 a 6.87,6.87 0 0 0 0.8,2.69 c 2.16,3.85 7.44,3.72 11.93,2.77 z"
       transform="translate(-57.92,-70.71)"
       id="path1345" />
    <path
       d="m 671.47,251.2 c 0.64,4.06 -2,8.11 -5.5,10.24 -3.5,2.13 -7.77,2.72 -11.89,3 a 4.08,4.08 0 0 1 -1.94,-0.22 2.38,2.38 0 0 0 2.94,3.22 c 4.12,-0.26 8.36,-0.83 11.89,-3 3.53,-2.17 6.17,-6.21 5.49,-10.28 a 11.34,11.34 0 0 0 -0.99,-2.96 z"
       transform="translate(-57.92,-70.71)"
       id="path1347" />
    <path
       d="m 675.91,215 a 16.46,16.46 0 0 1 -3,14.15 c -2.36,2.86 -5.95,5.15 -6.46,8.82 a 8.33,8.33 0 0 0 1,4.87 6.5,6.5 0 0 1 0,-1.87 c 0.51,-3.67 4.1,-6 6.46,-8.82 3.88,-4.69 4.42,-11.6 2,-17.15 z"
       transform="translate(-57.92,-70.71)"
       id="path1349" />
  </g>
  <g
     opacity="0.1"
     id="g1357"
     transform="translate(-184.49217,-0.01024365)">
    <path
       d="m 555.8,648.81 c 3.4,-1.41 7.65,-1.46 10.18,-4 1.78,-1.78 2.21,-4.35 3.44,-6.48 2,-3.56 6.15,-5.71 10.33,-6.84 14,-3.8 45.92,4.32 54.24,16.09 a 21.85,21.85 0 0 1 3.82,12.08 22.58,22.58 0 0 0 -3.81,-14.07 c -8.32,-11.77 -40.21,-19.89 -54.24,-16.09 -4.18,1.13 -8.3,3.28 -10.33,6.84 -1.23,2.13 -1.66,4.7 -3.44,6.48 -2.53,2.53 -6.78,2.58 -10.18,4 -2.59,1.07 -4.51,4.23 -3.81,6.35 a 6.88,6.88 0 0 1 3.8,-4.36 z"
       transform="translate(-57.92,-70.71)"
       id="path1353" />
    <path
       d="m 547,663.34 c 0.42,-3.2 3,-6.4 6.49,-6.58 a 2.66,2.66 0 0 1 -1.53,-1.71 7.77,7.77 0 0 0 -5,6.29 10.57,10.57 0 0 0 0,2.45 c 0.04,-0.15 0.04,-0.3 0.04,-0.45 z"
       transform="translate(-57.92,-70.71)"
       id="path1355" />
  </g>
  <rect
     x="425.41782"
     y="230.22977"
     width="91"
     height="118.67"
     fill="#ffffff"
     id="rect1359" />
  <rect
     x="425.41782"
     y="230.22977"
     width="91"
     height="118.67"
     opacity="0.1"
     id="rect1361" />
  <rect
     x="411.99963"
     y="327.19681"
     width="91"
     height="118.67"
     transform="rotate(-9.76)"
     fill="#ffffff"
     id="rect1363" />
  <rect
     x="419.90555"
     y="409.45395"
     width="21.379999"
     height="27.879999"
     transform="rotate(-9.76)"
     fill="#5dc8cd"
     id="rect1365" />
  <rect
     x="449.49155"
     y="409.44876"
     width="21.379999"
     height="27.879999"
     transform="rotate(-9.76)"
     fill="#5dc8cd"
     id="rect1367" />
  <rect
     x="423.13321"
     y="373.1265"
     width="74.975128"
     height="28.005178"
     transform="rotate(-9.7436413)"
     fill="#5dc8cd"
     id="rect1369"
     style="stroke-width:1.00449" />
  <rect
     x="422.63791"
     y="339.61716"
     width="74.975128"
     height="6.2479272"
     transform="rotate(-9.7436413)"
     fill="#5dc8cd"
     id="rect1371"
     style="stroke-width:1.00449" />
  <rect
     x="423.10938"
     y="351.19144"
     width="74.975128"
     height="6.2479272"
     transform="rotate(-9.7436413)"
     fill="#5dc8cd"
     id="rect1373"
     style="stroke-width:1.00449" />
  <path
     d="m 476.58783,197.98976 c 0,0 -41.83,42 -20.83,52.67 21,10.67 34.67,-35.5 34.67,-35.5 l 3.32,-10.5 z"
     fill="#ae6e79"
     id="path1375" />
  <path
     d="m 472.92783,194.27976 -5.17,11.42 c 0,0 25.5,3.58 30.83,11.29 l -3.16,-20.15 -3.75,-8.6 z"
     opacity="0.1"
     id="path1377" />
  <path
     d="m 473.92783,193.27976 -5.17,11.42 c 0,0 25.5,3.58 30.83,11.29 l -3.16,-20.15 -3.75,-8.6 z"
     fill="#4c4981"
     id="path1379" />
  <polygon
     points="812.99,403.98 813.81,403.91 813.91,403.34 812.78,403.26 812.23,403.64 "
     fill="#464a5f"
     id="polygon1381"
     transform="translate(-184.49217,-0.01024365)" />
  <polygon
     points="812.99,403.98 813.81,403.91 813.91,403.34 812.78,403.26 812.23,403.64 "
     opacity="0.1"
     id="polygon1383"
     transform="translate(-184.49217,-0.01024365)" />
  <polygon
     points="811.78,403.08 812.05,402.64 812.3,402.56 812.78,403.26 812.22,403.62 "
     fill="#9c9ca1"
     id="polygon1385"
     transform="translate(-184.49217,-0.01024365)" />
  <polygon
     points="811.78,403.08 812.05,402.64 812.3,402.56 812.78,403.26 812.22,403.62 "
     opacity="0.1"
     id="polygon1387"
     transform="translate(-184.49217,-0.01024365)" />
  <path
     d="m 726.71783,334.13976 -40.94,-59.13 a 4.87,4.87 0 0 0 -6.78,-1.25 l -91.26,62.64 a 4.89,4.89 0 0 0 -1.27,6.79 l 40.83,59.88 z"
     fill="#9c9ca1"
     id="path1389" />
  <path
     d="m 726.71783,334.13976 -40.94,-59.13 a 4.87,4.87 0 0 0 -6.78,-1.25 l -91.26,62.64 a 4.89,4.89 0 0 0 -1.27,6.79 l 40.83,59.88 z"
     opacity="0.1"
     id="path1391" />
  <path
     d="m 727.71783,334.27976 -40.94,-59.13 a 4.88,4.88 0 0 0 -6.79,-1.25 l -91.25,62.68 a 4.9,4.9 0 0 0 -1.28,6.79 l 40.83,59.91 z"
     fill="#9c9ca1"
     id="path1393" />
  <path
     d="m 761.93783,345.96976 -34,-10.92 -99.44,68.93 34.54,11.3 a 5.23,5.23 0 0 0 4.63,-0.7 l 94.55,-66.76 a 1,1 0 0 0 -0.28,-1.85 z"
     fill="#464a5f"
     id="path1395" />
  <path
     d="m 761.93783,345.96976 -34,-10.92 -99.44,68.93 34.54,11.3 a 5.23,5.23 0 0 0 4.63,-0.7 l 94.55,-66.76 a 1,1 0 0 0 -0.28,-1.85 z"
     opacity="0.1"
     id="path1397" />
  <path
     d="m 761.72783,345.27976 -34,-10.93 -99.44,68.93 34.54,11.28 a 5.19,5.19 0 0 0 4.63,-0.69 l 94.55,-66.76 a 1,1 0 0 0 -0.28,-1.83 z"
     fill="#464a5f"
     id="path1399" />
  <g
     opacity="0.1"
     id="g1487"
     transform="translate(-184.49217,-0.01024365)">
    <path
       d="m 954.07,402.36 -2.51,-3.6 a 1,1 0 0 0 -1.36,-0.25 l -3.73,2.49 a 1,1 0 0 0 -0.27,1.35 l 2.31,3.55 a 1,1 0 0 0 1.35,0.29 l 3.93,-2.47 a 1,1 0 0 0 0.28,-1.36 z"
       transform="translate(-57.92,-70.71)"
       id="path1401" />
    <path
       d="m 947.37,407 -2.52,-3.59 a 1,1 0 0 0 -1.36,-0.25 l -3.72,2.51 a 1,1 0 0 0 -0.28,1.35 l 2.31,3.55 a 1,1 0 0 0 1.35,0.3 l 3.94,-2.47 a 1,1 0 0 0 0.28,-1.4 z"
       transform="translate(-57.92,-70.71)"
       id="path1403" />
    <path
       d="m 940.33,411.87 -2.52,-3.59 a 1,1 0 0 0 -1.36,-0.25 l -3.73,2.51 a 1,1 0 0 0 -0.27,1.36 l 2.31,3.55 a 1,1 0 0 0 1.35,0.29 l 3.93,-2.47 a 1,1 0 0 0 0.29,-1.4 z"
       transform="translate(-57.92,-70.71)"
       id="path1405" />
    <path
       d="m 933.2,416.81 -2.52,-3.6 a 1,1 0 0 0 -1.35,-0.25 l -3.73,2.52 a 1,1 0 0 0 -0.27,1.35 l 2.31,3.55 a 1,1 0 0 0 1.34,0.3 l 3.94,-2.48 a 1,1 0 0 0 0.28,-1.39 z"
       transform="translate(-57.92,-70.71)"
       id="path1407" />
    <path
       d="m 926.08,421.74 -2.52,-3.59 a 1,1 0 0 0 -1.36,-0.25 l -3.72,2.51 a 1,1 0 0 0 -0.28,1.35 l 2.31,3.55 a 1,1 0 0 0 1.35,0.3 l 3.94,-2.48 a 1,1 0 0 0 0.28,-1.39 z"
       transform="translate(-57.92,-70.71)"
       id="path1409" />
    <path
       d="m 919.27,427.12 -3.13,-4.46 a 0.45,0.45 0 0 0 -0.63,-0.12 l -4.58,3.09 a 0.45,0.45 0 0 0 -0.13,0.63 l 2.87,4.41 a 0.46,0.46 0 0 0 0.63,0.14 l 4.84,-3 a 0.46,0.46 0 0 0 0.13,-0.69 z"
       transform="translate(-57.92,-70.71)"
       id="path1411" />
    <path
       d="M 912.15,432.05 909,427.59 a 0.46,0.46 0 0 0 -0.64,-0.12 l -4.58,3.09 a 0.46,0.46 0 0 0 -0.12,0.63 l 2.87,4.41 a 0.44,0.44 0 0 0 0.63,0.14 l 4.83,-3 a 0.45,0.45 0 0 0 0.16,-0.69 z"
       transform="translate(-57.92,-70.71)"
       id="path1413" />
    <path
       d="M 905.84,436.42 902.71,432 a 0.46,0.46 0 0 0 -0.63,-0.11 l -4.58,3.08 a 0.47,0.47 0 0 0 -0.13,0.64 l 2.87,4.41 a 0.47,0.47 0 0 0 0.63,0.14 l 4.84,-3 a 0.46,0.46 0 0 0 0.13,-0.74 z"
       transform="translate(-57.92,-70.71)"
       id="path1415" />
    <path
       d="m 898.78,441.3 -3.13,-4.46 a 0.46,0.46 0 0 0 -0.63,-0.11 l -4.58,3.08 a 0.46,0.46 0 0 0 -0.13,0.64 l 2.87,4.41 a 0.47,0.47 0 0 0 0.63,0.14 l 4.84,-3 a 0.47,0.47 0 0 0 0.13,-0.7 z"
       transform="translate(-57.92,-70.71)"
       id="path1417" />
    <path
       d="m 891.94,446 -3.13,-4.46 a 0.45,0.45 0 0 0 -0.63,-0.12 l -4.58,3.09 a 0.45,0.45 0 0 0 -0.13,0.63 l 2.87,4.41 a 0.46,0.46 0 0 0 0.63,0.14 l 4.84,-3 a 0.46,0.46 0 0 0 0.13,-0.69 z"
       transform="translate(-57.92,-70.71)"
       id="path1419" />
    <path
       d="m 885.1,450.78 -3.1,-4.47 a 0.46,0.46 0 0 0 -0.63,-0.11 l -4.58,3.08 a 0.46,0.46 0 0 0 -0.13,0.64 l 2.87,4.41 a 0.47,0.47 0 0 0 0.63,0.14 l 4.84,-3 a 0.46,0.46 0 0 0 0.1,-0.69 z"
       transform="translate(-57.92,-70.71)"
       id="path1421" />
    <path
       d="m 878.26,455.51 -3.13,-4.46 a 0.45,0.45 0 0 0 -0.63,-0.12 l -4.58,3.07 a 0.45,0.45 0 0 0 -0.13,0.63 l 2.87,4.41 a 0.46,0.46 0 0 0 0.63,0.14 l 4.84,-3 a 0.46,0.46 0 0 0 0.13,-0.67 z"
       transform="translate(-57.92,-70.71)"
       id="path1423" />
    <path
       d="m 949.57,395.85 -2.52,-3.6 A 1,1 0 0 0 945.69,392 l -3.69,2.52 a 1,1 0 0 0 -0.28,1.35 l 2.31,3.55 a 1,1 0 0 0 1.35,0.29 l 3.94,-2.47 a 1,1 0 0 0 0.25,-1.39 z"
       transform="translate(-57.92,-70.71)"
       id="path1425" />
    <path
       d="M 939.72,381.62 937.2,378 a 1,1 0 0 0 -1.35,-0.25 l -3.73,2.51 a 1,1 0 0 0 -0.28,1.35 l 2.31,3.55 a 1,1 0 0 0 1.35,0.3 l 3.94,-2.47 a 1,1 0 0 0 0.28,-1.37 z"
       transform="translate(-57.92,-70.71)"
       id="path1427" />
    <path
       d="m 942.86,400.49 -2.52,-3.59 a 1,1 0 0 0 -1.35,-0.25 l -3.73,2.51 a 1,1 0 0 0 -0.27,1.35 l 2.3,3.55 a 1,1 0 0 0 1.35,0.3 l 3.94,-2.47 a 1,1 0 0 0 0.28,-1.4 z"
       transform="translate(-57.92,-70.71)"
       id="path1429" />
    <path
       d="m 935.82,405.36 -2.52,-3.59 a 1,1 0 0 0 -1.36,-0.25 l -3.72,2.48 a 1,1 0 0 0 -0.28,1.36 l 2.31,3.55 a 1,1 0 0 0 1.35,0.29 l 3.94,-2.47 a 1,1 0 0 0 0.28,-1.37 z"
       transform="translate(-57.92,-70.71)"
       id="path1431" />
    <path
       d="m 928.69,410.3 -2.51,-3.6 a 1,1 0 0 0 -1.36,-0.25 l -3.73,2.55 a 1,1 0 0 0 -0.27,1.35 l 2.31,3.55 a 1,1 0 0 0 1.35,0.29 l 3.93,-2.47 a 1,1 0 0 0 0.28,-1.42 z"
       transform="translate(-57.92,-70.71)"
       id="path1433" />
    <path
       d="m 933.17,386.49 -2.52,-3.59 a 1,1 0 0 0 -1.35,-0.25 l -3.73,2.51 a 1,1 0 0 0 -0.28,1.35 l 2.31,3.55 a 1,1 0 0 0 1.35,0.3 l 3.94,-2.47 a 1,1 0 0 0 0.28,-1.4 z"
       transform="translate(-57.92,-70.71)"
       id="path1435" />
    <path
       d="m 926.13,391.37 -2.52,-3.6 a 1,1 0 0 0 -1.36,-0.25 l -3.72,2.48 a 1,1 0 0 0 -0.28,1.35 l 2.31,3.55 a 1,1 0 0 0 1.35,0.29 l 3.94,-2.47 a 1,1 0 0 0 0.28,-1.35 z"
       transform="translate(-57.92,-70.71)"
       id="path1437" />
    <path
       d="m 919,396.3 -2.52,-3.59 a 1,1 0 0 0 -1.35,-0.26 L 911.4,395 a 1,1 0 0 0 -0.27,1.35 l 2.31,3.55 a 1,1 0 0 0 1.35,0.3 l 3.93,-2.48 A 1,1 0 0 0 919,396.3 Z"
       transform="translate(-57.92,-70.71)"
       id="path1439" />
    <path
       d="m 921.57,415.23 -2.52,-3.59 a 1,1 0 0 0 -1.35,-0.26 l -3.7,2.52 a 1,1 0 0 0 -0.27,1.35 l 2.27,3.55 a 1,1 0 0 0 1.34,0.3 l 3.94,-2.48 a 1,1 0 0 0 0.29,-1.39 z"
       transform="translate(-57.92,-70.71)"
       id="path1441" />
    <path
       d="m 914.45,420.16 -2.52,-3.59 a 1,1 0 0 0 -1.36,-0.25 l -3.72,2.51 a 1,1 0 0 0 -0.28,1.35 l 2.31,3.55 a 1,1 0 0 0 1.35,0.3 l 3.94,-2.47 a 1,1 0 0 0 0.28,-1.4 z"
       transform="translate(-57.92,-70.71)"
       id="path1443" />
    <path
       d="m 907.64,425.54 -3.13,-4.46 a 0.45,0.45 0 0 0 -0.63,-0.12 l -4.58,3.09 a 0.45,0.45 0 0 0 -0.13,0.63 l 2.87,4.41 a 0.45,0.45 0 0 0 0.63,0.14 l 4.84,-3 a 0.46,0.46 0 0 0 0.13,-0.69 z"
       transform="translate(-57.92,-70.71)"
       id="path1445" />
    <path
       d="m 901.33,429.91 -3.13,-4.47 a 0.46,0.46 0 0 0 -0.63,-0.11 l -4.57,3.08 a 0.47,0.47 0 0 0 -0.13,0.64 l 2.87,4.41 a 0.47,0.47 0 0 0 0.63,0.14 l 4.84,-3 a 0.44,0.44 0 0 0 0.12,-0.69 z"
       transform="translate(-57.92,-70.71)"
       id="path1447" />
    <path
       d="m 894.27,434.79 -3.13,-4.46 a 0.46,0.46 0 0 0 -0.63,-0.11 l -4.58,3.08 a 0.45,0.45 0 0 0 -0.13,0.63 l 2.87,4.42 a 0.47,0.47 0 0 0 0.63,0.14 l 4.84,-3 a 0.47,0.47 0 0 0 0.13,-0.7 z"
       transform="translate(-57.92,-70.71)"
       id="path1449" />
    <path
       d="m 887.43,439.53 -3.13,-4.46 a 0.45,0.45 0 0 0 -0.63,-0.12 l -4.58,3.05 a 0.45,0.45 0 0 0 -0.13,0.63 l 2.87,4.41 a 0.46,0.46 0 0 0 0.63,0.14 l 4.84,-3 a 0.46,0.46 0 0 0 0.13,-0.65 z"
       transform="translate(-57.92,-70.71)"
       id="path1451" />
    <path
       d="M 931.13,398.59 928.61,395 a 1,1 0 0 0 -1.35,-0.25 l -3.73,2.52 a 1,1 0 0 0 -0.27,1.35 l 2.31,3.55 a 1,1 0 0 0 1.34,0.29 l 3.94,-2.47 a 1,1 0 0 0 0.28,-1.4 z"
       transform="translate(-57.92,-70.71)"
       id="path1453" />
    <path
       d="m 924,403.53 -2.52,-3.6 a 1,1 0 0 0 -1.36,-0.25 l -3.72,2.52 a 1,1 0 0 0 -0.28,1.35 l 2.31,3.55 a 1,1 0 0 0 1.35,0.3 l 3.94,-2.48 a 1,1 0 0 0 0.28,-1.39 z"
       transform="translate(-57.92,-70.71)"
       id="path1455" />
    <path
       d="m 916.89,408.46 -2.52,-3.59 a 1,1 0 0 0 -1.36,-0.25 l -3.73,2.51 a 1,1 0 0 0 -0.27,1.35 l 2.31,3.55 a 1,1 0 0 0 1.35,0.3 l 3.93,-2.48 a 1,1 0 0 0 0.29,-1.39 z"
       transform="translate(-57.92,-70.71)"
       id="path1457" />
    <path
       d="m 909.76,413.39 -2.52,-3.59 a 1,1 0 0 0 -1.35,-0.25 l -3.73,2.51 a 1,1 0 0 0 -0.27,1.35 l 2.31,3.59 a 1,1 0 0 0 1.34,0.3 l 3.94,-2.47 a 1,1 0 0 0 0.28,-1.44 z"
       transform="translate(-57.92,-70.71)"
       id="path1459" />
    <path
       d="m 903,418.77 -3.13,-4.46 a 0.45,0.45 0 0 0 -0.63,-0.12 l -4.58,3.09 a 0.46,0.46 0 0 0 -0.13,0.63 l 2.87,4.42 a 0.45,0.45 0 0 0 0.63,0.13 l 4.84,-3 a 0.46,0.46 0 0 0 0.13,-0.69 z"
       transform="translate(-57.92,-70.71)"
       id="path1461" />
    <path
       d="m 896.65,423.14 -3.13,-4.47 a 0.47,0.47 0 0 0 -0.64,-0.11 l -4.57,3.08 a 0.47,0.47 0 0 0 -0.13,0.64 l 2.87,4.41 a 0.46,0.46 0 0 0 0.63,0.14 l 4.84,-3 a 0.46,0.46 0 0 0 0.13,-0.69 z"
       transform="translate(-57.92,-70.71)"
       id="path1463" />
    <path
       d="m 889.59,428 -3.13,-4.47 a 0.47,0.47 0 0 0 -0.64,-0.11 l -4.58,3.08 a 0.48,0.48 0 0 0 -0.13,0.64 l 2.88,4.41 a 0.46,0.46 0 0 0 0.63,0.14 l 4.83,-3 a 0.45,0.45 0 0 0 0.14,-0.69 z"
       transform="translate(-57.92,-70.71)"
       id="path1465" />
    <path
       d="m 882.75,432.76 -3.13,-4.46 a 0.46,0.46 0 0 0 -0.64,-0.12 l -4.58,3.09 a 0.46,0.46 0 0 0 -0.12,0.63 l 2.87,4.41 a 0.44,0.44 0 0 0 0.63,0.14 l 4.83,-3 a 0.45,0.45 0 0 0 0.14,-0.69 z"
       transform="translate(-57.92,-70.71)"
       id="path1467" />
    <path
       d="m 880.59,444.26 -3.13,-4.46 a 0.46,0.46 0 0 0 -0.63,-0.11 l -4.58,3.08 a 0.45,0.45 0 0 0 -0.13,0.63 l 2.87,4.42 a 0.47,0.47 0 0 0 0.63,0.14 l 4.84,-3 a 0.47,0.47 0 0 0 0.13,-0.7 z"
       transform="translate(-57.92,-70.71)"
       id="path1469" />
    <path
       d="m 873.75,449 -3.13,-4.46 a 0.45,0.45 0 0 0 -0.63,-0.12 l -4.58,3.09 a 0.45,0.45 0 0 0 -0.13,0.63 l 2.87,4.41 a 0.46,0.46 0 0 0 0.63,0.14 l 4.84,-3 a 0.46,0.46 0 0 0 0.13,-0.69 z"
       transform="translate(-57.92,-70.71)"
       id="path1471" />
    <path
       d="m 884.49,420.66 -3,-4.2 a 0.62,0.62 0 0 0 -0.85,-0.15 l -4.32,2.91 a 0.61,0.61 0 0 0 -0.17,0.85 l 2.7,4.15 a 0.6,0.6 0 0 0 0.84,0.19 l 4.57,-2.87 a 0.62,0.62 0 0 0 0.23,-0.88 z"
       transform="translate(-57.92,-70.71)"
       id="path1473" />
    <path
       d="m 877.65,425.4 -2.95,-4.2 a 0.61,0.61 0 0 0 -0.85,-0.16 l -4.32,2.96 a 0.6,0.6 0 0 0 -0.17,0.84 l 2.7,4.16 a 0.62,0.62 0 0 0 0.84,0.19 l 4.57,-2.87 a 0.62,0.62 0 0 0 0.18,-0.92 z"
       transform="translate(-57.92,-70.71)"
       id="path1475" />
    <path
       d="m 870.81,430.14 -2.95,-4.21 a 0.62,0.62 0 0 0 -0.85,-0.15 l -4.32,2.91 a 0.61,0.61 0 0 0 -0.17,0.85 l 2.7,4.15 a 0.6,0.6 0 0 0 0.84,0.19 l 4.57,-2.87 a 0.61,0.61 0 0 0 0.18,-0.87 z"
       transform="translate(-57.92,-70.71)"
       id="path1477" />
    <path
       d="m 864.06,435 -3.13,-4.47 a 0.46,0.46 0 0 0 -0.63,-0.11 l -4.58,3.08 a 0.47,0.47 0 0 0 -0.13,0.64 l 2.87,4.41 a 0.47,0.47 0 0 0 0.63,0.14 l 4.84,-3 a 0.44,0.44 0 0 0 0.13,-0.69 z"
       transform="translate(-57.92,-70.71)"
       id="path1479" />
    <path
       d="M 945,388.85 942.29,385 a 1,1 0 0 0 -1.36,-0.24 l -10.58,7.41 a 1,1 0 0 0 -0.26,1.34 l 2.55,3.94 a 1,1 0 0 0 1.39,0.27 l 10.74,-7.51 a 1,1 0 0 0 0.23,-1.36 z"
       transform="translate(-57.92,-70.71)"
       id="path1481" />
    <path
       d="m 875.89,437.35 -3.32,-4.69 a 0.45,0.45 0 0 0 -0.64,-0.11 l -11.42,8 a 0.45,0.45 0 0 0 -0.12,0.62 l 3.12,4.83 a 0.46,0.46 0 0 0 0.65,0.13 L 875.77,438 a 0.47,0.47 0 0 0 0.12,-0.65 z"
       transform="translate(-57.92,-70.71)"
       id="path1483" />
    <path
       d="M 912.22,401.48 909.16,397 a 0.46,0.46 0 0 0 -0.63,-0.12 L 883.17,414 a 0.46,0.46 0 0 0 -0.13,0.63 l 3.13,4.8 a 0.46,0.46 0 0 0 0.65,0.13 l 25.28,-17.44 a 0.46,0.46 0 0 0 0.12,-0.64 z"
       transform="translate(-57.92,-70.71)"
       id="path1485" />
  </g>
  <path
     d="m 712.32783,331.75976 -2.52,-3.6 a 1,1 0 0 0 -1.36,-0.25 l -3.72,2.52 a 1,1 0 0 0 -0.28,1.35 l 2.31,3.55 a 1,1 0 0 0 1.35,0.3 l 3.94,-2.48 a 1,1 0 0 0 0.28,-1.39 z"
     fill="#464a5f"
     id="path1489" />
  <path
     d="m 705.58783,336.39976 -2.52,-3.59 a 1,1 0 0 0 -1.35,-0.25 l -3.73,2.51 a 1,1 0 0 0 -0.28,1.35 l 2.31,3.55 a 1,1 0 0 0 1.35,0.3 l 3.94,-2.47 a 1,1 0 0 0 0.28,-1.4 z"
     fill="#464a5f"
     id="path1491" />
  <path
     d="m 698.58783,341.27976 -2.52,-3.59 a 1,1 0 0 0 -1.36,-0.25 l -3.72,2.52 a 1,1 0 0 0 -0.28,1.35 l 2.31,3.55 a 1,1 0 0 0 1.35,0.29 l 3.94,-2.47 a 1,1 0 0 0 0.28,-1.4 z"
     fill="#464a5f"
     id="path1493" />
  <path
     d="m 691.44783,346.20976 -2.52,-3.6 a 1,1 0 0 0 -1.35,-0.25 l -3.73,2.52 a 1,1 0 0 0 -0.26,1.4 l 2.31,3.55 a 1,1 0 0 0 1.35,0.3 l 3.93,-2.48 a 1,1 0 0 0 0.27,-1.44 z"
     fill="#464a5f"
     id="path1495" />
  <path
     d="m 684.32783,351.13976 -2.52,-3.59 a 1,1 0 0 0 -1.35,-0.25 l -3.73,2.51 a 1,1 0 0 0 -0.27,1.35 l 2.3,3.55 a 1,1 0 0 0 1.35,0.3 l 3.94,-2.48 a 1,1 0 0 0 0.28,-1.39 z"
     fill="#464a5f"
     id="path1497" />
  <path
     d="m 677.51783,356.51976 -3.13,-4.46 a 0.45,0.45 0 0 0 -0.63,-0.12 l -4.58,3.09 a 0.45,0.45 0 0 0 -0.13,0.63 l 2.87,4.41 a 0.46,0.46 0 0 0 0.63,0.14 l 4.84,-3 a 0.46,0.46 0 0 0 0.13,-0.69 z"
     fill="#464a5f"
     id="path1499" />
  <path
     d="m 670.39783,361.44976 -3.13,-4.46 a 0.46,0.46 0 0 0 -0.64,-0.12 l -4.57,3.09 a 0.45,0.45 0 0 0 -0.13,0.63 l 2.87,4.42 a 0.45,0.45 0 0 0 0.63,0.13 l 4.84,-3 a 0.47,0.47 0 0 0 0.13,-0.69 z"
     fill="#464a5f"
     id="path1501" />
  <path
     d="m 664.08783,365.81976 -3.13,-4.47 a 0.46,0.46 0 0 0 -0.63,-0.11 l -4.58,3.04 a 0.47,0.47 0 0 0 -0.13,0.64 l 2.87,4.41 a 0.47,0.47 0 0 0 0.63,0.14 l 4.84,-3 a 0.46,0.46 0 0 0 0.13,-0.65 z"
     fill="#464a5f"
     id="path1503" />
  <path
     d="m 657.02783,370.70976 -3.13,-4.43 a 0.46,0.46 0 0 0 -0.63,-0.11 l -4.58,3.08 a 0.46,0.46 0 0 0 -0.13,0.64 l 2.87,4.41 a 0.47,0.47 0 0 0 0.63,0.14 l 4.84,-3 a 0.46,0.46 0 0 0 0.13,-0.73 z"
     fill="#464a5f"
     id="path1505" />
  <path
     d="m 650.18783,375.43976 -3.13,-4.46 a 0.45,0.45 0 0 0 -0.63,-0.12 l -4.58,3.09 a 0.45,0.45 0 0 0 -0.13,0.63 l 2.87,4.41 a 0.45,0.45 0 0 0 0.63,0.14 l 4.84,-3 a 0.46,0.46 0 0 0 0.13,-0.69 z"
     fill="#464a5f"
     id="path1507" />
  <path
     d="m 643.34783,380.17976 -3.13,-4.47 a 0.46,0.46 0 0 0 -0.63,-0.11 l -4.58,3.08 a 0.47,0.47 0 0 0 -0.13,0.64 l 2.87,4.41 a 0.47,0.47 0 0 0 0.63,0.14 l 4.84,-3 a 0.46,0.46 0 0 0 0.13,-0.69 z"
     fill="#464a5f"
     id="path1509" />
  <path
     d="m 636.50783,384.90976 -3.13,-4.46 a 0.45,0.45 0 0 0 -0.63,-0.12 l -4.58,3.09 a 0.45,0.45 0 0 0 -0.13,0.63 l 2.87,4.41 a 0.45,0.45 0 0 0 0.63,0.14 l 4.84,-3 a 0.46,0.46 0 0 0 0.13,-0.69 z"
     fill="#464a5f"
     id="path1511" />
  <path
     d="m 707.81783,325.27976 -2.52,-3.6 a 1,1 0 0 0 -1.35,-0.25 l -3.73,2.52 a 1,1 0 0 0 -0.27,1.35 l 2.3,3.55 a 1,1 0 0 0 1.35,0.3 l 3.94,-2.48 a 1,1 0 0 0 0.28,-1.39 z"
     fill="#464a5f"
     id="path1513" />
  <path
     d="m 697.96783,311.01976 -2.52,-3.59 a 1,1 0 0 0 -1.35,-0.25 l -3.73,2.51 a 1,1 0 0 0 -0.27,1.35 l 2.31,3.55 a 1,1 0 0 0 1.34,0.3 l 3.94,-2.47 a 1,1 0 0 0 0.28,-1.4 z"
     fill="#464a5f"
     id="path1515" />
  <path
     d="m 701.10783,329.88976 -2.52,-3.61 a 1,1 0 0 0 -1.35,-0.25 l -3.73,2.51 a 1,1 0 0 0 -0.27,1.35 l 2.31,3.55 a 1,1 0 0 0 1.34,0.3 l 3.94,-2.47 a 1,1 0 0 0 0.28,-1.38 z"
     fill="#464a5f"
     id="path1517" />
  <path
     d="m 694.06783,334.75976 -2.48,-3.59 a 1,1 0 0 0 -1.35,-0.25 l -3.73,2.51 a 1,1 0 0 0 -0.27,1.36 l 2.3,3.55 a 1,1 0 0 0 1.35,0.29 l 3.94,-2.47 a 1,1 0 0 0 0.24,-1.4 z"
     fill="#464a5f"
     id="path1519" />
  <path
     d="m 686.94783,339.69976 -2.52,-3.6 a 1,1 0 0 0 -1.36,-0.25 l -3.72,2.52 a 1,1 0 0 0 -0.28,1.35 l 2.31,3.55 a 1,1 0 0 0 1.35,0.3 l 3.94,-2.48 a 1,1 0 0 0 0.28,-1.39 z"
     fill="#464a5f"
     id="path1521" />
  <path
     d="m 691.41783,315.88976 -2.52,-3.61 a 1,1 0 0 0 -1.35,-0.25 l -3.73,2.51 a 1,1 0 0 0 -0.27,1.35 l 2.31,3.55 a 1,1 0 0 0 1.34,0.3 l 3.94,-2.47 a 1,1 0 0 0 0.28,-1.38 z"
     fill="#464a5f"
     id="path1523" />
  <path
     d="m 684.37783,320.76976 -2.52,-3.6 a 1,1 0 0 0 -1.35,-0.25 l -3.73,2.52 a 1,1 0 0 0 -0.28,1.35 l 2.31,3.55 a 1,1 0 0 0 1.35,0.3 l 3.94,-2.48 a 1,1 0 0 0 0.28,-1.39 z"
     fill="#464a5f"
     id="path1525" />
  <path
     d="m 677.25783,325.69976 -2.52,-3.59 a 1,1 0 0 0 -1.36,-0.25 l -3.72,2.51 a 1,1 0 0 0 -0.28,1.35 l 2.31,3.56 a 1,1 0 0 0 1.35,0.3 l 3.93,-2.48 a 1,1 0 0 0 0.29,-1.4 z"
     fill="#464a5f"
     id="path1527" />
  <path
     d="m 679.81783,344.62976 -2.52,-3.59 a 1,1 0 0 0 -1.35,-0.25 l -3.73,2.49 a 1,1 0 0 0 -0.27,1.35 l 2.31,3.55 a 1,1 0 0 0 1.34,0.3 l 3.94,-2.48 a 1,1 0 0 0 0.28,-1.37 z"
     fill="#464a5f"
     id="path1529" />
  <path
     d="m 672.69783,349.55976 -2.52,-3.59 a 1,1 0 0 0 -1.35,-0.25 l -3.73,2.56 a 1,1 0 0 0 -0.28,1.35 l 2.31,3.55 a 1,1 0 0 0 1.35,0.3 l 3.94,-2.47 a 1,1 0 0 0 0.28,-1.45 z"
     fill="#464a5f"
     id="path1531" />
  <path
     d="m 665.88783,354.93976 -3.13,-4.46 a 0.45,0.45 0 0 0 -0.63,-0.12 l -4.54,3.09 a 0.45,0.45 0 0 0 -0.13,0.63 l 2.87,4.41 a 0.45,0.45 0 0 0 0.63,0.14 l 4.84,-3 a 0.47,0.47 0 0 0 0.09,-0.69 z"
     fill="#464a5f"
     id="path1533" />
  <path
     d="m 659.58783,359.27976 -3.13,-4.47 a 0.47,0.47 0 0 0 -0.64,-0.11 l -4.58,3.08 a 0.48,0.48 0 0 0 -0.13,0.64 l 2.88,4.41 a 0.46,0.46 0 0 0 0.63,0.14 l 4.83,-3 a 0.45,0.45 0 0 0 0.14,-0.69 z"
     fill="#464a5f"
     id="path1535" />
  <path
     d="m 652.51783,364.19976 -3.13,-4.47 a 0.46,0.46 0 0 0 -0.63,-0.11 l -4.58,3.08 a 0.47,0.47 0 0 0 -0.13,0.64 l 2.87,4.41 a 0.47,0.47 0 0 0 0.63,0.14 l 4.84,-3 a 0.44,0.44 0 0 0 0.13,-0.69 z"
     fill="#464a5f"
     id="path1537" />
  <path
     d="m 645.68783,368.92976 -3.1,-4.46 a 0.45,0.45 0 0 0 -0.63,-0.12 l -4.58,3.09 a 0.46,0.46 0 0 0 -0.13,0.63 l 2.87,4.41 a 0.46,0.46 0 0 0 0.63,0.14 l 4.84,-3 a 0.45,0.45 0 0 0 0.1,-0.69 z"
     fill="#464a5f"
     id="path1539" />
  <path
     d="m 689.37783,327.99976 -2.51,-3.6 a 1,1 0 0 0 -1.36,-0.25 l -3.73,2.52 a 1,1 0 0 0 -0.27,1.35 l 2.31,3.55 a 1,1 0 0 0 1.35,0.29 l 3.93,-2.47 a 1,1 0 0 0 0.28,-1.39 z"
     fill="#464a5f"
     id="path1541" />
  <path
     d="m 682.25783,332.92976 -2.52,-3.59 a 1,1 0 0 0 -1.35,-0.26 l -3.73,2.52 a 1,1 0 0 0 -0.27,1.35 l 2.31,3.55 a 1,1 0 0 0 1.34,0.3 l 3.94,-2.48 a 1,1 0 0 0 0.28,-1.39 z"
     fill="#464a5f"
     id="path1543" />
  <path
     d="m 675.13783,337.85976 -2.55,-3.58 a 1,1 0 0 0 -1.36,-0.25 l -3.64,2.5 a 1,1 0 0 0 -0.28,1.35 l 2.31,3.55 a 1,1 0 0 0 1.35,0.3 l 3.94,-2.47 a 1,1 0 0 0 0.23,-1.4 z"
     fill="#464a5f"
     id="path1545" />
  <path
     d="m 668.00783,342.78976 -2.52,-3.59 a 1,1 0 0 0 -1.35,-0.25 l -3.73,2.51 a 1,1 0 0 0 -0.27,1.35 l 2.31,3.55 a 1,1 0 0 0 1.34,0.3 l 3.94,-2.47 a 1,1 0 0 0 0.28,-1.4 z"
     fill="#464a5f"
     id="path1547" />
  <path
     d="m 661.20783,348.16976 -3.13,-4.46 a 0.46,0.46 0 0 0 -0.64,-0.12 l -4.58,3.09 a 0.46,0.46 0 0 0 -0.13,0.63 l 2.87,4.42 a 0.46,0.46 0 0 0 0.64,0.13 l 4.83,-3 a 0.46,0.46 0 0 0 0.14,-0.69 z"
     fill="#464a5f"
     id="path1549" />
  <path
     d="m 654.89783,352.53976 -3.13,-4.46 a 0.45,0.45 0 0 0 -0.63,-0.12 l -4.55,3.08 a 0.47,0.47 0 0 0 -0.13,0.64 l 2.87,4.41 a 0.47,0.47 0 0 0 0.63,0.14 l 4.84,-3 a 0.46,0.46 0 0 0 0.1,-0.69 z"
     fill="#464a5f"
     id="path1551" />
  <path
     d="m 647.83783,357.42976 -3.13,-4.47 a 0.47,0.47 0 0 0 -0.64,-0.11 l -4.57,3.08 a 0.47,0.47 0 0 0 -0.13,0.64 l 2.87,4.41 a 0.46,0.46 0 0 0 0.63,0.14 l 4.84,-3 a 0.46,0.46 0 0 0 0.13,-0.69 z"
     fill="#464a5f"
     id="path1553" />
  <path
     d="m 640.99783,362.15976 -3.13,-4.46 a 0.46,0.46 0 0 0 -0.64,-0.12 l -4.57,3.09 a 0.45,0.45 0 0 0 -0.13,0.63 l 2.87,4.42 a 0.45,0.45 0 0 0 0.63,0.13 l 4.84,-3 a 0.47,0.47 0 0 0 0.13,-0.69 z"
     fill="#464a5f"
     id="path1555" />
  <path
     d="m 638.84783,373.66976 -3.13,-4.47 a 0.47,0.47 0 0 0 -0.64,-0.11 l -4.58,3.08 a 0.47,0.47 0 0 0 -0.13,0.64 l 2.87,4.41 a 0.47,0.47 0 0 0 0.63,0.14 l 4.84,-3 a 0.45,0.45 0 0 0 0.14,-0.69 z"
     fill="#464a5f"
     id="path1557" />
  <path
     d="m 632.00783,378.39976 -3.13,-4.46 a 0.46,0.46 0 0 0 -0.64,-0.12 l -4.58,3.09 a 0.46,0.46 0 0 0 -0.13,0.63 l 2.87,4.41 a 0.46,0.46 0 0 0 0.64,0.14 l 4.83,-3 a 0.45,0.45 0 0 0 0.14,-0.69 z"
     fill="#464a5f"
     id="path1559" />
  <path
     d="m 642.73783,350.06976 -2.95,-4.21 a 0.62,0.62 0 0 0 -0.85,-0.15 l -4.35,2.91 a 0.62,0.62 0 0 0 -0.17,0.85 l 2.7,4.16 a 0.62,0.62 0 0 0 0.85,0.18 l 4.56,-2.87 a 0.61,0.61 0 0 0 0.21,-0.87 z"
     fill="#464a5f"
     id="path1561" />
  <path
     d="m 635.89783,354.79976 -2.95,-4.2 a 0.61,0.61 0 0 0 -0.85,-0.16 l -4.32,2.92 a 0.61,0.61 0 0 0 -0.17,0.84 l 2.7,4.16 a 0.63,0.63 0 0 0 0.85,0.19 l 4.57,-2.87 a 0.63,0.63 0 0 0 0.17,-0.88 z"
     fill="#464a5f"
     id="path1563" />
  <path
     d="m 629.05783,359.53976 -3,-4.21 a 0.61,0.61 0 0 0 -0.84,-0.15 l -4.33,2.91 a 0.62,0.62 0 0 0 -0.17,0.85 l 2.7,4.16 a 0.62,0.62 0 0 0 0.85,0.18 l 4.57,-2.87 a 0.61,0.61 0 0 0 0.22,-0.87 z"
     fill="#464a5f"
     id="path1565" />
  <path
     d="m 622.31783,364.40976 -3.13,-4.47 a 0.47,0.47 0 0 0 -0.64,-0.11 l -4.58,3.08 a 0.47,0.47 0 0 0 -0.12,0.64 l 2.87,4.41 a 0.46,0.46 0 0 0 0.63,0.14 l 4.84,-3 a 0.46,0.46 0 0 0 0.13,-0.69 z"
     fill="#464a5f"
     id="path1567" />
  <path
     d="m 703.25783,318.27976 -2.67,-3.86 a 1,1 0 0 0 -1.36,-0.24 l -10.64,7.41 a 1,1 0 0 0 -0.26,1.34 l 2.56,3.94 a 1,1 0 0 0 1.39,0.27 l 10.73,-7.51 a 1,1 0 0 0 0.25,-1.35 z"
     fill="#464a5f"
     id="path1569" />
  <path
     d="m 634.13783,366.74976 -3.32,-4.69 a 0.45,0.45 0 0 0 -0.64,-0.11 l -11.42,8 a 0.46,0.46 0 0 0 -0.12,0.63 l 3.13,4.82 a 0.46,0.46 0 0 0 0.65,0.13 l 11.61,-8.13 a 0.47,0.47 0 0 0 0.11,-0.65 z"
     fill="#464a5f"
     id="path1571" />
  <path
     d="m 670.46783,330.87976 -3,-4.45 a 0.47,0.47 0 0 0 -0.64,-0.13 l -25.35,17.1 a 0.45,0.45 0 0 0 -0.13,0.63 l 3.12,4.8 a 0.46,0.46 0 0 0 0.65,0.13 l 25.28,-17.44 a 0.46,0.46 0 0 0 0.07,-0.64 z"
     fill="#464a5f"
     id="path1573" />
  <path
     d="m 670.58783,315.59976 -13.48,-19.59 a 2.5,2.5 0 0 0 -3.46,-0.66 l -37.13,24.93 a 2.51,2.51 0 0 0 -0.67,3.49 l 13.74,20.15 a 2.5,2.5 0 0 0 3.49,0.66 l 36.87,-25.51 a 2.49,2.49 0 0 0 0.64,-3.47 z"
     opacity="0.1"
     id="path1575" />
  <path
     d="m 671.20783,315.71976 -13.48,-19.59 a 2.51,2.51 0 0 0 -3.46,-0.66 l -37.08,24.95 a 2.5,2.5 0 0 0 -0.68,3.49 l 13.7,20.13 a 2.5,2.5 0 0 0 3.49,0.66 l 36.89,-25.51 a 2.49,2.49 0 0 0 0.62,-3.47 z"
     fill="#939498"
     id="path1577" />
  <path
     d="m 754.79783,347.37976 -28.6,-9.54 -91.73,63.72 28.39,9.25 a 5.2,5.2 0 0 0 4.59,-0.68 l 87.61,-60.92 a 1,1 0 0 0 -0.26,-1.83 z"
     fill="#5dc8cd"
     id="path1579" />
</svg>
